<?xml version="1.0" encoding="utf-8" ?>
<svg baseProfile="full" height="200mm" version="1.1" viewBox="0,0,200,200" width="200mm" xmlns="http://www.w3.org/2000/svg" xmlns:ev="http://www.w3.org/2001/xml-events" xmlns:xlink="http://www.w3.org/1999/xlink"><defs /><rect fill="#1a1a1a" height="200" width="200" x="0" y="0" /><text alignment-baseline="middle" fill="#e1ed5e" style="dominant-baseline: central; font-size:9.0px; font-family:Arial;" text-anchor="middle" x="100.0" y="100.0">2025</text><line stroke="#e1ed5e" stroke-width="0.3" x1="100.0" x2="100.0" y1="15.0" y2="10.0" /><path d="M 100.0 14.0 a86.0,86.0 0 0,1 42.46469731375804,11.215312516191453" fill="none" id="id49" stroke="none" /><text fill="#e1ed5e" style="font-size:6.75px; font-family:Arial;" text-anchor="middle"><textPath startOffset="22.20632615414155" xlink:href="#id49">January</textPath></text><path d="M 100.0 79.0 l 0.0 -60.19924694957959 a81.19924694957959,81.19924694957959 0 0,0 1.3977115573286865,0.012030544647215096 l -1.036231078056158 60.19032778154093" fill="#49f4ff" stroke="none" /><path d="M 101.44485096284872 79.0497635885617 l 3.2037626139954964 -46.454330512399665 a67.56467457463975,67.56467457463975 0 0,0 1.1595700747257598,0.09000495507367925 l -4.002922878083598 46.392300295137524" fill="#33ff4f" stroke="none" /><path d="M 102.16513564639614 79.11191278185805 l 3.25181025804106 -31.371750956975827 a52.539832403816206,52.539832403816206 0 0,0 0.898764628165212,0.10098667808545105 l -3.7913415897159974 31.311128325419773" fill="#e4ff1a" stroke="none" /><path d="M 102.88285421437855 79.19881850522331 l 4.288860810030307 -30.946196193450785 a52.24198114542933,52.24198114542933 0 0,0 0.8896834753079443,0.13111621736775175 l -4.820913265766908 30.867785491922064" fill="#e9ff1a" stroke="none" /><path d="M 103.2404852339499 79.25152402106235 l 4.77229176776296 -30.556467306353543 a51.92688899583841,51.92688899583841 0 0,0 0.8819430819468663,0.14552816530116053 l -5.297564055848702 30.469792878112756" fill="#edff19" stroke="none" /><path d="M 107.76421540070413 80.48803036053334 l 11.543783495574552 -29.010265875647885 a52.22265945701102,52.22265945701102 0 0,0 0.8323698330121014,0.3395445544474765 l -12.041437198175041 28.80726043501683" fill="#e9ff1a" stroke="none" /><path d="M 109.08828744355905 81.06846463323043 l 14.276301712220404 -29.738530218156523 a53.98777000820995,53.98777000820995 0 0,0 0.8343134570331707,0.40939398998261495 l -14.786086436264005 29.488381068039075" fill="#ceff1d" stroke="none" /><path d="M 110.05341064243156 81.56283822128135 l 18.21143617676717 -33.39833683871644 a59.04083741471562,59.04083741471562 0 0,0 0.8880751571582461,0.4942128634599924 l -18.78363542299745 33.079908577696266" fill="#85ff25" stroke="none" /><line stroke="#e1ed5e" stroke-width="0.3" x1="143.23703022742887" x2="145.7803849466894" y1="26.81831364943548" y2="22.513508569990506" /><path d="M 143.74570117128098 25.957352633546492 a86.0,86.0 0 0,1 28.547481713284135,27.462654790039103" fill="none" id="id50" stroke="none" /><text fill="#e1ed5e" style="font-size:6.75px; font-family:Arial;" text-anchor="middle"><textPath startOffset="19.985693538727396" xlink:href="#id50">February</textPath></text><path d="M 111.2981086023043 82.29822771554956 l 16.147854424642112 -25.300309279127557 a51.014310789004334,51.014310789004334 0 0,0 0.7361437298074794,0.4788083590368072 l -16.580965180233875 25.018601995931224" fill="#fcff18" stroke="none" /><path d="M 114.94478906791727 85.2469230424477 l 14.143034537336538 -13.961607353199286 a40.873396936840024,40.873396936840024 0 0,0 0.48996641299288146,0.5049534578527898 l -14.381265214032528 13.716089699796381" fill="#ff5808" stroke="none" /><path d="M 116.60985879189232 87.15038557335679 l 20.869652999512077 -16.14504961309286 a47.385697704045526,47.385697704045526 0 0,0 0.4935424846257972,0.6494440573677837 l -21.14447142436199 15.783420779844041" fill="#ffc812" stroke="none" /><path d="M 117.04232023915458 87.72973835380427 l 21.432323122716777 -15.431009904235399 a47.40947824363729,47.40947824363729 0 0,0 0.47113141957759413,0.6663819814580062 l -21.694767162098255 15.0598014224456" fill="#ffc912" stroke="none" /><path d="M 117.45458315368197 88.32363383020206 l 12.519091362526758 -8.374734221663811 a36.06199926393568,36.06199926393568 0 0,0 0.34070580903261305,0.5189183216386561 l -12.661393806917296 8.15799783604748" fill="#ff0000" stroke="none" /><line stroke="#e1ed5e" stroke-width="0.3" x1="172.23445277983987" x2="176.4835382374775" y1="55.19839476539836" y2="52.563006222186495" /><path d="M 173.08426987136738 54.67131705675599 a86.0,86.0 0 0,1 12.851231095245387,41.99856678651699" fill="none" id="id51" stroke="none" /><text fill="#e1ed5e" style="font-size:6.75px; font-family:Arial;" text-anchor="middle"><textPath startOffset="22.20632615414155" xlink:href="#id51">March</textPath></text><path d="M 118.03404312379186 89.2402003453031 l 38.304791593260255 -22.854103238483265 a65.60456359878833,65.60456359878833 0 0,0 0.5702608759788066,0.9747606898266754 l -38.69251214370939 22.191363136302694" fill="#2fff30" stroke="none" /><path d="M 118.89224826269711 90.83032412892265 l 23.751561503099534 -11.528226677256695 a47.40145231152508,47.40145231152508 0 0,0 0.3499622276620338,0.737109702951512 l -23.946481924603326 11.117674558664643" fill="#ffc812" stroke="none" /><path d="M 119.04729006885535 91.15688171328212 l 35.94762814016951 -16.689467458169016 a60.63294454038445,60.63294454038445 0 0,0 0.43135340142968176,0.9504300419902081 l -36.22958385856254 16.068215407336748" fill="#6fff27" stroke="none" /><path d="M 119.196687751892 91.48605970444005 l 24.12724148824057 -10.700694629321731 a47.393723636157745,47.393723636157745 0 0,0 0.3243294467459235,0.7485970795876031 l -24.307861644829174 10.283798405147525" fill="#ffc812" stroke="none" /><path d="M 119.47837535516314 92.15188598940014 l 24.48651749981651 -9.86596559297586 a47.399371514310786,47.399371514310786 0 0,0 0.29840488789264186,0.7594078911097274 l -24.652715937590855 9.443008696970349" fill="#ffc812" stroke="none" /><path d="M 120.08093135843002 93.85539295169968 l 41.97791840931268 -12.844912854231506 a64.89917334314752,64.89917334314752 0 0,0 0.31767868104766545,1.0710545859608522 l -42.19280298747205 12.120428881524123" fill="#37ff2e" stroke="none" /><path d="M 120.28053869075195 94.5502522615342 l 31.238965260438476 -8.394475259067882 a53.34718172295671,53.34718172295671 0 0,0 0.23067237070600075,0.8888747415122662 l -31.37883396301478 7.855504092006766" fill="#d8ff1c" stroke="none" /><path d="M 120.37134235888165 94.90015583598534 l 31.38315933367106 -7.856586922775107 a53.35164057413017,53.35164057413017 0 0,0 0.21535567490286964,0.892788305378504 l -31.513747808834747 7.315213385737197" fill="#d8ff1c" stroke="none" /><path d="M 120.45610955862082 95.25157060432595 l 31.531410842595694 -7.319313464908503 a53.36977323556889,53.36977323556889 0 0,0 0.20002384371750942,0.8966676706512745 l -31.65272907331524 6.7754676247072645" fill="#d7ff1c" stroke="none" /><path d="M 120.67395015179393 96.31383870115 l 31.839685905293045 -5.677009816212922 a53.34183110154857,53.34183110154857 0 0,0 0.1533911373011995,0.9053231753261026 l -31.932688904114467 5.128100852570982" fill="#d8ff1c" stroke="none" /><path d="M 120.78858239683441 97.02765380044208 l 32.02917717894066 -4.579523569499773 a53.35491039832404,53.35491039832404 0 0,0 0.12216750294581326,0.9102897979287055 l -32.10326068094431 4.027515429506403" fill="#d8ff1c" stroke="none" /><path d="M 120.83666639777658 97.38593545837742 l 32.18407554085132 -4.03765405992291 a53.43635874642584,53.43635874642584 0 0,0 0.10664280627791863,0.9136504385249391 l -32.24880870013283 3.4830598830731185" fill="#d6ff1c" stroke="none" /><path d="M 120.96714384426684 98.82574320788733 l 62.90143153280055 -3.5227703763380056 a84.0,84.0 0 0,0 0.0684255670660141,1.444355573508001 l -62.95275070810006 2.4395036962070047" fill="#4dd2ff" stroke="none" /><path d="M 120.98425023603335 99.18683210126433 l 18.540256082902495 -0.7184598406602346 a39.55417150298672,39.55417150298672 0 0,0 0.02050847166087316,0.680576331328595 l -18.54987624901901 0.39921336190664053" fill="#ff4106" stroke="none" /><line stroke="#e1ed5e" stroke-width="0.3" x1="184.98032266829074" x2="189.97916517819016" y1="98.17113171792111" y2="98.06355123074" /><path d="M 185.9800911702706 98.14961562048488 a86.0,86.0 0 0,1 -9.607161424134198,41.387399972396054" fill="none" id="id52" stroke="none" /><text fill="#e1ed5e" style="font-size:6.75px; font-family:Arial;" text-anchor="middle"><textPath startOffset="21.466115282336823" xlink:href="#id52">April</textPath></text><line stroke="#e1ed5e" stroke-width="0.3" x1="174.80103733775053" x2="179.2010983576182" y1="140.37084112569926" y2="142.7455964860345" /><path d="M 175.68104954172406 140.8457921977663 a86.0,86.0 0 0,1 -30.038265399797805,32.042727171017184" fill="none" id="id53" stroke="none" /><text fill="#e1ed5e" style="font-size:6.75px; font-family:Arial;" text-anchor="middle"><textPath startOffset="22.206326154141568" xlink:href="#id53">May</textPath></text><line stroke="#e1ed5e" stroke-width="0.3" x1="143.8653032363475" x2="146.44561519142675" y1="172.8068346515853" y2="177.08958963109032" /><path d="M 144.38136562736335 173.6633856474863 a86.0,86.0 0 0,1 -40.68145358897372,12.25698825130547" fill="none" id="id54" stroke="none" /><text fill="#e1ed5e" style="font-size:6.75px; font-family:Arial;" text-anchor="middle"><textPath startOffset="21.466115282336833" xlink:href="#id54">June</textPath></text><line stroke="#e1ed5e" stroke-width="0.3" x1="102.19456741930631" x2="102.32365962044197" y1="184.97166512339345" y2="189.96999836594603" /><path d="M 102.22038585953345 185.97133177190398 a86.0,86.0 0 0,1 -42.740103519485714,-10.115201625700543" fill="none" id="id55" stroke="none" /><text fill="#e1ed5e" style="font-size:6.75px; font-family:Arial;" text-anchor="middle"><textPath startOffset="22.20632615414155" xlink:href="#id55">July</textPath></text><line stroke="#e1ed5e" stroke-width="0.3" x1="58.666819895761336" x2="56.23545636021788" y1="174.27360380694188" y2="178.64263932499728" /><path d="M 58.180547188652646 175.14741091055294 a86.0,86.0 0 0,1 -31.652253787137756,-30.449443065178592" fill="none" id="id56" stroke="none" /><text fill="#e1ed5e" style="font-size:6.75px; font-family:Arial;" text-anchor="middle"><textPath startOffset="22.20632615414155" xlink:href="#id56">August</textPath></text><line stroke="#e1ed5e" stroke-width="0.3" x1="26.63291911575756" x2="22.317208475507996" y1="142.92168965132927" y2="145.44649492493687" /><path d="M 25.769776987707644 143.4266507060508 a86.0,86.0 0 0,1 -11.730757126820373,-40.83630448921669" fill="none" id="id57" stroke="none" /><text fill="#e1ed5e" style="font-size:6.75px; font-family:Arial;" text-anchor="middle"><textPath startOffset="21.46611528233685" xlink:href="#id57">September</textPath></text><line stroke="#e1ed5e" stroke-width="0.3" x1="15.007084014347285" x2="10.007500721073583" y1="101.09737516637583" y2="101.16192664675087" /><path d="M 14.007167355692545 101.11028546245083 a86.0,86.0 0 0,1 10.666146001902534,-42.60595125391555" fill="none" id="id58" stroke="none" /><text fill="#e1ed5e" style="font-size:6.75px; font-family:Arial;" text-anchor="middle"><textPath startOffset="22.20632615414155" xlink:href="#id58">October</textPath></text><line stroke="#e1ed5e" stroke-width="0.3" x1="26.266209847984243" x2="21.928928074336255" y1="57.711370442889674" y2="55.22380399835377" /><path d="M 25.398753493254645 57.213857153982495 a86.0,86.0 0 0,1 29.58750427330803,-30.492523968695096" fill="none" id="id59" stroke="none" /><text fill="#e1ed5e" style="font-size:6.75px; font-family:Arial;" text-anchor="middle"><textPath startOffset="21.46611528233685" xlink:href="#id59">November</textPath></text><line stroke="#e1ed5e" stroke-width="0.3" x1="56.762969772571076" x2="54.21961505331055" y1="26.818313649435495" y2="22.513508569990535" /><path d="M 56.25429882871897 25.957352633546506 a86.0,86.0 0 0,1 42.265352541879196,-11.944610805530505" fill="none" id="id60" stroke="none" /><text fill="#e1ed5e" style="font-size:6.75px; font-family:Arial;" text-anchor="middle"><textPath startOffset="22.20632615414155" xlink:href="#id60">December</textPath></text></svg>