<?xml version="1.0" encoding="utf-8" ?>
<svg baseProfile="full" height="200mm" version="1.1" viewBox="0,0,200,200" width="200mm" xmlns="http://www.w3.org/2000/svg" xmlns:ev="http://www.w3.org/2001/xml-events" xmlns:xlink="http://www.w3.org/1999/xlink"><defs /><rect fill="#1a1a1a" height="200" width="200" x="0" y="0" /><text alignment-baseline="middle" fill="#e1ed5e" style="dominant-baseline: central; font-size:9.0px; font-family:Arial;" text-anchor="middle" x="100.0" y="100.0">2026</text><line stroke="#e1ed5e" stroke-width="0.3" x1="100.0" x2="100.0" y1="15.0" y2="10.0" /><path d="M 100.0 14.0 a86.0,86.0 0 0,1 42.46469731375804,11.215312516191453" fill="none" id="id61" stroke="none" /><text fill="#e1ed5e" style="font-size:6.75px; font-family:Arial;" text-anchor="middle"><textPath startOffset="22.20632615414155" xlink:href="#id61">January</textPath></text><path d="M 100.0 79.0 l 0.0 -25.667540566099568 a46.66754056609957,46.66754056609957 0 0,0 0.8033049966811349,0.006914299718873062 l -0.44182451740860645 25.663737642989254" fill="#fff717" stroke="none" /><path d="M 100.72285384407766 79.0124445844662 l 2.0575151654407033 -59.73851271149722 a80.77393470098596,80.77393470098596 0 0,0 1.389154620059361,0.059819920104122286 l -3.085510617889396 59.69424506486891" fill="#48f5ff" stroke="none" /><path d="M 101.44485096284872 79.0497635885617 l 1.4386481729266554 -20.86029639781816 a41.90984634975328,41.90984634975328 0 0,0 0.7192723707984742,0.055829379207432625 l -1.7975107330874707 20.832441756422263" fill="#ffb210" stroke="none" /><path d="M 101.80526077348638 79.07773832637324 l 1.6380052669494733 -18.983836197643043 a40.0543721500735,40.0543721500735 0 0,0 0.6864077184279886,0.0651826837150082 l -1.9645381124677064 18.95282796941286" fill="#ff950d" stroke="none" /><path d="M 102.52436894288641 79.15227682838746 l 2.8627210315130944 -23.642033685574336 a44.81472083594723,44.81472083594723 0 0,0 0.7650198745580775,0.09932153593505169 l -3.269255634579018 23.589253826475147" fill="#ffdd14" stroke="none" /><path d="M 102.88285421437855 79.19881850522331 l 4.501016445477202 -32.477001274075306 a53.78741772080786,53.78741772080786 0 0,0 0.9160023352191572,0.13499493317260086 l -5.059387761125015 32.394711856741736" fill="#a6ff21" stroke="none" /><path d="M 103.95276090670814 79.375362276772 l 6.184291908192322 -32.26827607121326 a53.85554910534546,53.85554910534546 0 0,0 0.9089626495012922,0.18232935641331927 l -6.7388209671607395 32.157042758722724" fill="#a5ff21" stroke="none" /><path d="M 104.307194497241 79.44645832069477 l 4.419672521349439 -21.090276613843116 a42.54839374163163,42.54839374163163 0 0,0 0.7155368964494145,0.15638865116933806 l -4.782052141952382 21.011074464577906" fill="#ffbb11" stroke="none" /><path d="M 104.66035177308747 79.52364482259891 l 6.883707113564058 -30.245191491448043 a52.018656192357746,52.018656192357746 0 0,0 0.8713776706910334,0.20622694156916663 l -7.403308471217615 30.12221863773801" fill="#bdff1f" stroke="none" /><path d="M 105.01212808612495 79.60689891045804 l 6.048075515804125 -24.608113214906837 a46.34045093210738,46.34045093210738 0 0,0 0.772983240754522,0.19705063925813257 l -6.470767645243671 24.500359579479838" fill="#fff316" stroke="none" /><path d="M 105.36241919743992 79.69619591428918 l 10.803215342354163 -40.90436792252693 a63.3069353283209,63.3069353283209 0 0,0 1.0512029512268346,0.2873334759918278 l -11.505716182804708 40.71234790570881" fill="#32ff2f" stroke="none" /><path d="M 106.0581310904928 79.89281104454417 l 17.241858228475948 -57.22644428860422 a80.76744599769665,80.76744599769665 0 0,0 1.327719227009621,0.41252882683791653 l -18.224362828196288 56.921175326883784" fill="#48f5ff" stroke="none" /><path d="M 106.74666289553966 80.11325718540242 l 9.972365096515194 -29.394956143248088 a52.04048183069446,52.04048183069446 0 0,0 0.8458263317159168,0.29509219890030164 l -10.476873432294385 29.21894309117558" fill="#bdff1f" stroke="none" /><path d="M 107.08798089147638 80.2323363322302 l 7.860915315803676 -21.923299803261784 a44.29002069269014,44.29002069269014 0 0,0 0.7154265624218482,0.2634976406730936 l -8.2371242039981 21.784738894782368" fill="#ffd513" stroke="none" /><path d="M 107.4271985657038 80.35727306442388 l 7.391558082328898 -19.548468477748166 a41.899228471643525,41.899228471643525 0 0,0 0.6724164461175781,0.2608871344773488 l -7.726957693446144 19.41833863938027" fill="#ffb110" stroke="none" /><path d="M 107.76421540070413 80.48803036053334 l 12.010648954565339 -30.183528619069165 a53.48539807679704,53.48539807679704 0 0,0 0.8524964513233432,0.3477547074059219 l -12.528429275477068 29.972313025479664" fill="#a9ff21" stroke="none" /><path d="M 108.43124777332544 80.76684994638697 l 23.997214281809892 -54.74184077604387 a80.7706903493413,80.7706903493413 0 0,0 1.2685532371902584,0.5691628600879582 l -24.93594963746693 54.320657585439385" fill="#48f5ff" stroke="none" /><path d="M 109.08828744355905 81.06846463323043 l 11.495682467219954 -23.946306776153325 a47.562686678963686,47.562686678963686 0 0,0 0.7350218307382809,0.3606720201785111 l -11.906175564968667 23.744879595839983" fill="#faff18" stroke="none" /><path d="M 109.41281617654863 81.2277094730956 l 9.59833857850773 -19.14228398725714 a42.41390061890806,42.41390061890806 0 0,0 0.6498203668850694,0.3328632310785146 l -9.926419432981556 18.974228230866125" fill="#ffb911" stroke="none" /><path d="M 109.73455568895987 81.39251694778311 l 8.22657957828678 -15.725005328624398 a38.74689843728055,38.74689843728055 0 0,0 0.5883162142091116,0.3142581469497532 l -8.496040839024202 15.581068455172892" fill="#ff810b" stroke="none" /><path d="M 110.36928655335952 81.73862282372117 l 16.749736216069866 -29.49800346155253 a54.921761032200074,54.921761032200074 0 0,0 0.8180812528395517,0.4738854651358017 l -17.25501420137475 29.205313839026676" fill="#97ff23" stroke="none" /><line stroke="#e1ed5e" stroke-width="0.3" x1="143.23703022742887" x2="145.7803849466894" y1="26.81831364943548" y2="22.513508569990506" /><path d="M 143.74570117128098 25.957352633546492 a86.0,86.0 0 0,1 28.547481713284135,27.462654790039103" fill="none" id="id62" stroke="none" /><text fill="#e1ed5e" style="font-size:6.75px; font-family:Arial;" text-anchor="middle"><textPath startOffset="19.985693538727396" xlink:href="#id62">February</textPath></text><path d="M 111.2981086023043 82.29822771554956 l 11.793083838024762 -18.477294915502053 a42.920019475473076,42.920019475473076 0 0,0 0.6193419597642489,0.40283723874808347 l -12.10939282357329 18.271558752594444" fill="#ffc111" stroke="none" /><path d="M 111.90073688211348 82.69761687909136 l 12.202152536144022 -17.740608852334915 a42.53187704234979,42.53187704234979 0 0,0 0.5996363984427039,0.4200836173468543 l -12.505720074170377 17.527940392224124" fill="#ffbb11" stroke="none" /><path d="M 112.48926042617603 83.11751280151076 l 19.799677659274803 -26.76441944603334 a54.292061872079856,54.292061872079856 0 0,0 0.7465257945690907,0.5622677513666418 l -20.257449607602275 26.41963510516085" fill="#9fff22" stroke="none" /><path d="M 113.34407831869373 83.78471172551755 l 16.32497756614829 -19.837579710448427 a46.691135850787916,46.691135850787916 0 0,0 0.6161950662792295,0.5160456471874201 l -16.66403016938664 19.553632905867186" fill="#fff817" stroke="none" /><path d="M 113.89432698308785 84.25364557470407 l 20.088237665837106 -22.76587491073664 a51.36152751378732,51.36152751378732 0 0,0 0.6578898362616684,0.5906599907477448 l -20.477138489694763 22.416715911219598" fill="#c6ff1e" stroke="none" /><path d="M 114.42810811169701 84.74124197986012 l 31.422585169358086 -33.23163506639934 a66.73533019353752,66.73533019353752 0 0,0 0.8278891313559354,0.7964286884287107 l -31.98995754432644 32.68582329120833" fill="#34ff5c" stroke="none" /><path d="M 115.19652480421416 85.50635884689758 l 21.69753155302494 -20.693957354674456 a50.98370801771519,50.98370801771519 0 0,0 0.6002304128140813,0.6402839545348105 l -22.050529287809486 20.317403983261592" fill="#cbff1d" stroke="none" /><path d="M 116.15771136456269 86.58626213691792 l 35.29632614643104 -29.302149034328277 a66.87424743214015,66.87424743214015 0 0,0 0.7276603037856841,0.8920254929184412 l -35.795484942293136 28.690239371801734" fill="#34ff5e" stroke="none" /><path d="M 116.38621287248628 86.86637796730983 l 26.775787726464408 -21.460912192676165 a55.31491746331963,55.31491746331963 0 0,0 0.5890931225215768,0.7480884422591753 l -27.141234929579948 20.99683135646395" fill="#92ff23" stroke="none" /><path d="M 116.60985879189232 87.15038557335679 l 24.735627343574286 -19.135820355150127 a52.27348526699188,52.27348526699188 0 0,0 0.5444509007729263,0.7164335655999408 l -25.061354184571325 18.707202013669153" fill="#b9ff1f" stroke="none" /><path d="M 117.04232023915458 87.72973835380427 l 24.715920092907865 -17.795159468350086 a51.4556137114821,51.4556137114821 0 0,0 0.5113398677063143,0.7232539798473114 l -25.018572580418063 17.367078988170984" fill="#c4ff1e" stroke="none" /><path d="M 117.65298651832404 88.62581576622439 l 27.44493042170784 -17.683336163862574 a53.64850048220522,53.64850048220522 0 0,0 0.49349570456893277,0.7805916913782547 l -27.74525372252273 17.208296824770112" fill="#a7ff21" stroke="none" /><line stroke="#e1ed5e" stroke-width="0.3" x1="172.23445277983987" x2="176.4835382374775" y1="55.19839476539836" y2="52.563006222186495" /><path d="M 173.08426987136738 54.67131705675599 a86.0,86.0 0 0,1 12.851231095245387,41.99856678651699" fill="none" id="id63" stroke="none" /><text fill="#e1ed5e" style="font-size:6.75px; font-family:Arial;" text-anchor="middle"><textPath startOffset="22.20632615414155" xlink:href="#id63">March</textPath></text><path d="M 118.21658344932153 89.55222093294921 l 26.42249753015279 -15.154126862631488 a51.459742886302564,51.459742886302564 0 0,0 0.43408096349355135,0.7721815979995058 l -26.679436134938776 14.697061754697188" fill="#c4ff1e" stroke="none" /><path d="M 118.56541770881063 90.18545643968196 l 21.24729582241941 -11.232309106039406 a45.033567101431636,45.033567101431636 0 0,0 0.35638828778137427,0.6884287358799377 l -21.4374935433609 10.864907647899123" fill="#ffe015" stroke="none" /><path d="M 118.89224826269711 90.83032412892265 l 29.281649272172583 -14.21234937540769 a53.54851546333836,53.54851546333836 0 0,0 0.3953456454537442,0.8326987550353784 l -29.521953111468083 13.706208204731771" fill="#a9ff21" stroke="none" /><path d="M 119.04729006885535 91.15688171328212 l 31.96410315273989 -14.840029426060891 a56.2410323873372,56.2410323873372 0 0,0 0.4001085681075019,0.8815861934243879 l -32.21481403781074 14.28762122379444" fill="#86ff25" stroke="none" /><path d="M 119.34039704204932 91.81776055985345 l 27.416929172604277 -11.59913515301942 a50.769580809168446,50.769580809168446 0 0,0 0.33357624369256894,0.8077813331318641 l -27.612527103183044 11.125479249434253" fill="#ceff1d" stroke="none" /><path d="M 119.47837535516314 92.15188598940014 l 27.17235277036139 -10.948126760556972 a50.295020645874104,50.295020645874104 0 0,0 0.316634578010362,0.8058004640519719 l -27.356780898253454 10.478777291609216" fill="#d4ff1c" stroke="none" /><path d="M 119.61058180528143 92.48833698450437 l 18.852147819207186 -7.22115146517771 a41.1878306382899,41.1878306382899 0 0,0 0.2479025143929533,0.6642554891972923 l -18.973654922101765 6.895572838951083" fill="#ffa70f" stroke="none" /><path d="M 119.7369772167798 92.82701384747503 l 18.204973386037537 -6.616211822655097 a40.36995908278012,40.36995908278012 0 0,0 0.23173686644110428,0.6551513274510435 l -18.31616333328845 6.301862868777438" fill="#ff9a0e" stroke="none" /><path d="M 119.85752413597 93.16781622104841 l 39.07349634797706 -13.44363507291452 a62.321537251523864,62.321537251523864 0 0,0 0.3402836246458652,1.0174047255738736 l -39.2991172663947 12.769057244418331" fill="#3dff2e" stroke="none" /><path d="M 120.08093135843002 93.85539295169968 l 39.915271940775725 -12.213759258688572 a62.74212320109363,62.74212320109363 0 0,0 0.3071200127506414,1.0354560054584663 l -40.119597850638065 11.524873866483576" fill="#38ff2e" stroke="none" /><path d="M 120.28053869075195 94.5502522615342 l 14.916595313189797 -4.008359088150607 a36.44576829804964,36.44576829804964 0 0,0 0.15759092615561635,0.6072621238621886 l -14.983382571215715 3.751000538739568" fill="#ff5c08" stroke="none" /><path d="M 120.6074358757038 95.95851677861258 l 61.822307627111385 -12.124449664162288 a84.0,84.0 0 0,0 0.26605710436056285,1.4212876901497489 l -62.02185045538181 11.058483896549978" fill="#4dd2ff" stroke="none" /><path d="M 120.67395015179393 96.31383870115 l 14.549736914770119 -2.5942152675172645 a35.77920150560388,35.77920150560388 0 0,0 0.102887589296012,0.607248376157552 l -14.592236365586354 2.3433811030438747" fill="#ff5207" stroke="none" /><path d="M 120.78858239683441 97.02765380044208 l 19.63685121414821 -2.8076719693280063 a40.836555837492156,40.836555837492156 0 0,0 0.09350404711260465,0.6967137585631238 l -19.68227126031865 2.4692398687002184" fill="#ffa10e" stroke="none" /><path d="M 120.94382443527127 98.46500227214037 l 62.43289723288669 -4.57578107056615 a83.60035486559116,83.60035486559116 0 0,0 0.09283385082317724,1.4360985829996034 l -62.50241167471428 3.500423423313512" fill="#4cd6ff" stroke="none" /><path d="M 120.96714384426684 98.82574320788733 l 9.849753662929713 -0.5516316492717933 a30.8651885281973,30.8651885281973 0 0,0 0.025142476519539686,0.5307179414056784 l -9.85778974768275 0.3820026012431152" fill="#ff0000" stroke="none" /><line stroke="#e1ed5e" stroke-width="0.3" x1="184.98032266829074" x2="189.97916517819016" y1="98.17113171792111" y2="98.06355123074" /><path d="M 185.9800911702706 98.14961562048488 a86.0,86.0 0 0,1 -9.607161424134198,41.387399972396054" fill="none" id="id64" stroke="none" /><text fill="#e1ed5e" style="font-size:6.75px; font-family:Arial;" text-anchor="middle"><textPath startOffset="21.466115282336823" xlink:href="#id64">April</textPath></text><path d="M 120.99980553446 99.90962569577887 l 16.648678703512104 -0.07164888987005293 a37.64883287609666,37.64883287609666 0 0,0 -0.0027890662548757925,0.6480807734001167 l -16.647445339967724 -0.21494136173374856" fill="#ff700a" stroke="none" /><path d="M 120.9904718944345 100.63252640178507 l 45.867289340320276 1.3821638518646133 a66.88810966189455,66.88810966189455 0 0,0 -0.044585279661016754,1.150547957814219 l -45.83670192780806 -2.1714890566928386" fill="#34ff5e" stroke="none" /><line stroke="#e1ed5e" stroke-width="0.3" x1="174.80103733775053" x2="179.2010983576182" y1="140.37084112569926" y2="142.7455964860345" /><path d="M 175.68104954172406 140.8457921977663 a86.0,86.0 0 0,1 -30.038265399797805,32.042727171017184" fill="none" id="id65" stroke="none" /><text fill="#e1ed5e" style="font-size:6.75px; font-family:Arial;" text-anchor="middle"><textPath startOffset="22.206326154141568" xlink:href="#id65">May</textPath></text><line stroke="#e1ed5e" stroke-width="0.3" x1="143.8653032363475" x2="146.44561519142675" y1="172.8068346515853" y2="177.08958963109032" /><path d="M 144.38136562736335 173.6633856474863 a86.0,86.0 0 0,1 -40.68145358897372,12.25698825130547" fill="none" id="id66" stroke="none" /><text fill="#e1ed5e" style="font-size:6.75px; font-family:Arial;" text-anchor="middle"><textPath startOffset="21.466115282336833" xlink:href="#id66">June</textPath></text><line stroke="#e1ed5e" stroke-width="0.3" x1="102.19456741930631" x2="102.32365962044197" y1="184.97166512339345" y2="189.96999836594603" /><path d="M 102.22038585953345 185.97133177190398 a86.0,86.0 0 0,1 -42.740103519485714,-10.115201625700543" fill="none" id="id67" stroke="none" /><text fill="#e1ed5e" style="font-size:6.75px; font-family:Arial;" text-anchor="middle"><textPath startOffset="22.20632615414155" xlink:href="#id67">July</textPath></text><line stroke="#e1ed5e" stroke-width="0.3" x1="58.666819895761336" x2="56.23545636021788" y1="174.27360380694188" y2="178.64263932499728" /><path d="M 58.180547188652646 175.14741091055294 a86.0,86.0 0 0,1 -31.652253787137756,-30.449443065178592" fill="none" id="id68" stroke="none" /><text fill="#e1ed5e" style="font-size:6.75px; font-family:Arial;" text-anchor="middle"><textPath startOffset="22.20632615414155" xlink:href="#id68">August</textPath></text><line stroke="#e1ed5e" stroke-width="0.3" x1="26.63291911575756" x2="22.317208475507996" y1="142.92168965132927" y2="145.44649492493687" /><path d="M 25.769776987707644 143.4266507060508 a86.0,86.0 0 0,1 -11.730757126820373,-40.83630448921669" fill="none" id="id69" stroke="none" /><text fill="#e1ed5e" style="font-size:6.75px; font-family:Arial;" text-anchor="middle"><textPath startOffset="21.46611528233685" xlink:href="#id69">September</textPath></text><line stroke="#e1ed5e" stroke-width="0.3" x1="15.007084014347285" x2="10.007500721073583" y1="101.09737516637583" y2="101.16192664675087" /><path d="M 14.007167355692545 101.11028546245083 a86.0,86.0 0 0,1 10.666146001902534,-42.60595125391555" fill="none" id="id70" stroke="none" /><text fill="#e1ed5e" style="font-size:6.75px; font-family:Arial;" text-anchor="middle"><textPath startOffset="22.20632615414155" xlink:href="#id70">October</textPath></text><line stroke="#e1ed5e" stroke-width="0.3" x1="26.266209847984243" x2="21.928928074336255" y1="57.711370442889674" y2="55.22380399835377" /><path d="M 25.398753493254645 57.213857153982495 a86.0,86.0 0 0,1 29.58750427330803,-30.492523968695096" fill="none" id="id71" stroke="none" /><text fill="#e1ed5e" style="font-size:6.75px; font-family:Arial;" text-anchor="middle"><textPath startOffset="21.46611528233685" xlink:href="#id71">November</textPath></text><line stroke="#e1ed5e" stroke-width="0.3" x1="56.762969772571076" x2="54.21961505331055" y1="26.818313649435495" y2="22.513508569990535" /><path d="M 56.25429882871897 25.957352633546506 a86.0,86.0 0 0,1 42.265352541879196,-11.944610805530505" fill="none" id="id72" stroke="none" /><text fill="#e1ed5e" style="font-size:6.75px; font-family:Arial;" text-anchor="middle"><textPath startOffset="22.20632615414155" xlink:href="#id72">December</textPath></text></svg>