<?xml version="1.0" encoding="utf-8" ?>
<svg baseProfile="full" height="200mm" version="1.1" viewBox="0,0,200,200" width="200mm" xmlns="http://www.w3.org/2000/svg" xmlns:ev="http://www.w3.org/2001/xml-events" xmlns:xlink="http://www.w3.org/1999/xlink"><defs /><rect fill="#1a1a1a" height="200" width="200" x="0" y="0" /><text alignment-baseline="middle" fill="#e1ed5e" style="dominant-baseline: central; font-size:9.0px; font-family:Arial;" text-anchor="middle" x="100.0" y="100.0">2023</text><line stroke="#e1ed5e" stroke-width="0.3" x1="100.0" x2="100.0" y1="15.0" y2="10.0" /><path d="M 100.0 14.0 a86.0,86.0 0 0,1 42.46469731375804,11.215312516191453" fill="none" id="id25" stroke="none" /><text fill="#e1ed5e" style="font-size:6.75px; font-family:Arial;" text-anchor="middle"><textPath startOffset="22.20632615414155" xlink:href="#id25">January</textPath></text><path d="M 103.59715602781102 79.31037775812273 l 1.2659713617268042 -7.281438180790118 a28.390671516809586,28.390671516809586 0 0,0 0.4807553003115426,0.087854958221389 l -1.3911217831412477 7.25856774121799" fill="#ff2d04" stroke="none" /><path d="M 104.307194497241 79.44645832069477 l 1.5310839603207833 -7.306193860789589 a28.464896973501446,28.464896973501446 0 0,0 0.4786945463053456,0.10462408687838182 l -1.6566212307796568 7.278756275815336" fill="#ff2e04" stroke="none" /><path d="M 105.36241919743992 79.69619591428918 l 2.2609935546940214 -8.560832057941063 a29.854373912289866,29.854373912289866 0 0,0 0.4957277713866694,0.1355011261450288 l -2.4080192153044013 8.520644390969741" fill="#ff4306" stroke="none" /><path d="M 106.0581310904928 79.89281104454417 l 1.3992353118205192 -4.644120172981064 a25.850331085496652,25.850331085496652 0 0,0 0.42494821004686956,0.13203347740345506 l -1.478968894578107 4.619346560695089" fill="#ff0601" stroke="none" /><path d="M 107.08798089147638 80.2323363322302 l 5.011753635081611 -13.9772753003825 a35.84863291085871,35.84863291085871 0 0,0 0.5790709466787698,0.2132767166425395 l -5.251606907532957 13.888935315933637" fill="#ff990e" stroke="none" /><path d="M 108.76106565485865 80.91482961587045 l 5.70335567083109 -12.424232282603416 a34.670764928126225,34.670764928126225 0 0,0 0.5402395102567918,0.2536496938865262 l -5.91637339238748 12.324217606076886" fill="#ff890c" stroke="none" /><path d="M 109.41281617654863 81.2277094730956 l 6.677420210062723 -13.316999907617703 a35.89732953254522,35.89732953254522 0 0,0 0.5499804428888984,0.2817213442039892 l -6.905661140540378 13.200086038101214" fill="#ff9a0e" stroke="none" /><path d="M 110.05341064243156 81.56283822128135 l 7.183991495425351 -13.174873496071646 a36.006232886498694,36.006232886498694 0 0,0 0.5415953148622487,0.30139720634803563 l -7.409710899359635 13.049260892163431" fill="#ff9c0e" stroke="none" /><line stroke="#e1ed5e" stroke-width="0.3" x1="143.23703022742887" x2="145.7803849466894" y1="26.81831364943548" y2="22.513508569990506" /><path d="M 143.74570117128098 25.957352633546492 a86.0,86.0 0 0,1 28.547481713284135,27.462654790039103" fill="none" id="id26" stroke="none" /><text fill="#e1ed5e" style="font-size:6.75px; font-family:Arial;" text-anchor="middle"><textPath startOffset="19.985693538727396" xlink:href="#id26">February</textPath></text><path d="M 110.68208982089419 81.91981866633111 l 8.5161173300928 -14.414121971311875 a37.741898535822116,37.741898535822116 0 0,0 0.556491594269311,0.33527995892031265 l -8.762970990579749 14.265395402932949" fill="#ffb310" stroke="none" /><path d="M 111.2981086023043 82.29822771554956 l 11.912700897931702 -18.664709820982452 a43.142353880856064,43.142353880856064 0 0,0 0.622550276722996,0.40492401734319483 l -12.232218200438977 18.45688687947973" fill="#fffb17" stroke="none" /><path d="M 112.19680574252982 82.90503203632743 l 6.042451075892038 -8.46906228933741 a31.403664309522192,31.403664309522192 0 0,0 0.43734041480824426,0.317746410573693 l -6.187336807054071 8.363796643947042" fill="#ff5a08" stroke="none" /><path d="M 112.77801427241765 83.33499621200491 l 7.699689736853378 -10.041885687045077 a33.654038493520005,33.654038493520005 0 0,0 0.45668120752688435,0.35644692623201624 l -7.871403499539692 9.907860371589837" fill="#ff7a0b" stroke="none" /><path d="M 113.34407831869373 83.78471172551755 l 19.901486222647282 -24.183636253002515 a52.31960115147952,52.31960115147952 0 0,0 0.6904753870684587,0.5782532796607329 l -20.314819146674857 23.837481815947964" fill="#93ff23" stroke="none" /><path d="M 114.42810811169701 84.74124197986012 l 9.43339514944767 -9.976491219738515 a34.73023383279187,34.73023383279187 0 0,0 0.4308479936524376,0.41447542853322694 l -9.603726386712525 9.812632704442986" fill="#ff8a0c" stroke="none" /><path d="M 114.94478906791727 85.2469230424477 l 12.081878434253086 -11.926891809732835 a37.97711797511998,37.97711797511998 0 0,0 0.4552475121857486,0.4691725786934984 l -12.285390210141944 11.717155035489222" fill="#ffb710" stroke="none" /><path d="M 115.68641384162765 86.03803664274999 l 16.445475942244357 -14.637579679864382 a43.01618536103193,43.01618536103193 0 0,0 0.4875334339890027,0.5573349937251082 l -16.69500123981121 14.352329129936326" fill="#fffa17" stroke="none" /><path d="M 116.15771136456269 86.58626213691792 l 13.109678553093373 -10.88333536927387 a38.03850523154904,38.03850523154904 0 0,0 0.41389789545563643,0.5073898799905694 l -13.295074940625417 10.6560613196752" fill="#ffb811" stroke="none" /><path d="M 116.38621287248628 86.86637796730983 l 14.192167790885348 -11.37508520367012 a39.18818819991146,39.18818819991146 0 0,0 0.4173465895155222,0.529987786474983 l -14.385868460994834 11.129105023242099" fill="#ffc712" stroke="none" /><path d="M 117.04232023915458 87.72973835380427 l 27.32262412610112 -19.671954416023336 a54.667663709890874,54.667663709890874 0 0,0 0.5432595962409271,0.7684021721872912 l -27.657196342145927 19.19872574350425" fill="#78ff26" stroke="none" /><line stroke="#e1ed5e" stroke-width="0.3" x1="172.23445277983987" x2="176.4835382374775" y1="55.19839476539836" y2="52.563006222186495" /><path d="M 173.08426987136738 54.67131705675599 a86.0,86.0 0 0,1 12.851231095245387,41.99856678651699" fill="none" id="id27" stroke="none" /><text fill="#e1ed5e" style="font-size:6.75px; font-family:Arial;" text-anchor="middle"><textPath startOffset="22.20632615414155" xlink:href="#id27">March</textPath></text><path d="M 117.84615892207809 88.93136811851018 l 14.456789486226091 -8.966460609810362 a38.01164830686133,38.01164830686133 0 0,0 0.3400851522837833,0.5590105709846312 l -14.608990436796098 8.71628226561865" fill="#ffb711" stroke="none" /><path d="M 118.3937258080291 89.86733742301442 l 27.559503746696976 -15.18186990329897 a52.46451049237696,52.46451049237696 0 0,0 0.4289395966670951,0.7947599279894695 l -27.816751442582536 14.705228991977043" fill="#91ff24" stroke="none" /><path d="M 118.56541770881063 90.18545643968196 l 10.61966297265104 -5.614047929097601 a33.0122760458999,33.0122760458999 0 0,0 0.2612537556544199,0.5046591005240606 l -10.714726161465576 5.430416106313195" fill="#ff710a" stroke="none" /><path d="M 119.04729006885535 91.15688171328212 l 10.762125551484118 -4.996550633934995 a32.86544835323906,32.86544835323906 0 0,0 0.23381056361593805,0.5151705841630557 l -10.846538432063403 4.810558040929877" fill="#ff6f0a" stroke="none" /><path d="M 119.196687751892 91.48605970444005 l 11.879689833058004 -5.268771950434926 a33.99565267292688,33.99565267292688 0 0,0 0.2326424340029093,0.5369708129498376 l -11.968622976903593 5.063501992898487" fill="#ff7f0b" stroke="none" /><path d="M 119.34039704204932 91.81776055985345 l 10.903410503525704 -4.6128481881777805 a32.839034125112136,32.839034125112136 0 0,0 0.21576545394617003,0.5224931610929395 l -10.98119764435807 4.424480456631538" fill="#ff6f0a" stroke="none" /><path d="M 119.61058180528143 92.48833698450437 l 14.617503675625453 -5.599107809718115 a36.653160127327965,36.653160127327965 0 0,0 0.22060910747663998,0.59112272808976 l -14.711717371603719 5.346661944599021" fill="#ffa40f" stroke="none" /><path d="M 119.85752413597 93.16781622104841 l 12.562833255714537 -4.322370956200461 a34.28561892024201,34.28561892024201 0 0,0 0.18720389762403578,0.5597158261340272 l -12.635374447110344 4.10548202714412" fill="#ff830c" stroke="none" /><path d="M 120.08093135843002 93.85539295169968 l 12.712355727165125 -3.889880862963458 a34.29417772041721,34.29417772041721 0 0,0 0.16786853490772066,0.5659692477899279 l -12.777430159184549 3.670482228427" fill="#ff830c" stroke="none" /><path d="M 120.28053869075195 94.5502522615342 l 35.69431623525658 -9.591708689073288 a57.960588294540784,57.960588294540784 0 0,0 0.2506206678142619,0.9657436676929181 l -35.85413323494114 8.97586859583152" fill="#54ff2b" stroke="none" /><path d="M 120.53481517161879 95.60439243477599 l 19.541524792869396 -4.1829874531458 a40.9842081470221,40.9842081470221 0 0,0 0.1417286691430031,0.6911193246536359 l -19.610632757927398 3.8459924723287524" fill="#ffdf14" stroke="none" /><path d="M 120.6074358757038 95.95851677861258 l 17.588258198409918 -3.449368996271397 a38.923308091040894,38.923308091040894 0 0,0 0.12328360289090962,0.6585859363059826 l -17.645027525210686 3.1461049825028513" fill="#ffc412" stroke="none" /><path d="M 120.73433829027371 96.67025291283417 l 9.0808193044717 -1.4582974004204272 a30.197168615858843,30.197168615858843 0 0,0 0.07800087772524172,0.5139283269787577 l -9.104576075636242 1.3017699610495874" fill="#ff4806" stroke="none" /><path d="M 120.83666639777658 97.38593545837742 l 30.448896472822547 -3.8199671234183397 a51.687578028196725,51.687578028196725 0 0,0 0.10315276901243707,0.8837499305641332 l -30.510139594838574 3.2952734545293536" fill="#9aff23" stroke="none" /><path d="M 120.91429891909075 98.10471618934814 l 10.303156409993438 -0.9336868339703108 a31.345375929018644,31.345375929018644 0 0,0 0.0440708763893457,0.5377763193864773 l -10.317701770202278 0.7561965973760648" fill="#ff5908" stroke="none" /><path d="M 120.96714384426684 98.82574320788733 l 9.158174035137804 -0.5128999993506976 a30.17252517397506,30.17252517397506 0 0,0 0.024578239819557493,0.5188077964504921 l -9.165645883190859 0.35518109627720573" fill="#ff4806" stroke="none" /><line stroke="#e1ed5e" stroke-width="0.3" x1="184.98032266829074" x2="189.97916517819016" y1="98.17113171792111" y2="98.06355123074" /><path d="M 185.9800911702706 98.14961562048488 a86.0,86.0 0 0,1 -9.607161424134198,41.387399972396054" fill="none" id="id28" stroke="none" /><text fill="#e1ed5e" style="font-size:6.75px; font-family:Arial;" text-anchor="middle"><textPath startOffset="21.466115282336823" xlink:href="#id28">April</textPath></text><path d="M 120.99513854157772 99.54816195383933 l 5.5803736593333575 -0.1200956652934838 a26.581665803915875,26.581665803915875 0 0,0 0.005907449766959015,0.45753849468903196 l -5.581614116218033 0.024020912543989133" fill="#ff1202" stroke="none" /><path d="M 120.99980553446 99.90962569577887 l 62.99941660337998 -0.27112291266339017 a84.0,84.0 0 0,0 -0.006222810841987947,1.4459620871852612 l -62.994749495248485 -0.8133486527255557" fill="#4dd2ff" stroke="none" /><path d="M 120.95626037817324 101.35467743843564 l 16.389539250577435 1.0594704708020064 a37.423747274136915,37.423747274136915 0 0,0 -0.04708877098375284,0.6424888678705774 l -16.368873920929342 -1.341432475169354" fill="#ffaf10" stroke="none" /><path d="M 120.89721153311464 102.0752229133903 l 8.893413560275048 0.8831712101537031 a29.93715816915693,29.93715816915693 0 0,0 -0.055337694272650256,0.5123583218243697 l -8.876893564501346 -1.0361258538628644" fill="#ff4406" stroke="none" /><path d="M 120.81339534386255 102.79330883721812 l 11.727690546472411 1.5739412576564882 a32.83283637326113,32.83283637326113 0 0,0 -0.07999634432640737,0.5594942458998957 l -11.698860151129402 -1.7755809755367933" fill="#ff6f0a" stroke="none" /><path d="M 120.70491114924044 103.5080841355445 l 15.173355642888762 2.5708590503053377 a36.38960810813976,36.38960810813976 0 0,0 -0.10995476649257964,0.6166847235168279 l -15.126854434056993 -2.831662524555384" fill="#ffa10e" stroke="none" /><path d="M 120.5718875245553 104.21870165774334 l 8.351069678753793 1.7125638790138356 a29.524860105544484,29.524860105544484 0 0,0 -0.10638223435296972,0.49698238242765924 l -8.32035340567638 -1.8560600808576637" fill="#ff3e05" stroke="none" /><path d="M 120.23288151984713 105.62410040840565 l 8.754711992024154 2.43353272451669 a30.086642041182493,30.086642041182493 0 0,0 -0.14299373367058327,0.497779945922782 l -8.711525621467471 -2.583870145944054" fill="#ff4606" stroke="none" /><path d="M 120.02730092923936 106.31721596034902 l 12.670101562276274 3.9965329372765686 a34.28547135472175,34.28547135472175 0 0,0 -0.18237870608966247,0.5613039412634823 l -12.599430605170365 -4.214035778517847" fill="#ff830c" stroke="none" /><path d="M 119.67450827220406 107.3425965602758 l 16.92390483406085 6.316061560561129 a39.06408559737099,39.06408559737099 0 0,0 -0.24053379667566538,0.627957841946917 l -16.812676757791674 -6.60644296934119" fill="#ffc512" stroke="none" /><path d="M 119.54520255179757 107.68017299344265 l 16.229656736904964 6.377348663094736 a38.437669963858156,38.437669963858156 0 0,0 -0.24727755838830406,0.6137226208348066 l -16.117476564259267 -6.655770651772356" fill="#ffbd11" stroke="none" /><path d="M 119.41010516605496 108.01547362559984 l 10.244920555908964 4.230677258558311 a32.08408892345097,32.08408892345097 0 0,0 -0.21519106877175137,0.5086481201623287 l -10.170578505944905 -4.406399904386802" fill="#ff6409" stroke="none" /><path d="M 119.12269723197855 108.67885076344098 l 20.364356360235643 9.242378708399857 a43.36355459572903,43.36355459572903 0 0,0 -0.31433493873913065,0.6770494934951614 l -20.20224680465668 -9.591548269173849" fill="#fffe18" stroke="none" /><line stroke="#e1ed5e" stroke-width="0.3" x1="174.80103733775053" x2="179.2010983576182" y1="140.37084112569926" y2="142.7455964860345" /><path d="M 175.68104954172406 140.8457921977663 a86.0,86.0 0 0,1 -30.038265399797805,32.042727171017184" fill="none" id="id29" stroke="none" /><text fill="#e1ed5e" style="font-size:6.75px; font-family:Arial;" text-anchor="middle"><textPath startOffset="22.206326154141568" xlink:href="#id29">May</textPath></text><path d="M 118.12598468904814 110.60418214915192 l 27.045239969177953 15.822183225939137 a52.33347231038415,52.33347231038415 0 0,0 -0.4615790434762108,0.773633026843105 l -26.768880050003514 -16.285378346668345" fill="#92ff23" stroke="none" /><path d="M 117.75023020441432 111.22182372390056 l 13.022645111615427 8.233010286543793 a36.40687327401044,36.40687327401044 0 0,0 -0.3394423203190137,0.5268220191604146 l -12.878997927919363 -8.45595390562566" fill="#ffa10e" stroke="none" /><path d="M 117.35343817320211 111.8261652097733 l 12.32961560679156 8.402488871864321 a35.920497319226385,35.920497319226385 0 0,0 -0.3526008919842974,0.5079478831205722 l -12.183153807645127 -8.613478017171913" fill="#ff9a0e" stroke="none" /><path d="M 116.93607887273984 112.41649034213515 l 12.220639482478607 8.959420492139195 a36.153060579159536,36.153060579159536 0 0,0 -0.3722710487968124,0.4987179055286678 l -12.064607166986702 -9.168451277177178" fill="#ff9e0e" stroke="none" /><path d="M 116.498646956653 112.99209946851258 l 8.39113109740939 6.607718206062389 a31.68049722553399,31.68049722553399 0 0,0 -0.34106633142329196,0.4255326897964097 l -8.276146853931245 -6.751178729437049" fill="#ff5e08" stroke="none" /><path d="M 115.80600337817218 113.82643327865902 l 27.908307143647708 24.413024431897263 a58.079230972831546,58.079230972831546 0 0,0 -0.6647061515976282,0.7468044078214676 l -27.48394214240174 -24.889803009459598" fill="#53ff2b" stroke="none" /><path d="M 115.32070863581623 114.36230785411682 l 12.360162170839152 11.58696105018272 a37.9419973812976,37.9419973812976 0 0,0 -0.4507752273442969,0.47263602369488583 l -12.15888039211589 -11.798004190460112" fill="#ffb610" stroke="none" /><path d="M 114.81725581225074 114.88116024355365 l 5.500129096047433 5.523850264557255 a28.79514860784814,28.79514860784814 0 0,0 -0.3542489530563643,0.3467071600868403 l -5.404230190615276 -5.617707527566667" fill="#ff3304" stroke="none" /><path d="M 114.0293411484842 115.62618273729858 l 22.036103672308816 24.54428751550873 a53.98502561315816,53.98502561315816 0 0,0 -0.6968120962371547,0.6148556579760802 l -21.610349223165073 -24.9199663152571" fill="#80ff26" stroke="none" /><path d="M 112.63410532772338 116.77436683061366 l 5.3796503383845495 7.142589511144939 a29.941880265805324,29.941880265805324 0 0,0 -0.41436001996051525,0.3065336368177707 l -5.25590534800547 -7.234133096702478" fill="#ff4406" stroke="none" /><path d="M 112.04921762599082 117.19931262002967 l 5.946388765515775 8.488003330417733 a31.36367405353115,31.36367405353115 0 0,0 -0.4448311614179124,0.3059589290103271 l -5.7994007194749795 -8.589103048793154" fill="#ff5908" stroke="none" /><path d="M 111.7513745106137 117.40417183066458 l 8.262232324582998 12.236637590950545 a35.76481569534981,35.76481569534981 0 0,0 -0.5131830411386162,0.34010973665074434 l -8.050374584704416 -12.377045348692608" fill="#ff980e" stroke="none" /><path d="M 111.1453310114006 117.79835938074945 l 7.094543357301188 11.3295183594271 a34.3675177839875,34.3675177839875 0 0,0 -0.5040909678173542,0.30965384434339316 l -6.898473189551525 -11.449960670598871" fill="#ff840c" stroke="none" /><line stroke="#e1ed5e" stroke-width="0.3" x1="143.8653032363475" x2="146.44561519142675" y1="172.8068346515853" y2="177.08958963109032" /><path d="M 144.38136562736335 173.6633856474863 a86.0,86.0 0 0,1 -40.68145358897372,12.25698825130547" fill="none" id="id30" stroke="none" /><text fill="#e1ed5e" style="font-size:6.75px; font-family:Arial;" text-anchor="middle"><textPath startOffset="21.466115282336833" xlink:href="#id30">June</textPath></text><path d="M 110.5260780823613 118.17145234162733 l 7.703116039032961 13.29809686856435 a36.36806354218149,36.36806354218149 0 0,0 -0.5443974104368065,0.30912305754567554 l -7.473069861674956 -13.428723091904654" fill="#ffa10e" stroke="none" /><path d="M 109.89434966115114 118.52300852407294 l 6.9729221149172975 13.053864093709715 a35.79949359261142,35.79949359261142 0 0,0 -0.546043022983708,0.2856639020380373 l -6.747188189407094 -13.171957414692468" fill="#ff990e" stroke="none" /><path d="M 109.2508944713604 118.85261126421891 l 6.817439604833038 13.893417451156687 a36.47593393749312,36.47593393749312 0 0,0 -0.5660497520518761,0.2717382797716839 l -6.577277184780929 -14.008710007427931" fill="#ffa20f" stroke="none" /><path d="M 108.92500713936063 119.00905698771935 l 3.3449883759473247 7.124372414361632 a28.870554588702102,28.870554588702102 0 0,0 -0.45166196011106796,0.20733585326677126 l -3.221858420068837 -7.180895337962478" fill="#ff3405" stroke="none" /><path d="M 108.59647513512805 119.15986991738527 l 6.464980042550009 14.409182215578525 a36.79305224053648,36.79305224053648 0 0,0 -0.5800675672894685,0.25428457488527295 l -6.215991800602786 -14.518331343758254" fill="#ffa60f" stroke="none" /><path d="M 107.93186726928326 119.44442032107085 l 5.708995879817105 13.995205886552403 a36.11484110941163,36.11484110941163 0 0,0 -0.5776292367022929,0.22985059419268056 l -5.467245567072946 -14.091403325151154" fill="#ff9d0e" stroke="none" /><path d="M 107.2578585660854 119.70592522655815 l 5.461129334782305 14.827597609390644 a36.80131590967116,36.80131590967116 0 0,0 -0.5963222831974683,0.21381995462401024 l -5.205087490955102 -14.919405105054613" fill="#ffa70f" stroke="none" /><path d="M 106.57524785965236 119.94407469862006 l 4.924955811313345 14.93840060250283 a36.729303935783236,36.729303935783236 0 0,0 -0.6021483502265468,0.19278888652437245 l -4.667086115995858 -15.020962335686908" fill="#ffa60f" stroke="none" /><path d="M 105.88484417918355 120.15858648285463 l 4.919941402874078 16.853303373985696 a38.55675533870972,38.55675533870972 0 0,0 -0.6386996876834979,0.18050291153809767 l -4.629110547085975 -16.935495078862314" fill="#ffbf11" stroke="none" /><path d="M 105.18746579009965 120.34920634021253 l 3.8802014219605927 15.221116161914063 a36.70790693534522,36.70790693534522 0 0,0 -0.6136281025526114,0.15081485810987041 l -3.6176200346647702 -15.285652278337963" fill="#ffa50f" stroke="none" /><path d="M 104.48393922423573 120.51570834832081 l 3.295266659051992 15.07708430606108 a36.43299237109683,36.43299237109683 0 0,0 -0.6138239898367804,0.12863278516916102 l -3.035251207785833 -15.131573071956781" fill="#ffa10e" stroke="none" /><path d="M 103.7750983002368 120.6578951692458 l 3.788954419255362 20.733717897920148 a42.0770783900836,42.0770783900836 0 0,0 -0.7136092736228312,0.12407011931414426 l -3.431496174160481 -20.7958665957553" fill="#ffed16" stroke="none" /><path d="M 103.06178313531738 120.77559828337769 l 2.276107934467998 15.444432870068042 a36.611251519573514,36.611251519573514 0 0,0 -0.6242591623822372,0.08651663164373571 l -2.0099201808989307 -15.481324067204381" fill="#ffa40f" stroke="none" /><path d="M 102.34483914955558 120.86867818915974 l 1.7731250200523456 15.78051758459972 a36.87982076645063,36.87982076645063 0 0,0 -0.6314657805068298,0.06545401005733577 l -1.5012266429399133 -15.808700963112813" fill="#ffa80f" stroke="none" /><path d="M 101.62511606390274 120.93702456842531 l 1.2224427790709442 15.749222512413962 a36.796593813022774,36.796593813022774 0 0,0 -0.6319153335936964,0.0435805811567474 l -0.9511646846983173 -15.767931438086993" fill="#ffa60f" stroke="none" /><path d="M 100.90346689309514 120.98055641714683 l 0.4753512899369599 11.038738256716236 a32.04896832962858,32.04896832962858 0 0,0 -0.5513638098723057,0.018990084436252608 l -0.2852671283900019 -11.045285139578583" fill="#ff6309" stroke="none" /><line stroke="#e1ed5e" stroke-width="0.3" x1="102.19456741930631" x2="102.32365962044197" y1="184.97166512339345" y2="189.96999836594603" /><path d="M 102.22038585953345 185.97133177190398 a86.0,86.0 0 0,1 -42.740103519485714,-10.115201625700543" fill="none" id="id31" stroke="none" /><text fill="#e1ed5e" style="font-size:6.75px; font-family:Arial;" text-anchor="middle"><textPath startOffset="22.20632615414155" xlink:href="#id31">July</textPath></text><path d="M 100.18074693466247 120.99922214144158 l 0.18185234152497065 21.12764857537158 a42.12843119113482,42.12843119113482 0 0,0 -0.7251985523748377,0.0 l 0.1818523415249561 -21.12764857537158" fill="#ffee16" stroke="none" /><path d="M 99.45781275523022 120.99299961872073 l -0.2708389932953311 10.48664080136711 a31.490137704395814,31.490137704395814 0 0,0 -0.5417498035981516,-0.018658958621231497 l 0.4513091485681257 -10.480425044319785" fill="#ff5b08" stroke="none" /><path d="M 98.73552117531835 120.96189622390904 l -1.1695501344079224 19.388215972924655 a40.42345917002593,40.42345917002593 0 0,0 -0.6942002245163712,-0.04787611190175706 l 1.5031131197032235 -19.365211516506612" fill="#ffd814" stroke="none" /><path d="M 98.01472825383883 120.90594882070398 l -1.764707180474805 18.583288695803514 a39.66689074764188,39.66689074764188 0 0,0 -0.6791867098504384,-0.07040047950290257 l 2.0843264869308364 -18.550158847844852" fill="#ffce13" stroke="none" /><path d="M 97.65516085044442 120.86867818915974 l -1.153374886431289 10.264844537824738 a31.32943885283033,31.32943885283033 0 0,0 -0.5353941169271021,-0.06482877146101254 l 1.3298964264097803 -10.243470237638377" fill="#ff5908" stroke="none" /><path d="M 97.2962882734958 120.8252237178851 l -1.534152436928953 11.816743406181503 a32.91591576116872,32.91591576116872 0 0,0 -0.5612499204274893,-0.07778412485032439 l 1.7373309485432733 -11.788584715838574" fill="#ff700a" stroke="none" /><path d="M 96.58105272829116 120.7198165907248 l -2.522113170461561 15.284740640909536 a36.49142831712064,36.49142831712064 0 0,0 -0.6188790346474514,-0.10760005300928178 l 2.7848411765810623 -15.23906200937925" fill="#ffa20f" stroke="none" /><path d="M 95.16358092515715 120.4354850818985 l -7.203735811134038 30.43818854906633 a52.27902063340743,52.27902063340743 0 0,0 -0.873922784295219,-0.2147889579440599 l 7.7266118801724675 -30.30967833280824" fill="#93ff23" stroke="none" /><path d="M 92.40401165467489 119.57807347666478 l -3.7897830916130926 9.767873310901882 a31.477299504133008,31.477299504133008 0 0,0 -0.5034553088836357,-0.20033525753822534 l 3.957359476538586 -9.701191208957589" fill="#ff5b08" stroke="none" /><path d="M 91.7346041902142 119.30500536409082 l -6.326344473098158 14.776075677301575 a37.073426729034566,37.073426729034566 0 0,0 -0.5844878623606834,-0.25622230234399174 l 6.579753010116584 -14.664988821663131" fill="#ffaa0f" stroke="none" /><path d="M 91.40352486487194 119.15986991738527 l -4.346875129521405 9.688338617814983 a31.61881483806441,31.61881483806441 0 0,0 -0.4946567909622932,-0.22707267134728254 l 4.512999916251118 -9.612078876133626" fill="#ff5d08" stroke="none" /><path d="M 91.07499286063937 119.00905698771935 l -5.467841824601915 11.645762879595754 a33.865499884055666,33.865499884055666 0 0,0 -0.5255398763834768,-0.2522910776697655 l 5.667494368985634 -11.549917525426425" fill="#ff7d0b" stroke="none" /><path d="M 90.10565033884886 118.52300852407294 l -4.204430568378802 7.871028003258653 a29.923582141292812,29.923582141292812 0 0,0 -0.4522410647057751,-0.24659788678024974 l 4.339294444953218 -7.7974894647186375" fill="#ff4406" stroke="none" /><line stroke="#e1ed5e" stroke-width="0.3" x1="58.666819895761336" x2="56.23545636021788" y1="174.27360380694188" y2="178.64263932499728" /><path d="M 58.180547188652646 175.14741091055294 a86.0,86.0 0 0,1 -31.652253787137756,-30.449443065178592" fill="none" id="id32" stroke="none" /><text fill="#e1ed5e" style="font-size:6.75px; font-family:Arial;" text-anchor="middle"><textPath startOffset="22.20632615414155" xlink:href="#id32">August</textPath></text><path d="M 89.7882731507175 118.34994917583269 l -7.6882693596312786 13.815425547664193 a36.810612537447675,36.810612537447675 0 0,0 -0.5510219734063021,-0.31288465729022846 l 7.924940099958787 -13.68103772457933" fill="#ffa70f" stroke="none" /><path d="M 89.4739219176387 118.17145234162733 l -7.987885173599297 13.789701501994722 a36.93619079519077,36.93619079519077 0 0,0 -0.5474156808232904,-0.32342283321191173 l 8.22406872545097 -13.65016009648906" fill="#ffa80f" stroke="none" /><path d="M 89.1626897886671 117.98757091392108 l -8.15758714316567 13.5398151721022 a36.807366096001914,36.807366096001914 0 0,0 -0.539877826346425,-0.3316370557635093 l 8.389444169444404 -13.397389649510313" fill="#ffa70f" stroke="none" /><path d="M 88.8546689885994 117.79835938074946 l -8.31433772945134 13.277449612786606 a36.66585076207051,36.66585076207051 0 0,0 -0.5320358081254555,-0.3395704251486875 l 8.54165533962372 -13.132364758814113" fill="#ffa50f" stroke="none" /><path d="M 88.24862548938628 117.40417183066458 l -8.685599890027722 12.863658868323249 a36.52138411773386,36.52138411773386 0 0,0 -0.5179829915957118,-0.35627342484061386 l 8.905739766246324 -12.712244654117534" fill="#ffa30f" stroke="none" /><path d="M 87.65650970185807 116.9893568818739 l -9.3235160351806 12.83271890604566 a36.86211290401917,36.86211290401917 0 0,0 -0.5101278110493216,-0.3773803591807423 l 9.543028816648485 -12.67032859812515" fill="#ffa70f" stroke="none" /><path d="M 87.36589467227662 116.77436683061367 l -9.637045743646132 12.79515535719015 a37.01838478997679,37.01838478997679 0 0,0 -0.5056910054199054,-0.38774229918529 l 9.855865477559524 -12.627373716177493" fill="#ffaa0f" stroke="none" /><path d="M 87.07902340077011 116.55440617244103 l -9.860677601540974 12.633539028399001 a37.02620576255068,37.02620576255068 0 0,0 -0.4990471482950166,-0.3964732366221642 l 10.076682242553348 -12.461931877771708" fill="#ffaa0f" stroke="none" /><path d="M 86.79598089348748 116.32954008644616 l -10.039939892657845 12.416492252862884 a36.96776981652687,36.96776981652687 0 0,0 -0.49137184937507994,-0.4043655796104955 l 10.252181870577614 -12.241831554395208" fill="#ffa90f" stroke="none" /><path d="M 86.24171649860922 115.8653595955263 l -4.7977666804551955 5.532542895569904 a28.32308650852952,28.32308650852952 0 0,0 -0.3655804374964372,-0.3225822307819888 l 4.892289470858221 -5.449137523015627" fill="#ff2c04" stroke="none" /><path d="M 85.70375840098266 115.38237550388516 l -10.851245491412314 11.675651371561761 a36.9395848021568,36.9395848021568 0 0,0 -0.4620335819051512,-0.4368815903734366 l 11.050614907708281 -11.487135144442393" fill="#ffa80f" stroke="none" /><path d="M 85.44109423537348 115.13401014063109 l -11.089081363963295 11.527121098637657 a36.99506943777536,36.99506943777536 0 0,0 -0.45512752148143165,-0.4454380714149471 l 11.285858837820522 -11.33453292430014" fill="#ffa90f" stroke="none" /><path d="M 85.18274418774928 114.88116024355367 l -11.273052100881314 11.321670953972825 a36.976918878783124,36.976918878783124 0 0,0 -0.44717310503942925,-0.4529839945177515 l 11.466265830976276 -11.12594646547441" fill="#ffa90f" stroke="none" /><path d="M 84.9287848128048 114.62390073753433 l -11.45175693267717 11.111868192030517 a36.956702402507204,36.956702402507204 0 0,0 -0.43906929200300426,-0.4603623972892526 l 11.641332776059132 -10.913098678158764" fill="#ffa90f" stroke="none" /><path d="M 84.43433777217949 114.09645910891817 l -11.086964486356536 10.040494213257512 a35.95768383033244,35.95768383033244 0 0,0 -0.41152909979825925,-0.462357306213382 l 11.258152435803133 -9.848162737303266" fill="#ff9b0e" stroke="none" /><path d="M 83.95833913139862 113.55231037782056 l -14.809967441186632 12.511751563158269 a40.387600748602225,40.387600748602225 0 0,0 -0.4440789794073837,-0.5349217381146448 l 15.023142420487554 -12.254968567929863" fill="#ffd714" stroke="none" /><path d="M 83.72743513129214 113.27417163493432 l -12.368481814213995 10.089457426663037 a36.96171963019612,36.96171963019612 0 0,0 -0.39792298800178916,-0.49647011098868515 l 12.540322714270646 -9.875059482096091" fill="#ffa90f" stroke="none" /><path d="M 83.50135304334701 112.99209946851258 l -12.531743536879606 9.86830368410155 a36.950799781696716,36.950799781696716 0 0,0 -0.3892030957167333,-0.5030974663191576 l 12.699753449814407 -9.65112822366914" fill="#ffa90f" stroke="none" /><path d="M 82.85270091963577 112.12312394758628 l -6.786639980435398 4.7981479348358835 a29.31148036324541,29.31148036324541 0 0,0 -0.287725808181635,-0.4144904862904535 l 6.868226695779167 -4.680616186358417" fill="#ff3b05" stroke="none" /><path d="M 82.24976979558568 111.22182372390057 l -7.606510956992869 4.8088911597362936 a29.999135687667035,29.999135687667035 0 0,0 -0.27218552989997724,-0.43884973995821625 l 7.688161126560802 -4.677245088412813" fill="#ff4506" stroke="none" /><path d="M 82.05923443525364 110.91462005526583 l -7.090092184143048 4.313398002301205 a29.29908485954339,29.29908485954339 0 0,0 -0.25841670669180095,-0.4331212645166569 l 7.16328976653308 -4.190714643898437" fill="#ff3b05" stroke="none" /><line stroke="#e1ed5e" stroke-width="0.3" x1="26.63291911575756" x2="22.317208475507996" y1="142.92168965132927" y2="145.44649492493687" /><path d="M 25.769776987707644 143.4266507060508 a86.0,86.0 0 0,1 -11.730757126820373,-40.83630448921669" fill="none" id="id33" stroke="none" /><text fill="#e1ed5e" style="font-size:6.75px; font-family:Arial;" text-anchor="middle"><textPath startOffset="21.46611528233685" xlink:href="#id33">September</textPath></text><path d="M 81.87401531095188 110.60418214915194 l -9.11740057019863 5.333921330717245 a31.563035071405317,31.563035071405317 0 0,0 -0.27031185014117887,-0.4713114953748068 l 9.207864416492185 -5.176189989484132" fill="#ff5c08" stroke="none" /><path d="M 81.69416730710424 110.29060199501025 l -13.906728366508155 7.817650749533668 a36.953455961061444,36.953455961061444 0 0,0 -0.30693116532874265,-0.5571692192552276 l 14.039235941288414 -7.577111011880618" fill="#ffa90f" stroke="none" /><path d="M 81.35079622478065 109.6543875284942 l -9.822338870613256 5.084864052968236 a32.060478440209025,32.060478440209025 0 0,0 -0.2494936206660798,-0.4922745830401082 l 9.908411161065604 -4.915035258225442" fill="#ff6309" stroke="none" /><path d="M 81.18737489456691 109.33194174019688 l -11.118788498740106 5.515439015570876 a33.411588343729285,33.411588343729285 0 0,0 -0.2511385910184421,-0.5174198822915392 l 11.212080346373266 -5.323230177314052" fill="#ff770a" stroke="none" /><path d="M 80.87730276802145 108.67885076344099 l -13.098896881241375 5.944944367360788 a35.38483448067477,35.38483448067477 0 0,0 -0.24695061706909044,-0.5568084484318854 l 13.199288583041746 -5.718587582436206" fill="#ff930d" stroke="none" /><path d="M 80.73074385275274 108.34839909993369 l -25.430982288985224 11.017964991976267 a48.71516575355621,48.71516575355621 0 0,0 -0.3267372998782162,-0.7723104602740188 l 25.616870570055745 -10.578580006036091" fill="#bdff1f" stroke="none" /><path d="M 80.45479744820244 107.68017299344265 l -9.656706875987146 3.794546470316702 a31.37547929515212,31.37547929515212 0 0,0 -0.19319185492183738,-0.5043629709217886 l 9.720593010502492 -3.6277599325617556" fill="#ff5908" stroke="none" /><path d="M 80.32549172779594 107.34259656027581 l -10.485537914246002 3.913240095080622 a32.1919593187626,32.1919593187626 0 0,0 -0.1892821888844745,-0.5208232903447166 l 10.551344364135701 -3.7321690077297887" fill="#ff6509" stroke="none" /><path d="M 80.20201598880116 107.00284435728193 l -12.819123812474086 4.534316666015262 a34.59742486455593,34.59742486455593 0 0,0 -0.19376068522973858,-0.5631592486439192 l 12.895275328647053 -4.312984714282046" fill="#ff880c" stroke="none" /><path d="M 80.0844068197444 106.66101706037122 l -14.017777943125083 4.688419630916224 a35.78104790257865,35.78104790257865 0 0,0 -0.19033430083222927,-0.5857887442311167 l 14.096404494973562 -4.446431986707303" fill="#ff980e" stroke="none" /><path d="M 79.97269907076064 106.31721596034903 l -7.72483416661935 2.4366461492158074 a29.100018972709748,29.100018972709748 0 0,0 -0.1465715679464929,-0.47900436462330603 l 7.765632507071973 -2.303314812040454" fill="#ff3805" stroke="none" /><path d="M 79.76711848015287 105.62410040840567 l -7.811807174785501 2.1714350414695387 a29.107987510803902,29.107987510803902 0 0,0 -0.13003220486705264,-0.48389820747784845 l 7.848027455994329 -2.0366459008161515" fill="#ff3805" stroke="none" /><path d="M 79.67330655649465 105.27499134158121 l -9.660593993742408 2.5070260351569833 a30.980593962930605,30.980593962930605 0 0,0 -0.12951169649352962,-0.5173348486539521 l 9.702317004530997 -2.3403633471056393" fill="#ff5407" stroke="none" /><path d="M 79.58551787078972 104.9243191809786 l -9.505358606553305 2.2928536424323775 a30.77798650361067,30.77798650361067 0 0,0 -0.11979881898105464,-0.5160901767439946 l 9.543417991464915 -2.1288948083398087" fill="#ff5107" stroke="none" /><path d="M 79.50377843672027 104.57218783832718 l -12.40290036148913 2.766772891174293 a33.707752342895425,33.707752342895425 0 0,0 -0.12145378492684127,-0.5673916491312362 l 12.448688185140412 -2.552867422626893" fill="#ff7b0b" stroke="none" /><path d="M 79.4281124754447 104.21870165774334 l -10.121172642512494 2.0755610176415753 a31.331799901154525,31.331799901154525 0 0,0 -0.10379787710077751,-0.5292631391041989 l 10.155400452588937 -1.9010341514694216" fill="#ff5908" stroke="none" /><path d="M 79.35854240842038 103.8639653848113 l -11.724653862523372 2.19478961079596 a32.928311264870736,32.928311264870736 0 0,0 -0.09949611892945796,-0.5580270737708471 l 11.760696423792018 -1.9926437862918995" fill="#ff700a" stroke="none" /><path d="M 79.23777060512086 103.15116336523772 l -27.17916562702618 4.125086443883393 a48.49042346619695,48.49042346619695 0 0,0 -0.11814564444071159,-0.8263103620460199 l 27.24614532248349 -3.6566306098569727" fill="#c0ff1e" stroke="none" /><path d="M 79.18660465613746 102.79330883721812 l -9.37636076838323 1.2583757221040544 a30.460425504006523,30.460425504006523 0 0,0 -0.065270151208529,-0.5202673250065787 l 9.396632428838608 -1.096790642810067" fill="#ff4c07" stroke="none" /><path d="M 79.1416061653843 102.43462659150553 l -15.803080827405234 1.8445620077544624 a36.91036682914489,36.91036682914489 0 0,0 -0.06822740433615819,-0.6317010285226956 l 15.832490533242444 -1.5722646573469847" fill="#ffa80f" stroke="none" /><path d="M 79.10278846688536 102.07522291339032 l -10.30310859657781 1.023162683924854 a31.353787163673584,31.353787163673584 0 0,0 -0.048710950688452555,-0.5375212818290264 l 10.319194143543337 -0.8456600135472615" fill="#ff5908" stroke="none" /><path d="M 79.07016306316243 101.71520430193888 l -15.8072040840587 1.295403520267461 a36.86019455225576,36.86019455225576 0 0,0 -0.046379675636796,-0.6328138252401886 l 15.82716031835983 -1.0231165585305118" fill="#ffa70f" stroke="none" /><path d="M 79.04373962182676 101.35467743843564 l -21.83735506555265 1.4116341221463273 a42.8829336962352,42.8829336962352 0 0,0 -0.041277170221378306,-0.7370316027373047 l 21.85841858666156 -1.035530803073585" fill="#fff817" stroke="none" /><path d="M 79.0095281055655 100.63252640178507 l -14.7733089657156 0.44517855575323795 a35.78001494393681,35.78001494393681 0 0,0 -0.013252129207782714,-0.6157743710438165 l 14.778783157608391 -0.1908143689192926" fill="#ff980e" stroke="none" /><line stroke="#e1ed5e" stroke-width="0.3" x1="15.007084014347285" x2="10.007500721073583" y1="101.09737516637583" y2="101.16192664675087" /><path d="M 14.007167355692545 101.11028546245083 a86.0,86.0 0 0,1 10.666146001902534,-42.60595125391555" fill="none" id="id34" stroke="none" /><text fill="#e1ed5e" style="font-size:6.75px; font-family:Arial;" text-anchor="middle"><textPath startOffset="22.20632615414155" xlink:href="#id34">October</textPath></text><path d="M 79.01574976396665 99.18683210126434 l -14.785445041802973 -0.5729558664845168 a35.796542282206175,35.796542282206175 0 0,0 0.02915950838883541,-0.6155111352097378 l 14.773391925180638 0.8273781083172635" fill="#ff990e" stroke="none" /><path d="M 79.05617556472873 98.46500227214037 l -8.75415941912993 -0.6416027244315182 a29.777639841753548,29.777639841753548 0 0,0 0.041866675569756324,-0.5108794863515702 l 8.741818259740677 0.7921961279908669" fill="#ff4206" stroke="none" /><path d="M 79.12142395522702 97.74499172005258 l -14.688100180984058 -1.5864006938877637 a35.77352206104528,35.77352206104528 0 0,0 0.07139312768555867,-0.611652718961524 l 14.65861670029491 1.8389971511741494" fill="#ff980e" stroke="none" /><path d="M 79.16333360222342 97.38593545837743 l -15.792183203752769 -1.9812087672595542 a36.915974318914856,36.915974318914856 0 0,0 0.08452703542531824,-0.62982459444187 l 15.755740169269618 2.2527517037660836" fill="#ffa80f" stroke="none" /><path d="M 79.26566170972629 96.67025291283419 l -10.277443008024408 -1.6504643379690005 a31.40912423377189,31.40912423377189 0 0,0 0.09032088303607314,-0.5330789644509539 l 10.247510263468111 1.8271290907357822" fill="#ff5a08" stroke="none" /><path d="M 79.3925641242962 95.95851677861259 l -21.27142423888873 -4.171703101492545 a42.676637098908714,42.676637098908714 0 0,0 0.1475813063858578,-0.719658862371602 l 21.19646363658788 4.5372376200275495" fill="#fff517" stroke="none" /><path d="M 79.54389044137918 95.25157060432595 l -19.835616177322915 -4.604395702310565 a41.36300883753505,41.36300883753505 0 0,0 0.16696316342595321,-0.6921701032625096 l 19.753420213636147 4.945151037232471" fill="#ffe415" stroke="none" /><path d="M 79.71946130924805 94.55025226153421 l -15.075268989896477 -4.050997576406369 a36.61007099541141,36.61007099541141 0 0,0 0.16877805727907552,-0.6071844718443722 l 15.003304162051041 4.309893351669683" fill="#ffa40f" stroke="none" /><path d="M 79.81627453868168 94.20196356495316 l -10.123372543813026 -2.9080698192744365 a31.532784139751573,31.532784139751573 0 0,0 0.15435163129599802,-0.5203969684239383 l 10.071815015405322 3.081896174444914" fill="#ff5c08" stroke="none" /><path d="M 80.14247586403 93.16781622104843 l -7.531811474183663 -2.591396582357737 a28.96514408719014,28.96514408719014 0 0,0 0.1662694706481301,-0.47006618360998154 l 7.486088922725724 2.72066039239433" fill="#ff3605" stroke="none" /><path d="M 80.38941819471856 92.48833698450439 l -9.216760773789856 -3.530400154089383 a30.869772257213725,30.869772257213725 0 0,0 0.19434204790889914,-0.49457931402765304 l 9.154625175999266 3.688528473012799" fill="#ff5207" stroke="none" /><path d="M 80.65960295795068 91.81776055985345 l -9.615044307095193 -4.067785918625305 a31.440112993026943,31.440112993026943 0 0,0 0.21515411050922914,-0.49660535114671484 l 9.543599486743283 4.23269041435862" fill="#ff5a08" stroke="none" /><path d="M 81.26839172434947 90.50648371742162 l -27.994678561295597 -14.188207058156507 a52.38482511143539,52.38482511143539 0 0,0 0.4145649418608448,-0.8008075143044057 l 27.74630418627464 14.667987294721248" fill="#92ff23" stroke="none" /><line stroke="#e1ed5e" stroke-width="0.3" x1="26.266209847984243" x2="21.928928074336255" y1="57.711370442889674" y2="55.22380399835377" /><path d="M 25.398753493254645 57.213857153982495 a86.0,86.0 0 0,1 29.58750427330803,-30.492523968695096" fill="none" id="id35" stroke="none" /><text fill="#e1ed5e" style="font-size:6.75px; font-family:Arial;" text-anchor="middle"><textPath startOffset="21.46611528233685" xlink:href="#id35">November</textPath></text><path d="M 81.78341655067845 89.55222093294921 l -9.005139700580104 -5.164728628797452 a31.381086784922083,31.381086784922083 0 0,0 0.27277684748546,-0.4662640542669004 l 8.914903178624318 5.318972095418244" fill="#ff5a08" stroke="none" /><path d="M 82.95767976084542 87.72973835380427 l -9.59035435666504 -6.904937566285914 a32.81748955915386,32.81748955915386 0 0,0 0.3340154515349838,-0.4555967005196075 l 9.470076292616424 7.0689967104770215" fill="#ff6e0a" stroke="none" /><path d="M 84.80347519578584 85.50635884689758 l -3.21518682495275 -3.06647504488166 a25.443050249573115,25.443050249573115 0 0,0 0.30499642801023075,-0.3143256290074585 l 3.161926133239401 3.1213648694392417" fill="#ff0000" stroke="none" /><path d="M 87.51073957382395 83.11751280151077 l -9.981602494781747 -13.492734604634766 a37.78351201253604,37.78351201253604 0 0,0 0.5261888120318723,-0.38229854970177524 l 9.747868366396093 13.662552389153209" fill="#ffb410" stroke="none" /><path d="M 88.09926311788651 82.69761687909137 l -4.187972026188735 -6.088857960188491 a28.39008125472854,28.39008125472854 0 0,0 0.4050254794920748,-0.2734750117478353 l 4.082541852290121 6.160044884234992" fill="#ff2d04" stroke="none" /><path d="M 88.39885842347998 82.49532879139004 l -8.740780800444316 -13.18874466009274 a36.82227021354839,36.82227021354839 0 0,0 0.531350574294582,-0.34560519399898554 l 8.512463200365447 13.33724877825126" fill="#ffa70f" stroke="none" /><path d="M 88.70189139769569 82.29822771554957 l -7.9421181626733155 -12.443637437080998 a35.76215951598509,35.76215951598509 0 0,0 0.5217543212145997,-0.32672250807875036 l 7.726744689086473 12.57850428648268" fill="#ff980e" stroke="none" /><line stroke="#e1ed5e" stroke-width="0.3" x1="56.762969772571076" x2="54.21961505331055" y1="26.818313649435495" y2="22.513508569990535" /><path d="M 56.25429882871897 25.957352633546506 a86.0,86.0 0 0,1 42.265352541879196,-11.944610805530505" fill="none" id="id36" stroke="none" /><text fill="#e1ed5e" style="font-size:6.75px; font-family:Arial;" text-anchor="middle"><textPath startOffset="22.20632615414155" xlink:href="#id36">December</textPath></text><path d="M 89.3179101791058 81.91981866633112 l -2.2538954560500017 -3.8148751073790406 a25.43094987691162,25.43094987691162 0 0,0 0.3788040103813628,-0.21942773291992745 l 2.1878947132033186 3.8531069976890153" fill="#ff0000" stroke="none" /><path d="M 89.94658935756843 81.56283822128135 l -15.718213387067385 -28.825962988784287 a53.83288556176788,53.83288556176788 0 0,0 0.8173753438592649,-0.4366136011888519 l 15.219692996679814 29.092255316474887" fill="#81ff25" stroke="none" /><path d="M 90.58718382345135 81.22770947309562 l -4.921252212783028 -9.814616004581094 a31.979317404064844,31.979317404064844 0 0,0 0.49420035042917126,-0.24250196566703625 l 4.75158059534343 9.89787313038296" fill="#ff6209" stroke="none" /><path d="M 92.57280143429618 80.3572730644239 l -2.8578419764935816 -7.558140404176878 a29.080392758514883,29.080392758514883 0 0,0 0.469742057007792,-0.17300996391226361 l 2.72731759371322 7.606213635895463" fill="#ff3805" stroke="none" /><path d="M 92.91201910852362 80.23233633223022 l -3.780580772687132 -10.54365838841165 a32.2009608154986,32.2009608154986 0 0,0 0.5233698767991742,-0.1825934733783179 l 3.5985288918246727 10.607172714962179" fill="#ff6509" stroke="none" /><path d="M 93.59665428221793 80.00007090966166 l -3.3922828175830775 -10.595307327797114 a32.12511213808385,32.12511213808385 0 0,0 0.5280980292083172,-0.16408262832450596 l 3.209399415664032 10.652130091004144" fill="#ff6409" stroke="none" /><path d="M 94.63758080256005 79.69619591428918 l -7.968661766560341 -30.171857398014865 a52.20641839743845,52.20641839743845 0 0,0 0.8708306818197432,-0.22199413064980916 l 7.448122196055599 30.304554524833534" fill="#94ff23" stroke="none" /><path d="M 95.33964822691252 79.52364482259891 l -2.4297024056865615 -10.675470834954497 a31.948476210330053,31.948476210330053 0 0,0 0.5372779440898192,-0.11742814856394046 l 2.2455817374432216 10.715712481614306" fill="#ff6209" stroke="none" /><path d="M 96.04723909329186 79.375362276772 l -2.9537311848655663 -15.41192018881486 a36.692412555717695,36.692412555717695 0 0,0 0.621333377300889,-0.11354470323873894 l 2.688002686461784 15.460480373404334" fill="#ffa50f" stroke="none" /><path d="M 96.75951476605007 79.25152402106235 l -3.7567720301461804 -24.05420441642336 a45.34580222941051,45.34580222941051 0 0,0 0.7722412135516634,-0.11380828083979833 l 3.3421618361658685 24.115307181424125" fill="#e7ff1a" stroke="none" /><path d="M 97.47563105711357 79.15227682838746 l -1.8509835390824663 -15.286510526420727 a36.39816690831496,36.39816690831496 0 0,0 0.6226396897465467,-0.06996082393676893 l 1.5875771458262016 15.316107303828096" fill="#ffa10e" stroke="none" /></svg>