<?xml version="1.0" encoding="utf-8" ?>
<svg baseProfile="full" height="200mm" version="1.1" viewBox="0,0,200,200" width="200mm" xmlns="http://www.w3.org/2000/svg" xmlns:ev="http://www.w3.org/2001/xml-events" xmlns:xlink="http://www.w3.org/1999/xlink"><defs /><rect fill="#1a1a1a" height="200" width="200" x="0" y="0" /><text alignment-baseline="middle" fill="#e1ed5e" style="dominant-baseline: central; font-size:9.0px; font-family:Arial;" text-anchor="middle" x="100.0" y="100.0">2026</text><line stroke="#e1ed5e" stroke-width="0.3" x1="100.0" x2="100.0" y1="15.0" y2="10.0" /><path d="M 100.0 14.0 a86.0,86.0 0 0,1 42.46469731375804,11.215312516191453" fill="none" id="id61" stroke="none" /><text fill="#e1ed5e" style="font-size:6.75px; font-family:Arial;" text-anchor="middle"><textPath startOffset="22.20632615414155" xlink:href="#id61">January</textPath></text><path d="M 100.0 79.0 l 0.0 -20.996622242647064 a41.996622242647064,41.996622242647064 0 0,0 0.7229028160047327,0.006222252765916913 l -0.3614223367322043 20.993511366489706" fill="#fffb17" stroke="none" /><path d="M 100.72285384407766 79.0124445844662 l 1.6830934220606049 -48.86743946155496 a69.89641544117649,69.89641544117649 0 0,0 1.2020824390335607,0.05176419847236535 l -2.524016693483497 48.8312275365584" fill="#3bff9b" stroke="none" /><path d="M 101.44485096284872 79.0497635885617 l 1.1768463811024796 -17.06418899803445 a38.10472196691177,38.10472196691177 0 0,0 0.653967410880729,0.05076045744789586 l -1.4704039813455496 17.04140327839809" fill="#ffc912" stroke="none" /><path d="M 101.80526077348638 79.07773832637324 l 1.339924942673642 -15.52920258689089 a36.58690257352941,36.58690257352941 0 0,0 0.6269860435147864,0.05953987968221869 l -1.6070361132786726 15.503837162693493" fill="#ffb510" stroke="none" /><path d="M 102.52436894288641 79.15227682838746 l 2.3417698290948983 -19.339712313518874 a40.48097426470588,40.48097426470588 0 0,0 0.6910396690261896,0.08971678201089714 l -2.674324226628934 19.296537208343842" fill="#ffe815" stroke="none" /><path d="M 102.88285421437855 79.19881850522331 l 3.681932118515707 -26.56691339669514 a47.820840992647064,47.820840992647064 0 0,0 0.8143912438552143,0.120020099636845 l -4.138692342799577 26.499598812897325" fill="#bcff1f" stroke="none" /><path d="M 103.95276090670814 79.375362276772 l 5.058889093802453 -26.396171512573886 a47.87657398897059,47.87657398897059 0 0,0 0.8080507629201752,0.16208738129488756 l -5.512506266189753 26.30518017520179" fill="#bcff1f" stroke="none" /><path d="M 104.307194497241 79.44645832069477 l 3.6153909693063846 -17.252317958295492 a38.627068014705884,38.627068014705884 0 0,0 0.6495919101909488,0.14197563137466826 l -3.911825603650861 17.187528828824952" fill="#ffd013" stroke="none" /><path d="M 104.66035177308747 79.52364482259891 l 5.631026374354741 -24.74124307964264 a46.37395450367647,46.37395450367647 0 0,0 0.7768218445843327,0.18384863250592576 l -6.056071905901598 24.640648534995847" fill="#cdff1d" stroke="none" /><path d="M 105.01212808612495 79.60689891045804 l 4.947461038322582 -20.129986975070963 a41.72905560661765,41.72905560661765 0 0,0 0.6960627267888801,0.17744188754160298 l -5.293232653796487 20.041842091360493" fill="#fff817" stroke="none" /><path d="M 105.36241919743992 79.69619591428918 l 8.837271766075116 -33.46068779483608 a55.60801930147059,55.60801930147059 0 0,0 0.9233635098338773,0.25239012749625683 l -9.411933165132703 33.30361112651353" fill="#65ff29" stroke="none" /><path d="M 106.0581310904928 79.89281104454417 l 14.10422564843336 -46.81251130872563 a69.89110753676471,69.89110753676471 0 0,0 1.14892536376854,0.3569767032049825 l -14.907936384912619 46.56279447063813" fill="#3bff9b" stroke="none" /><path d="M 106.74666289553966 80.11325718540242 l 8.157617682850178 -24.045731549134796 a46.39180836397058,46.39180836397058 0 0,0 0.754017098031957,0.26306175998952697 l -8.57031678494541 23.901748935973064" fill="#cdff1d" stroke="none" /><path d="M 107.08798089147638 80.2323363322302 l 6.4304045392398015 -17.933749557966927 a40.0517578125,40.0517578125 0 0,0 0.6469649587560139,0.2382826542717264 l -6.7381518237683915 17.820403635888876" fill="#ffe215" stroke="none" /><path d="M 107.4271985657038 80.35727306442388 l 6.0464598249908725 -15.99108442012853 a38.09603630514705,38.09603630514705 0 0,0 0.6113812181723066,0.23720641427374248 l -6.320824208162846 15.884635301964241" fill="#ffc912" stroke="none" /><path d="M 107.76421540070413 80.48803036053334 l 9.824979465353342 -24.690801470934478 a47.57378216911765,47.57378216911765 0 0,0 0.7582720131758109,0.3093181932507981 l -10.248535348117542 24.5180223915001" fill="#bfff1e" stroke="none" /><path d="M 108.43124777332544 80.76684994638697 l 19.63025798492324 -44.78005006680654 a69.89376148897058,69.89376148897058 0 0,0 1.0977243974609723,0.49251693924258394 l -20.398164500850992 44.43551279704742" fill="#3bff9b" stroke="none" /><path d="M 109.08828744355905 81.06846463323043 l 9.403725361378356 -19.58861450673982 a42.72887178308824,42.72887178308824 0 0,0 0.6603212677066351,0.32401677831986586 l -9.739517896095423 19.42384256828512" fill="#faff18" stroke="none" /><path d="M 109.41281617654863 81.2277094730956 l 7.851655625943659 -15.658816422511103 a38.517049632352936,38.517049632352936 0 0,0 0.5901169889634731,0.30228084201529365 l -8.120033102495887 15.521343055183308" fill="#ffce13" stroke="none" /><path d="M 109.73455568895987 81.39251694778311 l 6.729526084103909 -12.863406051642269 a35.517359834558825,35.517359834558825 0 0,0 0.5392802913088326,0.28806485515797653 l -6.949951421941052 12.745662469982538" fill="#ffa70f" stroke="none" /><path d="M 110.36928655335952 81.73862282372117 l 13.701658835879888 -24.13002656018131 a48.748759191176475,48.748759191176475 0 0,0 0.726131960155279,0.4206224998968947 l -14.114987528500496 23.890599902894365" fill="#b1ff20" stroke="none" /><line stroke="#e1ed5e" stroke-width="0.3" x1="143.23703022742887" x2="145.7803849466894" y1="26.81831364943548" y2="22.513508569990506" /><path d="M 143.74570117128098 25.957352633546492 a86.0,86.0 0 0,1 28.547481713284135,27.462654790039103" fill="none" id="id62" stroke="none" /><text fill="#e1ed5e" style="font-size:6.75px; font-family:Arial;" text-anchor="middle"><textPath startOffset="19.985693538727396" xlink:href="#id62">February</textPath></text><path d="M 111.2981086023043 82.29822771554956 l 9.64700633413666 -15.114840489204465 a38.93106617647059,38.93106617647059 0 0,0 0.5617807987068997,0.365397858428522 l -9.90575415862784 14.946543706616414" fill="#ffd413" stroke="none" /><path d="M 111.90073688211348 82.69761687909136 l 9.98163367809986 -14.512214813405494 a38.61355698529412,38.61355698529412 0 0,0 0.5443938958694183,0.3813827139785006 l -10.229958713552929 14.338247256663058" fill="#ffd013" stroke="none" /><path d="M 112.48926042617603 83.11751280151076 l 16.196579148959927 -21.893893698344108 a48.233651194852946,48.233651194852946 0 0,0 0.6632215381328741,0.4995247124972371 l -16.571046840851185 21.611852396341025" fill="#b7ff1f" stroke="none" /><path d="M 113.34407831869373 83.78471172551755 l 13.354196760433545 -16.22758387450676 a42.015923713235296,42.015923713235296 0 0,0 0.5544950754678027,0.46437367927959483 l -13.631549372860466 15.995309037833344" fill="#fffb17" stroke="none" /><path d="M 113.89432698308785 84.25364557470407 l 16.43262768802902 -18.622994840238846 a45.836408547794115,45.836408547794115 0 0,0 0.5871185841627552,0.5271208618451299 l -16.75075725978776 18.337374969624417" fill="#d4ff1c" stroke="none" /><path d="M 114.42810811169701 84.74124197986012 l 25.704377440813516 -27.184220716348925 a58.41252297794118,58.41252297794118 0 0,0 0.7246400485061106,0.6971031525313205 l -26.168500732932046 26.7377344770553" fill="#48ff2c" stroke="none" /><path d="M 115.19652480421416 85.50635884689758 l 17.749066079922006 -16.928119940537584 a45.52734375,45.52734375 0 0,0 0.5359927199468479,0.5717596626276547 l -18.037826121839316 16.620090861031873" fill="#d8ff1c" stroke="none" /><path d="M 116.15771136456269 86.58626213691792 l 28.87318419703571 -23.969813258389205 a58.52616038602942,58.52616038602942 0 0,0 0.636824566723127,0.7806716198181953 l -29.281507255835244 23.46925746896291" fill="#47ff2c" stroke="none" /><path d="M 116.38621287248628 86.86637796730983 l 21.903193205990544 -17.555506151118315 a49.07036994485294,49.07036994485294 0 0,0 0.5225899048529024,0.6636361093274505 l -22.20213719143741 17.175877647837826" fill="#aeff20" stroke="none" /><path d="M 116.60985879189232 87.15038557335679 l 20.23429638419943 -15.65352902688717 a46.58241038602941,46.58241038602941 0 0,0 0.48517590065613203,0.6384346135836535 l -20.500748225079676 15.302909637422484" fill="#cbff1d" stroke="none" /><path d="M 117.04232023915458 87.72973835380427 l 20.218175412397777 -14.556838437341131 a45.91337316176471,45.91337316176471 0 0,0 0.4562638838616853,0.645352906558591 l -20.465751916063343 14.206659030450746" fill="#d3ff1c" stroke="none" /><path d="M 117.65298651832404 88.62581576622439 l 22.45056689620726 -14.465364473320214 a47.707203584558826,47.707203584558826 0 0,0 0.4388435806101328,0.6941451560113906 l -22.69623807306335 14.076771669594617" fill="#beff1f" stroke="none" /><line stroke="#e1ed5e" stroke-width="0.3" x1="172.23445277983987" x2="176.4835382374775" y1="55.19839476539836" y2="52.563006222186495" /><path d="M 173.08426987136738 54.67131705675599 a86.0,86.0 0 0,1 12.851231095245387,41.99856678651699" fill="none" id="id63" stroke="none" /><text fill="#e1ed5e" style="font-size:6.75px; font-family:Arial;" text-anchor="middle"><textPath startOffset="22.20632615414155" xlink:href="#id63">March</textPath></text><path d="M 118.21658344932153 89.55222093294921 l 21.614193924003125 -12.396414698651236 a45.916750919117646,45.916750919117646 0 0,0 0.38732388390477834,0.6890059707062228 l -21.824375449200335 12.02252521801022" fill="#d3ff1c" stroke="none" /><path d="M 118.56541770881063 90.18545643968196 l 17.380763182676283 -9.188280061535805 a40.65999540441177,40.65999540441177 0 0,0 0.3217765563793455,0.6215698875040571 l -17.536349172215743 8.887737451771402" fill="#ffea16" stroke="none" /><path d="M 118.89224826269711 90.83032412892265 l 23.953043994464643 -11.626019651064007 a47.62541360294118,47.62541360294118 0 0,0 0.35161572114444734,0.7405923819188868 l -24.149617909450846 11.21198485350458" fill="#bfff1e" stroke="none" /><path d="M 119.04729006885535 91.15688171328212 l 26.14735126237571 -12.13947597068573 a49.827952665441174,49.827952665441174 0 0,0 0.35448479422271095,0.7810602553296528 l -26.352438373561768 11.687593706514015" fill="#a5ff21" stroke="none" /><path d="M 119.34039704204932 91.81776055985345 l 22.427661248187118 -9.488351972101924 a45.35218290441176,45.35218290441176 0 0,0 0.2979817949133034,0.7215865520865211 l -22.587664729986617 9.1008908495621" fill="#daff1c" stroke="none" /><path d="M 119.47837535516314 92.15188598940014 l 22.22759228115324 -8.955812547137295 a44.963982077205884,44.963982077205884 0 0,0 0.2830727835052493,0.7203893577963827 l -22.37845861454019 8.571874184445129" fill="#deff1b" stroke="none" /><path d="M 119.61058180528143 92.48833698450437 l 15.421478548093956 -5.907063400983797 a37.514096966911765,37.514096966911765 0 0,0 0.22579093919632115,0.6050074608538609 l -15.520874075791903 5.640732803100603" fill="#ffc112" stroke="none" /><path d="M 119.7369772167798 92.82701384747503 l 14.892075387578089 -5.41220924380658 a36.84505974264706,36.84505974264706 0 0,0 0.21150278282641022,0.5979468483213004 l -14.983031251214308 5.155064769058665" fill="#ffb811" stroke="none" /><path d="M 119.85752413597 93.16781622104841 l 31.962993899052528 -10.99719415917849 a54.80194163602941,54.80194163602941 0 0,0 0.2992256635499354,0.8946466478529719 l -32.14755685637424 10.445374408403202" fill="#6eff28" stroke="none" /><path d="M 120.08093135843002 93.85539295169968 l 32.65158516043802 -9.991128236727928 a55.14599034926471,55.14599034926471 0 0,0 0.2699372669447328,0.9100942711340292 l -32.81872832449446 9.427604578847369" fill="#6aff28" stroke="none" /><path d="M 120.28053869075195 94.5502522615342 l 12.202108578768255 -3.2789273818441558 a33.634983915441175,33.634983915441175 0 0,0 0.14543713890502036,0.5604286237437995 l -12.256742049543577 3.0684023325515057" fill="#ff8d0d" stroke="none" /><path d="M 120.6074358757038 95.95851677861258 l 50.572030307009214 -9.918070990978833 a72.53540900735294,72.53540900735294 0 0,0 0.22974477242982633,1.2273057609777136 l -50.7352608033489 9.046087152538558" fill="#3effb8" stroke="none" /><path d="M 120.67395015179393 96.31383870115 l 11.902010204000947 -2.1221261089622505 a33.08971737132353,33.08971737132353 0 0,0 0.09515363975600796,0.5616021681786667 l -11.936775705277178 1.916938152467746" fill="#ff860c" stroke="none" /><path d="M 120.78858239683441 97.02765380044208 l 16.063383475201004 -2.2967384650444274 a37.22674632352941,37.22674632352941 0 0,0 0.08523861453782292,0.6351266853491562 l -16.10053808879666 2.019893437630607" fill="#ffbe11" stroke="none" /><path d="M 120.94382443527127 98.46500227214037 l 51.07150626048966 -3.743091253963966 a72.20849034926471,72.20849034926471 0 0,0 0.0801837771146771,1.2404075417842584 l -51.12837062860876 2.8634246479266725" fill="#3effb5" stroke="none" /><path d="M 120.96714384426684 98.82574320788733 l 8.057318787948502 -0.451247026454326 a29.069944852941177,29.069944852941177 0 0,0 0.02368008882309831,0.49984924845137874 l -8.063892485005097 0.3124866713799475" fill="#ff4d07" stroke="none" /><line stroke="#e1ed5e" stroke-width="0.3" x1="184.98032266829074" x2="189.97916517819016" y1="98.17113171792111" y2="98.06355123074" /><path d="M 185.9800911702706 98.14961562048488 a86.0,86.0 0 0,1 -9.607161424134198,41.387399972396054" fill="none" id="id64" stroke="none" /><text fill="#e1ed5e" style="font-size:6.75px; font-family:Arial;" text-anchor="middle"><textPath startOffset="21.466115282336823" xlink:href="#id64">April</textPath></text><path d="M 120.99980553446 99.90962569577887 l 13.618991530436553 -0.058610394355174046 a34.61911764705882,34.61911764705882 0 0,0 -0.002564621674216356,0.5959277572553962 l -13.617982611472833 -0.17582684110390687" fill="#ff9b0e" stroke="none" /><path d="M 120.9904718944345 100.63252640178507 l 37.52046851130167 1.1306409431908133 a58.5375,58.5375 0 0,0 -0.0390190546772711,1.0069084239484578 l -37.4954473237732 -1.7763266141532774" fill="#46ff2c" stroke="none" /><path d="M 120.92983693683757 101.71520430193887 l 17.99114740093348 1.4743781096824948 a39.051459099264704,39.051459099264704 0 0,0 -0.06066998186108528,0.6694881942890271 l -17.96310282279532 -1.7838476925200926" fill="#ffd513" stroke="none" /><path d="M 120.89721153311464 102.0752229133903 l 26.412500404193576 2.6229253578572345 a47.542417279411765,47.542417279411765 0 0,0 -0.08788034380301843,0.8136628398432684 l -26.363437758889503 -3.0771845195852943" fill="#c0ff1e" stroke="none" /><path d="M 120.81339534386255 102.79330883721812 l 20.488425166101646 2.7496954788796555 a41.672116268382354,41.672116268382354 0 0,0 -0.1015330178580147,0.7101216904190225 l -20.438058097227028 -3.1019626412790875" fill="#fff717" stroke="none" /><path d="M 120.70491114924044 103.5080841355445 l 38.08714078500902 6.4531981515429795 a59.62996323529412,59.62996323529412 0 0,0 -0.1801777766887044,1.0105326576147016 l -37.97041656598113 -7.1078495598909" fill="#3bff2e" stroke="none" /><path d="M 120.64145759157962 103.86396538481128 l 16.522652037230415 3.092948027235426 a37.80965073529411,37.80965073529411 0 0,0 -0.12525809218195913,0.6386883134619509 l -16.466964012072793 -3.3769000677653223" fill="#ffc512" stroke="none" /><path d="M 120.5718875245553 104.21870165774334 l 19.965650260073627 4.094379854525142 a41.38114659926471,41.38114659926471 0 0,0 -0.14910210648181463,0.6965554028358889 l -19.89221411486737 -4.437449076777201" fill="#fff316" stroke="none" /><path d="M 120.49622156327973 104.57218783832717 l 39.566137818554125 8.826203092362656 a61.538637408088235,61.538637408088235 0 0,0 -0.23953016167343064,1.031889667402378 l -39.40834709095014 -9.5059614171136" fill="#30ff38" stroke="none" /><path d="M 120.32669344350535 105.2749913415812 l 27.744628766799277 7.200023797624237 a49.66364889705882,49.66364889705882 0 0,0 -0.22185916375807913,0.8256204819785437 l -27.61658152669942 -7.676535212778329" fill="#a7ff21" stroke="none" /><path d="M 120.13307415673323 105.97154293290107 l 47.72167733713173 14.154422858142086 a70.77656250000001,70.77656250000001 0 0,0 -0.3564888307879247,1.165026125320645 l -47.470961733837676 -14.973775956014787" fill="#3cffa5" stroke="none" /><path d="M 120.02730092923936 106.31721596034902 l 14.737461219184064 4.648640650969149 a36.453239889705884,36.453239889705884 0 0,0 -0.19390997005922844,0.5967935225454379 l -14.65525899810859 -4.901633073492382" fill="#ffb310" stroke="none" /><path d="M 119.9155931802556 106.66101706037122 l 21.279298779455093 7.117125305773481 a43.43795955882353,43.43795955882353 0 0,0 -0.24327153948737051,0.7070609666337587 l -21.15363640902449 -7.48235897549654" fill="#f1ff19" stroke="none" /><path d="M 119.79798401119884 107.00284435728193 l 23.21281781129221 8.210722371251055 a45.6221622242647,45.6221622242647 0 0,0 -0.26824905691335776,0.7381061962398855 l -23.068044493373627 -8.609076364497072" fill="#d6ff1c" stroke="none" /><path d="M 119.54520255179757 107.68017299344265 l 29.618706532423015 11.63849744755383 a52.82329963235294,52.82329963235294 0 0,0 -0.3398233184109202,0.8434136075884008 l -29.413980599754705 -12.146610422985043" fill="#83ff25" stroke="none" /><path d="M 119.26925614724726 108.34839909993367 l 35.48607084506617 15.374328912299726 a59.67339154411765,59.67339154411765 0 0,0 -0.4164603588148531,0.9390081668036601 l -35.21616940152005 -15.982885415596073" fill="#3bff2e" stroke="none" /><path d="M 119.12269723197855 108.67885076344098 l 30.071671717880232 13.648051207453449 a54.02385110294118,54.02385110294118 0 0,0 -0.39160959209205337,0.8434922221414679 l -29.832287508948347 -14.163663496873747" fill="#76ff27" stroke="none" /><path d="M 118.81262510543309 109.33194174019688 l 2.5238398823086188 1.2519425976594547 a23.817290900735294,23.817290900735294 0 0,0 -0.18534539814693105,0.36570405426637326 l -2.5019158143754185 -1.2952008636285224" fill="#ff0000" stroke="none" /><path d="M 118.64920377521936 109.65438752849418 l 25.754070470833717 13.332460718347896 a50.00045955882353,50.00045955882353 0 0,0 -0.4022596300031383,0.7609236244663318 l -25.520758332605684 -13.773799357900362" fill="#a3ff21" stroke="none" /><line stroke="#e1ed5e" stroke-width="0.3" x1="174.80103733775053" x2="179.2010983576182" y1="140.37084112569926" y2="142.7455964860345" /><path d="M 175.68104954172406 140.8457921977663 a86.0,86.0 0 0,1 -30.038265399797805,32.042727171017184" fill="none" id="id65" stroke="none" /><text fill="#e1ed5e" style="font-size:6.75px; font-family:Arial;" text-anchor="middle"><textPath startOffset="22.206326154141568" xlink:href="#id65">May</textPath></text><path d="M 118.30583269289576 110.29060199501025 l 21.45971903322969 12.063555436154244 a45.61806066176471,45.61806066176471 0 0,0 -0.3906817690199068,0.6811865949505195 l -21.2488852680574 -12.431161876963078" fill="#d7ff1c" stroke="none" /><path d="M 118.12598468904814 110.60418214915192 l 3.40945107225524 1.994619372080829 a24.950045955882352,24.950045955882352 0 0,0 -0.22005836491607222,0.36883047733283775 l -3.3746118316409404 -2.053011943299771" fill="#ff1101" stroke="none" /><path d="M 117.75023020441432 111.22182372390056 l 53.25069061324299 33.665471171701654 a84.0,84.0 0 0,0 -0.7831805464917987,1.2155136003141882 l -52.663305203374144 -34.5771063719373" fill="#4dd2ff" stroke="none" /><line stroke="#e1ed5e" stroke-width="0.3" x1="143.8653032363475" x2="146.44561519142675" y1="172.8068346515853" y2="177.08958963109032" /><path d="M 144.38136562736335 173.6633856474863 a86.0,86.0 0 0,1 -40.68145358897372,12.25698825130547" fill="none" id="id66" stroke="none" /><text fill="#e1ed5e" style="font-size:6.75px; font-family:Arial;" text-anchor="middle"><textPath startOffset="21.466115282336833" xlink:href="#id66">June</textPath></text><line stroke="#e1ed5e" stroke-width="0.3" x1="102.19456741930631" x2="102.32365962044197" y1="184.97166512339345" y2="189.96999836594603" /><path d="M 102.22038585953345 185.97133177190398 a86.0,86.0 0 0,1 -42.740103519485714,-10.115201625700543" fill="none" id="id67" stroke="none" /><text fill="#e1ed5e" style="font-size:6.75px; font-family:Arial;" text-anchor="middle"><textPath startOffset="22.20632615414155" xlink:href="#id67">July</textPath></text><line stroke="#e1ed5e" stroke-width="0.3" x1="58.666819895761336" x2="56.23545636021788" y1="174.27360380694188" y2="178.64263932499728" /><path d="M 58.180547188652646 175.14741091055294 a86.0,86.0 0 0,1 -31.652253787137756,-30.449443065178592" fill="none" id="id68" stroke="none" /><text fill="#e1ed5e" style="font-size:6.75px; font-family:Arial;" text-anchor="middle"><textPath startOffset="22.20632615414155" xlink:href="#id68">August</textPath></text><line stroke="#e1ed5e" stroke-width="0.3" x1="26.63291911575756" x2="22.317208475507996" y1="142.92168965132927" y2="145.44649492493687" /><path d="M 25.769776987707644 143.4266507060508 a86.0,86.0 0 0,1 -11.730757126820373,-40.83630448921669" fill="none" id="id69" stroke="none" /><text fill="#e1ed5e" style="font-size:6.75px; font-family:Arial;" text-anchor="middle"><textPath startOffset="21.46611528233685" xlink:href="#id69">September</textPath></text><line stroke="#e1ed5e" stroke-width="0.3" x1="15.007084014347285" x2="10.007500721073583" y1="101.09737516637583" y2="101.16192664675087" /><path d="M 14.007167355692545 101.11028546245083 a86.0,86.0 0 0,1 10.666146001902534,-42.60595125391555" fill="none" id="id70" stroke="none" /><text fill="#e1ed5e" style="font-size:6.75px; font-family:Arial;" text-anchor="middle"><textPath startOffset="22.20632615414155" xlink:href="#id70">October</textPath></text><line stroke="#e1ed5e" stroke-width="0.3" x1="26.266209847984243" x2="21.928928074336255" y1="57.711370442889674" y2="55.22380399835377" /><path d="M 25.398753493254645 57.213857153982495 a86.0,86.0 0 0,1 29.58750427330803,-30.492523968695096" fill="none" id="id71" stroke="none" /><text fill="#e1ed5e" style="font-size:6.75px; font-family:Arial;" text-anchor="middle"><textPath startOffset="21.46611528233685" xlink:href="#id71">November</textPath></text><line stroke="#e1ed5e" stroke-width="0.3" x1="56.762969772571076" x2="54.21961505331055" y1="26.818313649435495" y2="22.513508569990535" /><path d="M 56.25429882871897 25.957352633546506 a86.0,86.0 0 0,1 42.265352541879196,-11.944610805530505" fill="none" id="id72" stroke="none" /><text fill="#e1ed5e" style="font-size:6.75px; font-family:Arial;" text-anchor="middle"><textPath startOffset="22.20632615414155" xlink:href="#id72">December</textPath></text></svg>