<?xml version="1.0" encoding="utf-8" ?>
<svg baseProfile="full" height="200mm" version="1.1" viewBox="0,0,200,200" width="200mm" xmlns="http://www.w3.org/2000/svg" xmlns:ev="http://www.w3.org/2001/xml-events" xmlns:xlink="http://www.w3.org/1999/xlink"><defs /><rect fill="#1a1a1a" height="200" width="200" x="0" y="0" /><text alignment-baseline="middle" fill="#e1ed5e" style="dominant-baseline: central; font-size:9.0px; font-family:Arial;" text-anchor="middle" x="100.0" y="100.0">2024</text><line stroke="#e1ed5e" stroke-width="0.3" x1="100.0" x2="100.0" y1="15.0" y2="10.0" /><path d="M 100.0 14.0 a86.0,86.0 0 0,1 42.35913384403234,11.155469271406648" fill="none" id="id37" stroke="none" /><text fill="#e1ed5e" style="font-size:6.75px; font-family:Arial;" text-anchor="middle"><textPath startOffset="22.145653131862478" xlink:href="#id37">January</textPath></text><path d="M 100.36049292484886 79.00309439819443 l 0.4413586271988147 -25.706927357094415 a46.71071589008622,46.71071589008622 0 0,0 0.8016152427148254,0.020646765127310472 l -0.8825871839843814 25.69556287461706" fill="#e9ff1a" stroke="none" /><path d="M 100.72087961077811 79.0123766808444 l 0.899676388506976 -26.193096418334694 a47.20854283595742,47.20854283595742 0 0,0 0.8096810004325621,0.03477118600149529 l -1.3491831495403743 26.173792663907367" fill="#e3ff1b" stroke="none" /><path d="M 101.08105385017728 79.02784411241856 l 1.755660052522387 -34.05933599058084 a55.10455556577887,55.10455556577887 0 0,0 0.9442707401702896,0.056804982897547 l -2.340075144825139 34.0241790298586" fill="#81ff25" stroke="none" /><path d="M 101.80034050326958 79.07731436759882 l 4.391255019692631 -51.033039662150536 a72.22161904710359,72.22161904710359 0 0,0 1.2343033623355593,0.11688981171354469 l -5.266657945413203 50.9501380949318" fill="#3dffac" stroke="none" /><path d="M 102.51750503828377 79.15144685158666 l 3.2292650264027642 -26.74294688965844 a47.93721145467437,47.93721145467437 0 0,0 0.8161245834169938,0.10566366670671049 l -3.6878674317105498 26.68357162675133" fill="#d9ff1c" stroke="none" /><path d="M 103.23170211078529 79.25015418208739 l 5.250993384383531 -33.715144336233706 a55.12160443378815,55.12160443378815 0 0,0 0.9337140364241933,0.15364228937373947 l -5.828984923860794 33.6200360483643" fill="#81ff25" stroke="none" /><path d="M 103.58742460773223 79.30868818359171 l 6.595018507689049 -38.03831419438248 a59.60579769759097,59.60579769759097 0 0,0 1.0066717201103854,0.18344912140347083 l -7.247024961350488 37.91949689904764" fill="#4dff2c" stroke="none" /><path d="M 104.29559338865022 79.4440306129975 l 6.980900143695808 -33.40613430188362 a55.12774202627149,55.12774202627149 0 0,0 0.924669648979889,0.20152744627320832 l -7.553332209294831 33.28137539747669" fill="#81ff25" stroke="none" /><path d="M 104.9986988182912 79.60360301121754 l 7.31327847602813 -29.840671844594056 a51.72376503953714,51.72376503953714 0 0,0 0.8605718913936988,0.21875400955207516 l -7.824455660647223 29.710732603206715" fill="#aaff21" stroke="none" /><path d="M 105.3480935250658 79.69241777938227 l 7.820982177195405 -29.697543220773674 a51.710125945129704,51.710125945129704 0 0,0 0.8564639792250289,0.23343306606392739 l -8.329627557355126 29.558909660565604" fill="#aaff21" stroke="none" /><path d="M 105.69591212413111 79.78721728523813 l 9.956986981095993 -35.333834152735854 a57.709963574958195,57.709963574958195 0 0,0 0.9512250512997185,0.2768877491309123 l -10.562072044777315 35.15770270930242" fill="#63ff29" stroke="none" /><path d="M 106.04205211174951 79.88797359093562 l 11.16061006267782 -37.150041106952955 a59.790266449451465,59.790266449451465 0 0,0 0.9804446816652244,0.30374426860844067 l -11.796695377214675 36.95298025053787" fill="#4bff2c" stroke="none" /><path d="M 106.72888874123014 80.10723608172694 l 20.186666223690402 -59.67829175481916 a84.0,84.0 0 0,0 1.3619769118199267,0.4737662697256382 l -21.208148907555344 59.32296705252493" fill="#4dd2ff" stroke="none" /><path d="M 107.40779381753099 80.34994680014964 l 11.437590674044687 -30.33956813042067 a53.423878157423296,53.423878157423296 0 0,0 0.8553614134139036,0.33087216996449 l -11.956724349952117 30.13875607231814" fill="#95ff23" stroke="none" /><path d="M 107.74402155503746 80.48000691201159 l 15.650079812941708 -39.44842451740969 a63.43940615815937,63.43940615815937 0 0,0 1.008824127202146,0.41027999006286087 l -16.324958401334296 39.17395727076754" fill="#31ff3e" stroke="none" /><path d="M 108.07796709384702 80.6158196554323 l 13.181790070495055 -31.631497507007143 a55.26822469866802,55.26822469866802 0 0,0 0.8726192746513165,0.3724692791991384 l -13.722844420316802 31.400553578148603" fill="#7fff26" stroke="none" /><path d="M 108.4095320186766 80.7573450057729 l 13.391584514210448 -30.64256608580444 a54.44101362285739,54.44101362285739 0 0,0 0.8531337103922068,0.3815958572357249 l -13.915631627458287 30.408166477658863" fill="#89ff24" stroke="none" /><path d="M 108.73861861582097 80.90454125486305 l 10.570737975871713 -23.09897019174894 a46.40281333383849,46.40281333383849 0 0,0 0.7214782029339085,0.33768822854315667 l -10.965704892677127 22.91410573163525" fill="#edff19" stroke="none" /><path d="M 109.3889696526874 81.21577127319529 l 13.958522637205983 -27.926395718033795 a52.22056905332778,52.22056905332778 0 0,0 0.7984096756976122,0.4076736693053703 l -14.435859534617174 27.682664097055593" fill="#a3ff21" stroke="none" /><line stroke="#e1ed5e" stroke-width="0.3" x1="143.13028292997686" x2="145.6673583964461" y1="26.7553504044142" y2="22.446841604673864" /><path d="M 143.63769802327073 25.89364864446614 a86.0,86.0 0 0,1 29.32050498858742,28.57503671076993" fill="none" id="id38" stroke="none" /><text fill="#e1ed5e" style="font-size:6.75px; font-family:Arial;" text-anchor="middle"><textPath startOffset="20.669276256404974" xlink:href="#id38">February</textPath></text><path d="M 111.27062007382361 82.28071324371311 l 30.435304130985404 -47.849353263557965 a77.7086267272127,77.7086267272127 0 0,0 1.1194274325028082,0.725599337209771 l -31.25221719574522 47.3198400846443" fill="#44ffea" stroke="none" /><path d="M 111.5731344415666 82.4767994020092 l 3.7535658189728394 -5.683377060529427 a27.811022769710387,27.811022769710387 0 0,0 0.39611334010662863,0.26652273320043357 l -3.8505754471764693 5.618104653271875" fill="#ff0000" stroke="none" /><path d="M 111.8722381534696 82.67804972795209 l 12.849452194365048 -18.7477347621098 a43.728527897901635,43.728527897901635 0 0,0 0.6155413096364225,0.42969563947343564 l -13.169388595175231 18.524394306831237" fill="#ffed16" stroke="none" /><path d="M 112.16784306229584 82.88440491214696 l 19.194664920048222 -26.99970002379168 a54.1273144514865,54.1273144514865 0 0,0 0.7526763655854102,0.5448796439376796 l -19.6553222960076 26.666219608480926" fill="#8cff24" stroke="none" /><path d="M 112.45986205192187 83.09580414077388 l 22.071320184503424 -29.94398475005492 a58.19926608682475,58.19926608682475 0 0,0 0.7991230677963294,0.5996768480184557 l -22.58209624121052 29.56068887477245" fill="#5dff2a" stroke="none" /><path d="M 112.7482090630111 83.31218511350987 l 10.320665455990655 -13.510082379703693 a38.00113117886157,38.00113117886157 0 0,0 0.5149878107674406,0.4004576365286877 l -10.551063211393322 13.330923691554215" fill="#ff9c0e" stroke="none" /><path d="M 113.31354834802062 83.75963576809568 l 21.631714832645816 -26.387174828195644 a55.1205815017076,55.1205815017076 0 0,0 0.7266091274092318,0.6061631768339104 l -22.08149829421694 26.011949467449863" fill="#81ff25" stroke="none" /><path d="M 113.86319453409587 84.22622945171908 l 10.009385071918741 -11.388842814368799 a36.16224027537981,36.16224027537981 0 0,0 0.4627646985909924,0.41380704702879945 l -10.20341479733311 11.215340237456612" fill="#ff810b" stroke="none" /><path d="M 114.13192950727249 84.46653392183569 l 23.500185001661244 -25.830819943308953 a55.92119634342374,55.92119634342374 0 0,0 0.7045277954750613,0.6521004095024571 l -23.94014256845027 25.42360178767412" fill="#77ff27" stroke="none" /><path d="M 114.39649973595853 84.71141617570332 l 27.04091873571574 -28.71651862323041 a60.444261026287734,60.444261026287734 0 0,0 0.749300200794366,0.7178126425047308 l -27.529891422375417 28.248093850420098" fill="#44ff2d" stroke="none" /><path d="M 114.91283532996326 85.21462403516908 l 24.233609640318445 -24.026486016186848 a55.1253551847502,55.1253551847502 0 0,0 0.6604889026539371,0.6777198000194451 l -24.642485344123195 23.60694352409966" fill="#81ff25" stroke="none" /><path d="M 115.16444852881244 85.47280134310134 l 24.67178616801535 -23.63501305057689 a55.1659314906123,55.1659314906123 0 0,0 0.6492351497338085,0.6894652304680059 l -25.073877151485416 23.20800636016439" fill="#80ff25" stroke="none" /><path d="M 115.6541949942343 86.00192230759917 l 33.076871838810135 -29.577542760377295 a65.3724068130524,65.3724068130524 0 0,0 0.7408528354240261,0.8429545302333168 l -33.57973573819275 29.00537595233268" fill="#33ff57" stroke="none" /><path d="M 115.8921839302757 86.27271002978787 l 21.30391970172972 -18.401818436711565 a49.15109085693564,49.15109085693564 0 0,0 0.5460579384037598,0.6432548783964774 l -21.61667220364059 18.033396775865537" fill="#caff1d" stroke="none" /><path d="M 116.1254893667686 86.54754324733833 l 12.753731868208982 -10.63961672665226 a37.60900721464796,37.60900721464796 0 0,0 0.4093170582945331,0.49930025709660397 l -12.934495745742144 10.419114187857161" fill="#ff960d" stroke="none" /><path d="M 116.35404254752997 86.82634096563983 l 35.197176690666694 -28.352354064592042 a66.19620811526117,66.19620811526117 0 0,0 0.7052530437915029,0.8910641820313171 l -35.67869616509976 27.743969938646046" fill="#35ff62" stroke="none" /><path d="M 116.7966241395341 87.39550010848427 l 25.134527162356044 -18.86141776224823 a52.424473514718855,52.424473514718855 0 0,0 0.5339756671037895,0.7244405454224941 l -25.45460484904366 18.42717090755686" fill="#a1ff22" stroke="none" /><line stroke="#e1ed5e" stroke-width="0.3" x1="172.87174338648825" x2="177.1583165268699" y1="56.24261187166439" y2="53.66864786411523" /><path d="M 173.72905801456457 55.72781907015455 a86.0,86.0 0 0,1 12.242430191666344,42.057860355516425" fill="none" id="id39" stroke="none" /><text fill="#e1ed5e" style="font-size:6.75px; font-family:Arial;" text-anchor="middle"><textPath startOffset="22.145653131862474" xlink:href="#id39">March</textPath></text><line stroke="#e1ed5e" stroke-width="0.3" x1="184.99686870605535" x2="189.99668451229388" y1="99.2704041080226" y2="99.22748670261217" /><path d="M 185.99683186730306 99.26182062694052 a86.0,86.0 0 0,1 -10.086455211305974,41.156179273409016" fill="none" id="id40" stroke="none" /><text fill="#e1ed5e" style="font-size:6.75px; font-family:Arial;" text-anchor="middle"><textPath startOffset="21.40746469413373" xlink:href="#id40">April</textPath></text><line stroke="#e1ed5e" stroke-width="0.3" x1="174.33088141563837" x2="178.70328620479359" y1="141.23008692659167" y2="143.65538615756765" /><path d="M 175.20536237346943 141.71514677278685 a86.0,86.0 0 0,1 -30.301960400862466,31.631185727798858" fill="none" id="id41" stroke="none" /><text fill="#e1ed5e" style="font-size:6.75px; font-family:Arial;" text-anchor="middle"><textPath startOffset="22.145653131862474" xlink:href="#id41">May</textPath></text><line stroke="#e1ed5e" stroke-width="0.3" x1="143.1302829299769" x2="145.66735839644613" y1="173.24464959558577" y2="177.55315839532614" /><path d="M 143.63769802327073 174.10635135553383 a86.0,86.0 0 0,1 -40.68552437913181,11.842963189579606" fill="none" id="id42" stroke="none" /><text fill="#e1ed5e" style="font-size:6.75px; font-family:Arial;" text-anchor="middle"><textPath startOffset="21.407464694133747" xlink:href="#id42">June</textPath></text><line stroke="#e1ed5e" stroke-width="0.3" x1="101.45913802915013" x2="101.54496967792366" y1="184.9874750549273" y2="189.98673829345242" /><path d="M 101.47630435890484 185.9873277026323 a86.0,86.0 0 0,1 -42.54439059252881,-10.42667462771756" fill="none" id="id43" stroke="none" /><text fill="#e1ed5e" style="font-size:6.75px; font-family:Arial;" text-anchor="middle"><textPath startOffset="22.145653131862474" xlink:href="#id43">July</textPath></text><line stroke="#e1ed5e" stroke-width="0.3" x1="58.13341422392154" x2="55.67067388415222" y1="173.97424548756322" y2="178.32567169271397" /><path d="M 57.64086615596768 174.84453072859336 a86.0,86.0 0 0,1 -31.369924170532247,-30.572349798747897" fill="none" id="id44" stroke="none" /><text fill="#e1ed5e" style="font-size:6.75px; font-family:Arial;" text-anchor="middle"><textPath startOffset="22.145653131862474" xlink:href="#id44">August</textPath></text><line stroke="#e1ed5e" stroke-width="0.3" x1="26.387840678322732" x2="22.057713659400548" y1="142.50000000000003" y2="145.00000000000006" /><path d="M 25.521815274538298 143.00000000000003 a86.0,86.0 0 0,1 -11.493303480769221,-40.785679425670985" fill="none" id="id45" stroke="none" /><text fill="#e1ed5e" style="font-size:6.75px; font-family:Arial;" text-anchor="middle"><textPath startOffset="21.40746469413373" xlink:href="#id45">September</textPath></text><line stroke="#e1ed5e" stroke-width="0.3" x1="15.003131293944662" x2="10.003315487706104" y1="100.72959589197737" y2="100.7725132973878" /><path d="M 14.003168132696942 100.73817937305945 a86.0,86.0 0 0,1 10.791469493833604,-42.45332614584628" fill="none" id="id46" stroke="none" /><text fill="#e1ed5e" style="font-size:6.75px; font-family:Arial;" text-anchor="middle"><textPath startOffset="22.145653131862435" xlink:href="#id46">October</textPath></text><line stroke="#e1ed5e" stroke-width="0.3" x1="26.387840678322718" x2="22.05771365940052" y1="57.49999999999999" y2="54.99999999999999" /><path d="M 25.521815274538284 56.99999999999999 a86.0,86.0 0 0,1 29.574782752854787,-30.34633250058573" fill="none" id="id47" stroke="none" /><text fill="#e1ed5e" style="font-size:6.75px; font-family:Arial;" text-anchor="middle"><textPath startOffset="21.40746469413373" xlink:href="#id47">November</textPath></text><line stroke="#e1ed5e" stroke-width="0.3" x1="56.869717070023135" x2="54.33264160355391" y1="26.7553504044142" y2="22.446841604673864" /><path d="M 56.362301976729285 25.89364864446614 a86.0,86.0 0 0,1 42.16139366436587,-11.88097634709845" fill="none" id="id48" stroke="none" /><text fill="#e1ed5e" style="font-size:6.75px; font-family:Arial;" text-anchor="middle"><textPath startOffset="22.145653131862474" xlink:href="#id48">December</textPath></text></svg>