<?xml version="1.0" encoding="utf-8" ?>
<svg baseProfile="full" height="200mm" version="1.1" viewBox="0,0,200,200" width="200mm" xmlns="http://www.w3.org/2000/svg" xmlns:ev="http://www.w3.org/2001/xml-events" xmlns:xlink="http://www.w3.org/1999/xlink"><defs /><rect fill="#1a1a1a" height="200" width="200" x="0" y="0" /><text alignment-baseline="middle" fill="#e1ed5e" style="dominant-baseline: central; font-size:9.0px; font-family:Arial;" text-anchor="middle" x="100.0" y="100.0">2026</text><line stroke="#e1ed5e" stroke-width="0.3" x1="100.0" x2="100.0" y1="15.0" y2="10.0" /><path d="M 100.0 14.0 a86.0,86.0 0 0,1 42.46469731375804,11.215312516191453" fill="none" id="id61" stroke="none" /><text fill="#e1ed5e" style="font-size:6.75px; font-family:Arial;" text-anchor="middle"><textPath startOffset="22.20632615414155" xlink:href="#id61">January</textPath></text><path d="M 100.0 79.0 l 0.0 -14.9975462908507 a35.9975462908507,35.9975462908507 0 0,0 0.6196385850405589,0.005333424928327045 l -0.25815810576803055 14.995324242530932" fill="#ffb911" stroke="none" /><path d="M 100.72285384407766 79.0124445844662 l 1.202206298587859 -34.9052184189612 a55.92591549064609,55.92591549064609 0 0,0 0.9618170041174443,0.041417863433109534 l -1.8028641350946348 34.8793528290039" fill="#5cff2a" stroke="none" /><path d="M 101.44485096284872 79.0497635885617 l 0.8406022584887652 -12.188673085427798 a33.21762512685704,33.21762512685704 0 0,0 0.5700932372287277,0.044250207316461836 l -1.050285685079834 12.172397615922872" fill="#ff940d" stroke="none" /><path d="M 101.80526077348638 79.07773832637324 l 0.9570866266859099 -11.092257219537077 a32.13347138296737,32.13347138296737 0 0,0 0.5506680442902218,0.052292566064286346 l -1.147879798066376 11.074139108957612" fill="#ff850c" stroke="none" /><path d="M 102.52436894288641 79.15227682838746 l 1.672688159480864 -13.814042436054615 a34.91494355374772,34.91494355374772 0 0,0 0.5960234770951657,0.07738095331528261 l -1.9102263650838758 13.783203159575196" fill="#ffaa0f" stroke="none" /><path d="M 102.88285421437855 79.19881850522331 l 2.629944319093854 -18.97631480280066 a40.157691160902594,40.157691160902594 0 0,0 0.683887430166893,0.1007872298828509 l -2.956200729689403 18.928233088756837" fill="#ffee16" stroke="none" /><path d="M 103.95276090670814 79.375362276772 l 3.6134823252893336 -18.8543566477554 a40.19750033509406,40.19750033509406 0 0,0 0.6784449702006581,0.1360896785433467 l -3.937493704957117 18.789363013134846" fill="#ffee16" stroke="none" /><path d="M 104.307194497241 79.44645832069477 l 2.582415056816314 -12.323050546600282 a33.5907284260974,33.5907284260974 0 0,0 0.564895721174248,0.12346432493438392 l -2.79415350214409 12.276772723570028" fill="#ff990e" stroke="none" /><path d="M 104.66035177308747 79.52364482259891 l 4.022150693498382 -17.672268143514042 a39.12420363871116,39.12420363871116 0 0,0 0.655379433645392,0.15510713748360977 l -4.325753814106298 17.600415093889566" fill="#ffe115" stroke="none" /><path d="M 105.01212808612495 79.60689891045804 l 3.53389107480884 -14.378522793044628 a35.80642778791419,35.80642778791419 0 0,0 0.5972701610498982,0.15225746282650143 l -3.7808701245437635 14.315562334049257" fill="#ffb610" stroke="none" /><path d="M 105.36241919743992 79.69619591428918 l 6.312319708611873 -23.900425903147138 a45.719946166113644,45.719946166113644 0 0,0 0.7591734158429588,0.207510772491806 l -6.722791013678542 23.78822858982904" fill="#cdff1d" stroke="none" /><path d="M 106.0581310904928 79.89281104454417 l 10.074419333474443 -33.437416610638316 a55.92212414072309,55.92212414072309 0 0,0 0.9192921544030794,0.28562854725794756 l -10.648496860588242 33.25904792849784" fill="#5cff2a" stroke="none" /><path d="M 106.74666289553966 80.11325718540242 l 5.826853834285288 -17.175475552112125 a39.136956361179415,39.136956361179415 0 0,0 0.6361022624886129,0.2219235891869425 l -6.121638100837174 17.072631109752976" fill="#ffe115" stroke="none" /><path d="M 107.08798089147638 80.2323363322302 l 4.5931335350817415 -12.80978607205842 a34.60836121224721,34.60836121224721 0 0,0 0.5590365618686226,0.20589788363983377 l -4.81295242272294 12.728824920612261" fill="#ffa60f" stroke="none" /><path d="M 107.4271985657038 80.35727306442388 l 4.318888060808267 -11.422171912235347 a33.211421099710314,33.211421099710314 0 0,0 0.5329908583279832,0.20679217252145538 l -4.514862084135917 11.346137035823345" fill="#ff940d" stroke="none" /><path d="M 107.76421540070413 80.48803036053334 l 7.017823278213045 -17.636238521566135 a39.981221055395835,39.981221055395835 0 0,0 0.6372552190853991,0.25995240439057943 l -7.320362366886832 17.51282523099198" fill="#ffeb16" stroke="none" /><path d="M 108.43124777332544 80.76684994638697 l 14.021574490788762 -31.985662551924598 a55.92401981568459,55.92401981568459 0 0,0 0.8783210353538521,0.39407704611961725 l -14.570077644609393 31.73956517528845" fill="#5cff2a" stroke="none" /><path d="M 109.08828744355905 81.06846463323043 l 6.71692831274839 -13.991829230596418 a36.520580246136845,36.520580246136845 0 0,0 0.5643798873963163,0.2769387596704324 l -6.956779467155139 13.874135310791152" fill="#ffbf11" stroke="none" /><path d="M 109.41281617654863 81.2277094730956 l 5.608310105743125 -11.184838277441742 a33.51214408223892,33.51214408223892 0 0,0 0.5134371855654724,0.2630024684551155 l -5.800007778897353 11.086643283674125" fill="#ff980e" stroke="none" /><path d="M 109.73455568895987 81.39251694778311 l 4.806791196959296 -9.188122045919728 a31.36951437348353,31.36951437348353 0 0,0 0.47630119266602694,0.25442360176729734 l -4.964237436153634 9.104019717650676" fill="#ff7b0b" stroke="none" /><path d="M 110.36928655335952 81.73862282372117 l 9.78687239679775 -17.235686109584083 a40.82048806107739,40.82048806107739 0 0,0 0.6080372403745268,0.3522144157131591 l -10.082106369637604 17.064667536480876" fill="#fff617" stroke="none" /><line stroke="#e1ed5e" stroke-width="0.3" x1="143.23703022742887" x2="145.7803849466894" y1="26.81831364943548" y2="22.513508569990506" /><path d="M 143.74570117128098 25.957352633546492 a86.0,86.0 0 0,1 28.547481713284135,27.462654790039103" fill="none" id="id62" stroke="none" /><text fill="#e1ed5e" style="font-size:6.75px; font-family:Arial;" text-anchor="middle"><textPath startOffset="19.985693538727396" xlink:href="#id62">February</textPath></text><path d="M 111.2981086023043 82.29822771554956 l 6.89069996080019 -10.796285102240807 a33.80786937623267,33.80786937623267 0 0,0 0.48785234328458754,0.31731273456807646 l -7.075519329869058 10.676073443513204" fill="#ff9c0e" stroke="none" /><path d="M 111.90073688211348 82.69761687909136 l 7.1297188383737 -10.365839368426869 a33.5810777172025,33.5810777172025 0 0,0 0.47344340053738077,0.331677357850955 l -7.307093378494732 10.241577167811979" fill="#ff990e" stroke="none" /><path d="M 112.48926042617603 83.11751280151076 l 11.568953459884222 -15.638452720311658 a40.452554784459295,40.452554784459295 0 0,0 0.5562300373482071,0.4189409322726552 l -11.836429650990812 15.436995198533156" fill="#fff116" stroke="none" /><path d="M 113.34407831869373 83.78471172551755 l 9.538685878956935 -11.591099631837507 a36.01133301784342,36.01133301784342 0 0,0 0.47525092999764695,0.39800898638796167 l -9.7367943459137 11.425189488055725" fill="#ffb911" stroke="none" /><path d="M 113.89432698308785 84.25364557470407 l 11.737559098003763 -13.30210278410688 a38.740243291964035,38.740243291964035 0 0,0 0.49622379920935605,0.44551462645370904 l -11.96479388480911 13.098089148883874" fill="#ffdc14" stroke="none" /><path d="M 114.42810811169701 84.74124197986012 l 18.360219376766697 -19.41724739639584 a47.723157598155204,47.723157598155204 0 0,0 0.5920324867640367,0.5695347832002788 l -18.691735107143153 19.098329526433258" fill="#b6ff1f" stroke="none" /><path d="M 115.19652480421416 85.50635884689758 l 12.677869662879605 -12.091481167366965 a38.51948332599318,38.51948332599318 0 0,0 0.4534892866190187,0.4837507523390584 l -12.884126271469086 11.871460998149852" fill="#ffd914" stroke="none" /><path d="M 116.15771136456269 86.58626213691792 l 20.62364658253288 -17.1212483499164 a47.80432695332482,47.80432695332482 0 0,0 0.5201600378146235,0.6376547019455442 l -20.915305112423916 16.763709478362756" fill="#b5ff20" stroke="none" /><path d="M 116.38621287248628 86.86637796730983 l 15.645095207603083 -12.53961294907395 a41.05020939959351,41.05020939959351 0 0,0 0.4371767534753519,0.5551700809192874 l -15.858626041672398 12.268450474201623" fill="#fff917" stroke="none" /><path d="M 116.60985879189232 87.15038557335679 l 14.453029310040389 -11.181061576612837 a39.273100290232485,39.273100290232485 0 0,0 0.40904628264119974,0.5382569600895194 l -14.643351532905701 10.930619840642283" fill="#ffe315" stroke="none" /><path d="M 117.04232023915458 87.72973835380427 l 14.441514361680852 -10.397713298333601 a38.79521786584749,38.79521786584749 0 0,0 0.38552725621720524,0.5453009632310831 l -14.61835423770194 10.147585834770725" fill="#ffdd14" stroke="none" /><path d="M 117.65298651832404 88.62581576622439 l 16.036075345386614 -10.332374931335462 a40.07652180573298,40.07652180573298 0 0,0 0.36865133577689585,0.5831178813892677 l -16.211554277409466 10.054809402231989" fill="#ffed16" stroke="none" /><line stroke="#e1ed5e" stroke-width="0.3" x1="172.23445277983987" x2="176.4835382374775" y1="55.19839476539836" y2="52.563006222186495" /><path d="M 173.08426987136738 54.67131705675599 a86.0,86.0 0 0,1 12.851231095245387,41.99856678651699" fill="none" id="id63" stroke="none" /><text fill="#e1ed5e" style="font-size:6.75px; font-family:Arial;" text-anchor="middle"><textPath startOffset="22.20632615414155" xlink:href="#id63">March</textPath></text><path d="M 118.21658344932153 89.55222093294921 l 15.438667713716685 -8.854557706238248 a38.79763054307121,38.79763054307121 0 0,0 0.3272716088887799,0.5821796742656778 l -15.588796963897897 8.587494522037776" fill="#ffdd14" stroke="none" /><path d="M 118.56541770881063 90.18545643968196 l 12.414796884474422 -6.563039233819686 a35.042815446605154,35.042815446605154 0 0,0 0.2773231125112734,0.5356999831979424 l -12.525929430145812 6.348366528361399" fill="#ffac0f" stroke="none" /><path d="M 118.89224826269711 90.83032412892265 l 17.10927033702149 -8.30427703466605 a40.01810055010135,40.01810055010135 0 0,0 0.29545136134809163,0.622295916490241 l -17.249679892211336 8.00853870253527" fill="#ffec16" stroke="none" /><path d="M 119.04729006885535 91.15688171328212 l 18.676628383784035 -8.67103054543864 a41.59133843405759,41.59133843405759 0 0,0 0.29588807602102385,0.6519501540615706 l -18.823118776768403 8.348258382535006" fill="#ffff18" stroke="none" /><path d="M 119.34039704204932 91.81776055985345 l 16.019714212984745 -6.777375726484617 a38.394368778534286,38.394368778534286 0 0,0 0.2522662017681624,0.6108826171572408 l -16.134002101639105 6.500618538874073" fill="#ffd714" stroke="none" /><path d="M 119.47837535516314 92.15188598940014 l 15.876808198875539 -6.396991463467881 a38.11708323189329,38.11708323189329 0 0,0 0.2399678220453511,0.6106919325638432 l -15.98456957080259 6.122750526008253" fill="#ffd413" stroke="none" /><path d="M 119.61058180528143 92.48833698450437 l 11.015311688021393 -4.219319458884339 a32.79575128087994,32.79575128087994 0 0,0 0.19739202278786527,0.5289124839321259 l -11.086308299310884 4.0290838379228795" fill="#ff8e0d" stroke="none" /><path d="M 119.7369772167798 92.82701384747503 l 10.637167607768681 -3.865853170653895 a32.31786885649494,32.31786885649494 0 0,0 0.18551521549728897,0.5244764959584223 l -10.70213590407578 3.6821790482688583" fill="#ff880c" stroke="none" /><path d="M 119.85752413597 93.16781622104841 l 22.830647475361964 -7.855117197696433 a45.14417798008037,45.14417798008037 0 0,0 0.24649302941166107,0.736982783715893 l -22.962477798545393 7.4609613110582265" fill="#d4ff1c" stroke="none" /><path d="M 120.08093135843002 93.85539295169968 l 23.3224970309123 -7.136500647413749 a45.38992638872553,45.38992638872553 0 0,0 0.222181750633091,0.7490864106700225 l -23.44188467865709 6.7339848499971975" fill="#d1ff1c" stroke="none" /><path d="M 120.28053869075195 94.5502522615342 l 8.715768000262514 -2.3420845803313357 a30.024963823518952,30.024963823518952 0 0,0 0.12982746907795156,0.5002781983150351 l -8.754791801210768 2.19170995646745" fill="#ff6809" stroke="none" /><path d="M 120.6074358757038 95.95851677861258 l 36.122779977969266 -7.0843170431967515 a57.81090573872511,57.81090573872511 0 0,0 0.18310716882507916,0.9781658176530652 l -36.23937287070421 6.461473148081123" fill="#49ff2c" stroke="none" /><path d="M 120.67395015179393 96.31383870115 l 8.501412604648444 -1.5158002171196758 a29.63548878597474,29.63548878597474 0 0,0 0.08522057146301525,0.5029766368346673 l -8.526245037631682 1.3692377919691705" fill="#ff6309" stroke="none" /><path d="M 120.78858239683441 97.02765380044208 l 11.473813953164752 -1.6405229874316498 a32.59050138277589,32.59050138277589 0 0,0 0.07462293805690413,0.5560275651602283 l -11.500352890279494 1.4427770802067572" fill="#ff8b0c" stroke="none" /><path d="M 120.94382443527127 98.46500227214037 l 36.47954754024291 -2.6736292963437016 a57.57739305028599,57.57739305028599 0 0,0 0.06393670368757824,0.9890725069919502 l -36.5201648349349 2.0452977250987163" fill="#4bff2c" stroke="none" /><path d="M 120.96714384426684 98.82574320788733 l 5.75521196247251 -0.32231842291811835 a26.764230555654336,26.764230555654336 0 0,0 0.021801876819716542,0.46020316159181524 l -5.759907447525722 0.22320415470330335" fill="#ff3b05" stroke="none" /><line stroke="#e1ed5e" stroke-width="0.3" x1="184.98032266829074" x2="189.97916517819016" y1="98.17113171792111" y2="98.06355123074" /><path d="M 185.9800911702706 98.14961562048488 a86.0,86.0 0 0,1 -9.607161424134198,41.387399972396054" fill="none" id="id64" stroke="none" /><text fill="#e1ed5e" style="font-size:6.75px; font-family:Arial;" text-anchor="middle"><textPath startOffset="21.466115282336823" xlink:href="#id64">April</textPath></text><path d="M 120.99980553446 99.90962569577887 l 9.72782448300483 -0.04186445287763199 a30.727914566060033,30.727914566060033 0 0,0 -0.002276357141825687,0.5289452319141732 l -9.727103828573503 -0.12559025724022596" fill="#ff720a" stroke="none" /><path d="M 120.9904718944345 100.63252640178507 l 26.80026133964065 0.807598464547008 a47.812426655433036,47.812426655433036 0 0,0 -0.03187009506592109,0.8224255420674492 l -26.782389111723525 -1.2688012536284634" fill="#b5ff20" stroke="none" /><path d="M 120.92983693683757 101.71520430193887 l 12.850784419170527 1.0531243404125978 a33.89386408584973,33.89386408584973 0 0,0 -0.05265719045384687,0.5810677088052901 l -12.830752632439605 -1.2741734377664586" fill="#ff9d0e" stroke="none" /><path d="M 120.89721153311464 102.0752229133903 l 18.866020109864422 1.873512987818117 a39.958817624032676,39.958817624032676 0 0,0 -0.07386234928115022,0.6838736203434364 l -18.83097545908222 -2.197982930046345" fill="#ffeb16" stroke="none" /><path d="M 120.81339534386255 102.79330883721812 l 14.634549371999436 1.9640628265664093 a35.76575694328567,35.76575694328567 0 0,0 -0.08714232833870433,0.609473241438233 l -14.59857299264413 -2.2156815399850514" fill="#ffb610" stroke="none" /><path d="M 120.70491114924044 103.5080841355445 l 27.20502614220997 4.609414642190401 a48.592755403220735,48.592755403220735 0 0,0 -0.1468277717559984,0.8234881189625405 l -27.121651928114783 -5.07702151188616" fill="#acff21" stroke="none" /><path d="M 120.64145759157962 103.86396538481128 l 11.80186202867751 2.2092425475675315 a33.0068605379559,33.0068605379559 0 0,0 -0.10934711904230948,0.5575586042106001 l -11.762084976659535 -2.4120648788460763" fill="#ff910d" stroke="none" /><path d="M 120.5718875245553 104.21870165774334 l 14.261139746287085 2.924549038932745 a35.55792203387048,35.55792203387048 0 0,0 -0.12812020722162457,0.5985349547262154 l -14.208685500341018 -3.1695978130751294" fill="#ffb310" stroke="none" /><path d="M 120.49622156327973 104.57218783832717 l 28.261449704928072 6.3044135347300685 a49.95609036871288,49.95609036871288 0 0,0 -0.19444678833622625,0.8376716750072043 l -28.148742350661294 -6.7899538670858375" fill="#9dff22" stroke="none" /><path d="M 120.32669344350535 105.2749913415812 l 19.817537766021267 5.142860073024904 a41.473978920532105,41.473978920532105 0 0,0 -0.18527398782360469,0.6894734323068545 l -19.726075701855887 -5.483224438507307" fill="#fffe18" stroke="none" /><path d="M 120.13307415673323 105.97154293290107 l 34.086819140222055 10.110274385185999 a56.554590241513914,56.554590241513914 0 0,0 -0.28485531140181425,0.9309236392791429 l -33.907737056314105 -10.695524997017198" fill="#56ff2b" stroke="none" /><path d="M 120.02730092923936 106.31721596034902 l 10.526729218159476 3.3204485248504763 a32.03799829854282,32.03799829854282 0 0,0 -0.1704234605655013,0.5245094789308831 l -10.468013506577728 -3.5011569037591546" fill="#ff840c" stroke="none" /><path d="M 119.9155931802556 106.66101706037122 l 15.199457550534408 5.083647026535541 a37.02707012903173,37.02707012903173 0 0,0 -0.20736775954676867,0.6027077759395155 l -15.10969896004441 -5.344527505564357" fill="#ffc612" stroke="none" /><path d="M 119.79798401119884 107.00284435728193 l 16.58053879537002 5.864785650810315 a38.58721062234489,38.58721062234489 0 0,0 -0.22688496892100002,0.624289991253814 l -16.477129565443796 -6.149323439070261" fill="#ffda14" stroke="none" /><path d="M 119.54520255179757 107.68017299344265 l 21.15616107970396 8.313189722064113 a43.73086612923962,43.73086612923962 0 0,0 -0.28132979477715314,0.6982374789483495 l -21.009928670669417 -8.676126568855276" fill="#e5ff1a" stroke="none" /><path d="M 119.26925614724726 108.34839909993367 l 25.347124124484516 10.981633468865535 a48.62377553895435,48.62377553895435 0 0,0 -0.33934513329805793,0.7651336910882679 l -25.154337906455186 -11.416315496446492" fill="#acff21" stroke="none" /><path d="M 119.12269723197855 108.67885076344098 l 21.479706755695602 9.748581338380017 a44.58840054818653,44.58840054818653 0 0,0 -0.32321363609270326,0.6961734177087595 l -21.308718502763067 -10.116874823367608" fill="#daff1b" stroke="none" /><path d="M 118.81262510543309 109.33194174019688 l 1.8027378417437652 0.89424226644173 a23.01234513867423,23.01234513867423 0 0,0 -0.17908133589998226,0.35334446518140394 l -1.787077836057514 -0.9251409433258283" fill="#ff0400" stroke="none" /><path d="M 118.64920377521936 109.65438752849418 l 18.395714301114428 9.52316017708012 a41.71455730655499,41.71455730655499 0 0,0 -0.3355985632119726,0.6348260079763791 l -18.22906322967756 -9.838401200142634" fill="#fdff18" stroke="none" /><line stroke="#e1ed5e" stroke-width="0.3" x1="174.80103733775053" x2="179.2010983576182" y1="140.37084112569926" y2="142.7455964860345" /><path d="M 175.68104954172406 140.8457921977663 a86.0,86.0 0 0,1 -30.038265399797805,32.042727171017184" fill="none" id="id65" stroke="none" /><text fill="#e1ed5e" style="font-size:6.75px; font-family:Arial;" text-anchor="middle"><textPath startOffset="22.206326154141568" xlink:href="#id65">May</textPath></text><path d="M 118.30583269289576 110.29060199501025 l 15.32832880785005 8.616801740543087 a38.58428094285894,38.58428094285894 0 0,0 -0.330443138450903,0.57615546502418 l -15.177733673246767 -8.879377051425582" fill="#ffda14" stroke="none" /><path d="M 118.12598468904814 110.60418214915192 l 2.435315532737428 1.4247242256256585 a23.82145367905922,23.82145367905922 0 0,0 -0.21010422809669488,0.35214677146268125 l -2.410430428942506 -1.4664330909744439" fill="#ff1001" stroke="none" /><path d="M 117.75023020441432 111.22182372390056 l 38.036103534298604 24.046699343638913 a65.99987690422327,65.99987690422327 0 0,0 -0.6153549959790598,0.9550446190017341 l -37.6165436749425 -24.6978655625621" fill="#36ff72" stroke="none" /><path d="M 117.55443506779139 111.5257021239791 l 8.765812906236887 5.755363134253758 a31.48635688474679,31.48635688474679 0 0,0 -0.3013647597982794,0.4504994261908694 l -8.665445041027887 -5.905399474650435" fill="#ff7d0b" stroke="none" /><path d="M 117.14729908036423 112.12312394758627 l 9.88708173820443 6.990157273772993 a33.10853764952717,33.10853764952717 0 0,0 -0.3330091522130143,0.462520586620346 l -9.765292793615812 -7.159311465844469" fill="#ff920d" stroke="none" /><path d="M 116.93607887273984 112.41649034213515 l 24.607948547813063 18.041032861241618 a51.51278418027786,51.51278418027786 0 0,0 -0.5304313904834469,0.7105995294115621 l -24.293755890634525 -18.461945270162495" fill="#8bff24" stroke="none" /><path d="M 116.498646956653 112.99209946851258 l 13.539425079795882 10.66181716872539 a38.23340874089433,38.23340874089433 0 0,0 -0.41161375606674233,0.5135514492015394 l -13.353893411674285 -10.89329645150518" fill="#ffd513" stroke="none" /><path d="M 116.27256486870786 113.27417163493432 l 13.514140132614372 11.024016008923239 a38.44020964578506,38.44020964578506 0 0,0 -0.4226665796258366,0.5091291231981796 l -13.322377553094993 -11.25500638923519" fill="#ffd814" stroke="none" /><path d="M 115.80600337817218 113.82643327865902 l 9.724110588601429 8.506246837405605 a33.919541864873665,33.919541864873665 0 0,0 -0.38820293862881355,0.43615011686056904 l -9.576248800324278 -8.672371124007041" fill="#ff9d0e" stroke="none" /><path d="M 115.56566222782051 114.09645910891815 l 33.668495592058896 30.4906122480279 a66.42295708881224,66.42295708881224 0 0,0 -0.7747877109738371,0.8408790378307389 l -33.138661473089336 -31.065642540659972" fill="#37ff77" stroke="none" /><path d="M 115.07121518719521 114.62390073753431 l 19.812083232493105 19.224059572973744 a48.605852793863804,48.605852793863804 0 0,0 -0.5878053330558238,0.5954436990189491 l -19.478237274381748 -19.562243765973356" fill="#acff21" stroke="none" /><path d="M 114.55890576462653 115.13401014063108 l 10.0479305532342 10.4448428572478 a35.49329675109213,35.49329675109213 0 0,0 -0.44394367504024157,0.4197764543176097 l -9.866651043803152 -10.61625394831133" fill="#ffb210" stroke="none" /><path d="M 114.29624159901734 115.38237550388516 l 11.814170750427797 12.711733324553524 a38.3540426020806,38.3540426020806 0 0,0 -0.4874624404886859,0.445285381763505 l -11.593608760472247 -12.913211472903612" fill="#ffd714" stroke="none" /><path d="M 113.75828350139079 115.86535959552629 l 12.754739356333122 14.70812303111653 a40.4682371864135,40.4682371864135 0 0,0 -0.5302004358119473,0.4518483138517488 l -12.499673443944127 -14.925495735191227" fill="#fff116" stroke="none" /><path d="M 113.20401910651253 116.32954008644616 l 2.2810288034094404 2.8209707198349268 a24.627804874045665,24.627804874045665 0 0,0 -0.3319388400198917,0.2637122899367681 l -2.232132470672197 -2.8598169237768207" fill="#ff1c02" stroke="none" /><path d="M 112.63410532772338 116.77436683061366 l 13.228262761187972 17.563232720642382 a42.98758921024485,42.98758921024485 0 0,0 -0.5948971195223768,0.44009066704115674 l -12.923980671247032 -17.78833333642331" fill="#eeff19" stroke="none" /><path d="M 112.34349029814194 116.9893568818739 l 17.23805195443215 23.726143054223183 a50.327125658904336,50.327125658904336 0 0,0 -0.7052332261586068,0.5031651817606663 l -16.82709140042466 -24.01935249782807" fill="#98ff23" stroke="none" /><path d="M 112.04921762599082 117.19931262002967 l 7.107630670329101 10.145585023131225 a33.387546537042255,33.387546537042255 0 0,0 -0.47353575597100617,0.32570221088641244 l -6.931938029735211 -10.266428023382733" fill="#ff960d" stroke="none" /><path d="M 111.7513745106137 117.40417183066458 l 2.37185091806371 3.5127891547849694 a25.238556879822962,25.238556879822962 0 0,0 -0.3621436073895812,0.24000903589047454 l -2.311032611934165 -3.5530962117667624" fill="#ff2503" stroke="none" /><path d="M 111.45004920935366 117.60387380957326 l 15.067331263325025 23.16526273004413 a48.63428791828628,48.63428791828628 0 0,0 -0.7057025034852827,0.45041272688263045 l -14.666346957792813 -23.421189885750568" fill="#abff21" stroke="none" /><path d="M 111.1453310114006 117.79835938074945 l 1.1432859813811416 1.8257523936058708 a23.15417609261179,23.15417609261179 0 0,0 -0.3396175164264045,0.20862081703851382 l -1.1116892650224284 -1.8451616774727626" fill="#ff0601" stroke="none" /><line stroke="#e1ed5e" stroke-width="0.3" x1="143.8653032363475" x2="146.44561519142675" y1="172.8068346515853" y2="177.08958963109032" /><path d="M 144.38136562736335 173.6633856474863 a86.0,86.0 0 0,1 -40.68145358897372,12.25698825130547" fill="none" id="id66" stroke="none" /><text fill="#e1ed5e" style="font-size:6.75px; font-family:Arial;" text-anchor="middle"><textPath startOffset="21.466115282336833" xlink:href="#id66">June</textPath></text><path d="M 110.5260780823613 118.17145234162733 l 8.81086715012092 15.21043747292019 a38.57807691571222,38.57807691571222 0 0,0 -0.5774793356315695,0.32790783805647405 l -8.547739047568152 -15.359848476771292" fill="#ffda14" stroke="none" /><path d="M 110.21172684928248 118.3499491758327 l 8.556119183889297 15.374907151748518 a38.59531032445311,38.59531032445311 0 0,0 -0.5832986221824685,0.31806091666091696 l -8.29019774983818 -15.519908720169205" fill="#ffda14" stroke="none" /><path d="M 109.57404056367764 118.69057910512821 l 8.799645564573813 17.178794097210314 a40.30141778980165,40.30141778980165 0 0,0 -0.6201545558866134,0.310958368518944 l -8.50263710100444 -17.32772030663856" fill="#ffef16" stroke="none" /><path d="M 109.2508944713604 118.85261126421891 l 0.759164026875397 1.5471178845213012 a22.723340874089434,22.723340874089434 0 0,0 -0.3526309015037269,0.16928426206638292 l -0.7324204573714374 -1.559956423087244" fill="#ff0000" stroke="none" /><path d="M 108.92500713936063 119.00905698771935 l 2.7447456639994603 5.845936695519445 a27.458219925650152,27.458219925650152 0 0,0 -0.42956685832537256,0.1971930757332664 l -2.6437108099066684 -5.892316841586786" fill="#ff4506" stroke="none" /><path d="M 108.2653958097858 119.30500536409082 l 11.330905810562665 26.464939185845093 a49.788581635751385,49.788581635751385 0 0,0 -0.7907577603173176,0.330536807944992 l -10.873676590747886 -26.65606103681006" fill="#9eff22" stroke="none" /><path d="M 107.93186726928326 119.44442032107085 l 6.536990014899873 16.024975856138095 a38.30699539621796,38.30699539621796 0 0,0 -0.6126910663690891,0.24380241981079623 l -6.260177872488917 -16.13512512035496" fill="#ffd614" stroke="none" /><path d="M 107.59598834532513 119.57807347666477 l 4.022952984325102 10.368850706407118 a32.12192499911097,32.12192499911097 0 0,0 -0.5172085432716382,0.19556401528951892 l -3.843874220293189 -10.436562971803268" fill="#ff850c" stroke="none" /><path d="M 107.2578585660854 119.70592522655815 l 6.569554309904995 17.837099583028344 a40.00844984120644,40.00844984120644 0 0,0 -0.6482901376423307,0.2324537783002388 l -6.26154461163293 -17.94754090236854" fill="#ffec16" stroke="none" /><path d="M 106.57524785965236 119.94407469862006 l 9.109738821411524 27.631705361865443 a50.09464697498967,50.09464697498967 0 0,0 -0.8212627466044589,0.26294239684000253 l -8.632754729716124 -27.78442060536515" fill="#9bff22" stroke="none" /><path d="M 106.2309692047433 120.05430185196036 l 7.769668451556359 25.006587466128185 a47.18581991361411,47.18581991361411 0 0,0 -0.7777234820789353,0.23432170538737865 l -7.338069995037178 -25.136624540621288" fill="#bcff1f" stroke="none" /><path d="M 105.88484417918355 120.15858648285463 l 3.1663500620252503 10.846360518110377 a32.29908444096737,32.29908444096737 0 0,0 -0.5350402274176201,0.15120771264059846 l -2.9791786665030244 -10.899257024089493" fill="#ff880c" stroke="none" /><path d="M 105.53697534728816 120.25689768951611 l 4.552942917465157 16.65683754768195 a38.26787555837612,38.26787555837612 0 0,0 -0.6369042019501313,0.16821218846724084 l -4.265548272703528 -16.732741085452773" fill="#ffd614" stroke="none" /><path d="M 104.83641907484287 120.43548508189849 l 4.40811626161482 18.625762720206495 a40.140285418074285,40.140285418074285 0 0,0 -0.6737448479757476,0.15334213387437917 l -4.086851264246211 -18.69888158765856" fill="#ffed16" stroke="none" /><path d="M 103.7750983002368 120.6578951692458 l 1.8092267730619644 9.900355975621197 a31.064310704682292,31.064310704682292 0 0,0 -0.526837438475448,0.09159744171900247 l -1.6385403631144666 -9.930031995861206" fill="#ff770a" stroke="none" /><path d="M 103.41894727170886 120.7198165907248 l 0.9043676630867907 5.480731529496475 a26.55484463945247,26.55484463945247 0 0,0 -0.45163991203143045,0.07053686581539494 l -0.8098918874468432 -5.495486702658976" fill="#ff3805" stroke="none" /><path d="M 103.06178313531738 120.77559828337769 l 2.51613481863081 17.073125008664103 a38.257535513131586,38.257535513131586 0 0,0 -0.6523299828050901,0.09040699157244489 l -2.2218762446388896 -17.11390656572915" fill="#ffd614" stroke="none" /><path d="M 102.70371172650421 120.8252237178851 l 0.3193031859057143 2.459419107124106 a23.4800598519021,23.4800598519021 0 0,0 -0.4012547421885682,0.04858636125531052 l -0.2769210206657658 -2.4645509971047677" fill="#ff0b01" stroke="none" /><path d="M 102.34483914955558 120.86867818915974 l 1.9281138399492563 17.159892287533726 a38.26787555837612,38.26787555837612 0 0,0 -0.6552324118069155,0.06791751856748214 l -1.6324488315367383 -17.190539174556967" fill="#ffd614" stroke="none" /><path d="M 101.98527174616119 120.90594882070398 l 0.301693487648676 3.1769900642160285 a24.191282630638813,24.191282630638813 0 0,0 -0.41488704288309114,0.03579819981358493 l -0.24696212702404313 -3.1817125163082767" fill="#ff1602" stroke="none" /><path d="M 101.62511606390274 120.93702456842531 l 0.4692787193931325 6.04590668667543 a27.064091867745898,27.064091867745898 0 0,0 -0.4647771130099659,0.03205375090067545 l -0.3651388456042363 -6.053088782092391" fill="#ff3f05" stroke="none" /><path d="M 101.26447882468166 120.96189622390904 l 0.7263760143314917 12.041497520361121 a33.06338611862603,33.06338611862603 0 0,0 -0.5683941374988633,0.029379484479499673 l -0.5189938084191489 -12.052216811602824" fill="#ff920d" stroke="none" /><path d="M 100.90346689309514 120.98055641714683 l 0.7429025657656961 17.251887493180046 a38.26787555837612,38.26787555837612 0 0,0 -0.6583526011375378,0.02267499473228728 l -0.4458296129535061 -17.26211928633843" fill="#ffd614" stroke="none" /><line stroke="#e1ed5e" stroke-width="0.3" x1="102.19456741930631" x2="102.32365962044197" y1="184.97166512339345" y2="189.96999836594603" /><path d="M 102.22038585953345 185.97133177190398 a86.0,86.0 0 0,1 -42.740103519485714,-10.115201625700543" fill="none" id="id67" stroke="none" /><text fill="#e1ed5e" style="font-size:6.75px; font-family:Arial;" text-anchor="middle"><textPath startOffset="22.20632615414155" xlink:href="#id67">July</textPath></text><path d="M 100.54218724476979 120.99299961872073 l 0.08119260256662257 3.1437041191327713 a24.144752427038398,24.144752427038398 0 0,0 -0.4155660383187389,0.007154346217443399 l -0.027066874355215723 -3.144635942629374" fill="#ff1502" stroke="none" /><path d="M 100.18074693466247 120.99922214144158 l 0.1489212069960356 17.301701481805626 a38.302342375857904,38.302342375857904 0 0,0 -0.6593362833169701,0.0 l 0.14892120699602368 -17.301701481805626" fill="#ffd614" stroke="none" /><path d="M 99.81925306533755 120.99922214144158 l -0.14046651695740484 16.319433568993958 a37.32003807762693,37.32003807762693 0 0,0 -0.6423317207616628,-0.011058323089555249 l 0.42135792761173557 -16.31459776862524" fill="#ffca12" stroke="none" /><path d="M 98.37488393609728 120.93702456842531 l -1.5227552989378985 19.6182696200775 a40.67727843444055,40.67727843444055 0 0,0 -0.697626331760629,-0.06019413536282095 l 1.8602259484400694 -19.589151232436016" fill="#fff417" stroke="none" /><path d="M 98.01472825383883 120.90594882070398 l -1.6308196410860913 17.173382947835854 a38.250642149635226,38.250642149635226 0 0,0 -0.6549373369482373,-0.06788693285188584 l 1.926189574639922 -17.14276664652821" fill="#ffd614" stroke="none" /><path d="M 97.65516085044442 120.86867818915974 l -0.19402367113980346 1.7267783825868517 a22.737644603344375,22.737644603344375 0 0,0 -0.3885674815497079,-0.0470501106794886 l 0.2237185757409007 -1.7231827431820146" fill="#ff0000" stroke="none" /><path d="M 97.2962882734958 120.8252237178851 l -8.111135179512582 62.47567115365527 a84.0,84.0 0 0,0 -1.4322856352526758,-0.19850173802958038 l 9.185349405952088 -62.32679485013308" fill="#4dd2ff" stroke="none" /><line stroke="#e1ed5e" stroke-width="0.3" x1="58.666819895761336" x2="56.23545636021788" y1="174.27360380694188" y2="178.64263932499728" /><path d="M 58.180547188652646 175.14741091055294 a86.0,86.0 0 0,1 -31.652253787137756,-30.449443065178592" fill="none" id="id68" stroke="none" /><text fill="#e1ed5e" style="font-size:6.75px; font-family:Arial;" text-anchor="middle"><textPath startOffset="22.20632615414155" xlink:href="#id68">August</textPath></text><line stroke="#e1ed5e" stroke-width="0.3" x1="26.63291911575756" x2="22.317208475507996" y1="142.92168965132927" y2="145.44649492493687" /><path d="M 25.769776987707644 143.4266507060508 a86.0,86.0 0 0,1 -11.730757126820373,-40.83630448921669" fill="none" id="id69" stroke="none" /><text fill="#e1ed5e" style="font-size:6.75px; font-family:Arial;" text-anchor="middle"><textPath startOffset="21.46611528233685" xlink:href="#id69">September</textPath></text><line stroke="#e1ed5e" stroke-width="0.3" x1="15.007084014347285" x2="10.007500721073583" y1="101.09737516637583" y2="101.16192664675087" /><path d="M 14.007167355692545 101.11028546245083 a86.0,86.0 0 0,1 10.666146001902534,-42.60595125391555" fill="none" id="id70" stroke="none" /><text fill="#e1ed5e" style="font-size:6.75px; font-family:Arial;" text-anchor="middle"><textPath startOffset="22.20632615414155" xlink:href="#id70">October</textPath></text><line stroke="#e1ed5e" stroke-width="0.3" x1="26.266209847984243" x2="21.928928074336255" y1="57.711370442889674" y2="55.22380399835377" /><path d="M 25.398753493254645 57.213857153982495 a86.0,86.0 0 0,1 29.58750427330803,-30.492523968695096" fill="none" id="id71" stroke="none" /><text fill="#e1ed5e" style="font-size:6.75px; font-family:Arial;" text-anchor="middle"><textPath startOffset="21.46611528233685" xlink:href="#id71">November</textPath></text><line stroke="#e1ed5e" stroke-width="0.3" x1="56.762969772571076" x2="54.21961505331055" y1="26.818313649435495" y2="22.513508569990535" /><path d="M 56.25429882871897 25.957352633546506 a86.0,86.0 0 0,1 42.265352541879196,-11.944610805530505" fill="none" id="id72" stroke="none" /><text fill="#e1ed5e" style="font-size:6.75px; font-family:Arial;" text-anchor="middle"><textPath startOffset="22.20632615414155" xlink:href="#id72">December</textPath></text></svg>