<?xml version="1.0" encoding="utf-8" ?>
<svg baseProfile="full" height="200mm" version="1.1" viewBox="0,0,200,200" width="200mm" xmlns="http://www.w3.org/2000/svg" xmlns:ev="http://www.w3.org/2001/xml-events" xmlns:xlink="http://www.w3.org/1999/xlink"><defs /><rect fill="#1a1a1a" height="200" width="200" x="0" y="0" /><text alignment-baseline="middle" fill="#e1ed5e" style="dominant-baseline: central; font-size:9.0px; font-family:Arial;" text-anchor="middle" x="100.0" y="100.0">2025</text><line stroke="#e1ed5e" stroke-width="0.3" x1="100.0" x2="100.0" y1="15.0" y2="10.0" /><path d="M 100.0 14.0 a86.0,86.0 0 0,1 42.46469731375804,11.215312516191453" fill="none" id="id49" stroke="none" /><text fill="#e1ed5e" style="font-size:6.75px; font-family:Arial;" text-anchor="middle"><textPath startOffset="22.20632615414155" xlink:href="#id49">January</textPath></text><path d="M 100.0 79.0 l 0.0 -49.70608425309433 a70.70608425309433,70.70608425309433 0 0,0 1.2170890106329673,0.010475869363231919 l -0.8556085313604388 49.69871976033966" fill="#3cffa5" stroke="none" /><path d="M 101.44485096284872 79.0497635885617 l 2.6453236956859634 -38.357005832720866 a59.44811612948468,59.44811612948468 0 0,0 1.0202706798568155,0.07919264105295463 l -3.30518456490512 38.30578792947944" fill="#3cff2e" stroke="none" /><path d="M 102.16513564639614 79.11191278185805 l 2.684996289017435 -25.903428618311363 a47.042212257333084,47.042212257333084 0 0,0 0.8047204277808082,0.09041971640004119 l -3.1304834203079683 25.85337294844072" fill="#c3ff1e" stroke="none" /><path d="M 102.88285421437855 79.19881850522331 l 3.5412814540971533 -25.55205111772904 a46.79627862037798,46.79627862037798 0 0,0 0.7969428969119274,0.11744866685876389 l -3.9805933314377366 25.487307966709306" fill="#c6ff1e" stroke="none" /><path d="M 103.2404852339499 79.25152402106235 l 3.940446911029519 -25.230254785058204 a46.53610930383864,46.53610930383864 0 0,0 0.7903843356480098,0.13042018765623836 l -4.374160452816404 25.15868833446234" fill="#c9ff1d" stroke="none" /><path d="M 107.76421540070413 80.48803036053334 l 9.53161881760907 -23.95356740969483 a46.780324841533584,46.780324841533584 0 0,0 0.7456252052550644,0.30415924275748984 l -9.94252789245252 23.78594728075376" fill="#c6ff1e" stroke="none" /><path d="M 109.08828744355905 81.06846463323043 l 11.787839411422702 -24.55489002752721 a48.23776389965677,48.23776389965677 0 0,0 0.7454543047907402,0.3657911898883155 l -12.208764983223874 24.348343677504065" fill="#b5ff20" stroke="none" /><path d="M 110.05341064243156 81.56283822128135 l 15.037051571931011 -27.576765971987907 a52.41004523159276,52.41004523159276 0 0,0 0.7883367037764384,0.43870852213754863 l -15.509512364779484 27.31384205229018" fill="#86ff25" stroke="none" /><line stroke="#e1ed5e" stroke-width="0.3" x1="143.23703022742887" x2="145.7803849466894" y1="26.81831364943548" y2="22.513508569990506" /><path d="M 143.74570117128098 25.957352633546492 a86.0,86.0 0 0,1 28.547481713284135,27.462654790039103" fill="none" id="id50" stroke="none" /><text fill="#e1ed5e" style="font-size:6.75px; font-family:Arial;" text-anchor="middle"><textPath startOffset="19.985693538727396" xlink:href="#id50">February</textPath></text><path d="M 111.2981086023043 82.29822771554956 l 13.333166994767005 -20.89028299159548 a45.78260005688038,45.78260005688038 0 0,0 0.6606494029792975,0.429704748856437 l -13.690783423530583 20.657679318579515" fill="#d2ff1c" stroke="none" /><path d="M 114.94478906791727 85.2469230424477 l 11.677801665792801 -11.527998547689329 a37.40932059108848,37.40932059108848 0 0,0 0.4484410887316239,0.4621579610225101 l -11.874507018227535 11.325276391116706" fill="#ffc412" stroke="none" /><path d="M 116.60985879189232 87.15038557335679 l 17.231922040410744 -13.330851082089588 a42.78648038990334,42.78648038990334 0 0,0 0.445639652114334,0.5864095448896092 l -17.45883763274919 13.032256761318944" fill="#f6ff19" stroke="none" /><path d="M 117.04232023915458 87.72973835380427 l 17.69651470506878 -12.741273641723096 a42.80611581001952,42.80611581001952 0 0,0 0.42538553165545534,0.6016776671831437 l -17.913212856528116 12.434769474208158" fill="#f6ff19" stroke="none" /><path d="M 117.45458315368197 88.32363383020206 l 10.336923492732925 -6.914957676595996 a33.43658421608312,33.43658421608312 0 0,0 0.31590146717185674,0.481139607256645 l -10.454421595262707 6.736000005361678" fill="#ff8f0d" stroke="none" /><line stroke="#e1ed5e" stroke-width="0.3" x1="172.23445277983987" x2="176.4835382374775" y1="55.19839476539836" y2="52.563006222186495" /><path d="M 173.08426987136738 54.67131705675599 a86.0,86.0 0 0,1 12.851231095245387,41.99856678651699" fill="none" id="id51" stroke="none" /><text fill="#e1ed5e" style="font-size:6.75px; font-family:Arial;" text-anchor="middle"><textPath startOffset="22.20632615414155" xlink:href="#id51">March</textPath></text><path d="M 118.03404312379186 89.2402003453031 l 31.627990294073108 -18.870468297592186 a57.82966662640886,57.82966662640886 0 0,0 0.502678389107482,0.8592403125785915 l -31.948128357650916 18.3232485726597" fill="#4cff2c" stroke="none" /><path d="M 118.89224826269711 90.83032412892265 l 19.611493117255048 -9.518773664867124 a42.79948885573031,42.79948885573031 0 0,0 0.3159861930877169,0.6655475091689002 l -19.77243750418452 9.179783740057685" fill="#f6ff19" stroke="none" /><path d="M 119.04729006885535 91.15688171328212 l 29.681697422739088 -13.780372972270522 a53.724636608370766,53.724636608370766 0 0,0 0.3822064872036543,0.8421413311635078 l -29.91450622690609 13.26740963226495" fill="#77ff26" stroke="none" /><path d="M 119.196687751892 91.48605970444005 l 19.921689372853756 -8.835486418246871 a42.79310734419255,42.79310734419255 0 0,0 0.2928460514314227,0.6759290624698095 l -20.07082613412786 8.491258211190459" fill="#f6ff19" stroke="none" /><path d="M 119.47837535516314 92.15188598940014 l 20.218340985729697 -8.146256670176049 a42.79777075647014,42.79777075647014 0 0,0 0.2694353021280805,0.6856834552026895 l -20.355569837739477 7.797024210077575" fill="#f6ff19" stroke="none" /><path d="M 120.08093135843002 93.85539295169968 l 34.660864627931815 -10.605951949711962 a57.24723097721278,57.24723097721278 0 0,0 0.28022275005436925,0.9447718069921754 l -34.83829327509788 10.007750755973255" fill="#52ff2b" stroke="none" /><path d="M 120.28053869075195 94.5502522615342 l 25.79378842588139 -6.93125770887501 a47.70883477027727,47.70883477027727 0 0,0 0.20629224758737244,0.7949281818580622 l -25.909277005339067 6.486233101468097" fill="#bbff1f" stroke="none" /><path d="M 120.37134235888165 94.90015583598534 l 25.912848432710025 -6.487127187027807 a47.71251641154905,47.71251641154905 0 0,0 0.1925931623198433,0.7984229953195854 l -26.020674395290687 6.040118960048815" fill="#bbff1f" stroke="none" /><path d="M 120.45610955862082 95.25157060432595 l 26.035258634941098 -6.043504365864673 a47.72748841938764,47.72748841938764 0 0,0 0.17887720156671696,0.8018714203291071 l -26.135430223509854 5.594454775985602" fill="#bbff1f" stroke="none" /><path d="M 120.67395015179393 96.31383870115 l 26.289799131974164 -4.687466081870874 a47.70441680075113,47.70441680075113 0 0,0 0.13718004418384566,0.809644386090115 l -26.366591037678234 4.234235907464921" fill="#bbff1f" stroke="none" /><path d="M 120.78858239683441 97.02765380044208 l 26.446260710655434 -3.7812795993152655 a47.71521628181503,47.71521628181503 0 0,0 0.10925421450715923,0.8140707999138957 l -26.50743092422043 3.3254904573367052" fill="#bbff1f" stroke="none" /><path d="M 120.83666639777658 97.38593545837742 l 26.57415917148246 -3.333861851386135 a47.78246759571293,47.78246759571293 0 0,0 0.09535934997875145,0.8169806756443118 l -26.6276088744648 2.8759374374169706" fill="#baff1f" stroke="none" /><path d="M 120.96714384426684 98.82574320788733 l 51.937258584452486 -2.9087261054481437 a73.01864585727698,73.01864585727698 0 0,0 0.05948026487115046,1.255534382309106 l -51.97963245755714 2.014280616516038" fill="#3fffbe" stroke="none" /><path d="M 120.98425023603335 99.18683210126433 l 15.308555798090962 -0.5932271113330224 a36.320045660143606,36.320045660143606 0 0,0 0.018831607358693624,0.6249293687569996 l -15.3164990999053 0.3296275951510237" fill="#ffb510" stroke="none" /><line stroke="#e1ed5e" stroke-width="0.3" x1="184.98032266829074" x2="189.97916517819016" y1="98.17113171792111" y2="98.06355123074" /><path d="M 185.9800911702706 98.14961562048488 a86.0,86.0 0 0,1 -9.607161424134198,41.387399972396054" fill="none" id="id52" stroke="none" /><text fill="#e1ed5e" style="font-size:6.75px; font-family:Arial;" text-anchor="middle"><textPath startOffset="21.466115282336823" xlink:href="#id52">April</textPath></text><path d="M 120.99513854157772 99.54816195383933 l 15.218099341196876 -0.3275099261187643 a36.221623116811266,36.221623116811266 0 0,0 0.008049812250997525,0.623466830044107 l -15.22148216056559 0.06550683801419463" fill="#ffb410" stroke="none" /><path d="M 120.99824983174949 100.27111621757518 l 53.43162431230849 0.6898755847998429 a74.43607774691345,74.43607774691345 0 0,0 -0.02756948317568592,1.2810455509701584 l -53.4118327664478 -1.609510951560116" fill="#41ffcd" stroke="none" /><path d="M 120.9764740272857 100.99374915477107 l 33.74930705256093 1.598855237251296 a54.78715827940735,54.78715827940735 0 0,0 -0.05273563777758734,0.9416302383164761 l -33.71678506389581 -2.1795571919031955" fill="#6cff28" stroke="none" /><path d="M 120.95626037817324 101.35467743843564 l 55.539449920554524 3.590241693544938 a76.65537110554428,76.65537110554428 0 0,0 -0.0964523191176559,1.3160152626360944 l -55.46942104277253 -4.545730092677803" fill="#44ffe4" stroke="none" /><path d="M 120.92983693683757 101.71520430193887 l 42.6465435686657 3.49489273196656 a63.789507517171245,63.789507517171245 0 0,0 -0.0991027826682976,1.093590948642977 l -42.58006618972033 -4.228465069158108" fill="#33ff55" stroke="none" /><path d="M 120.89721153311464 102.0752229133903 l 37.05434908323497 3.6797270361377734 a58.23661070831661,58.23661070831661 0 0,0 -0.1076481521940975,0.9966881947396444 l -36.98551862953982 -4.317011552762209" fill="#48ff2c" stroke="none" /><path d="M 120.8583938346157 102.4346265915055 l 34.78289681440396 4.059917852994185 a56.019035448945964,56.019035448945964 0 0,0 -0.12003676422142295,0.95681111607057 l -34.70785854093569 -4.65804672335215" fill="#5fff29" stroke="none" /><path d="M 120.81339534386255 102.79330883721812 l 46.77826395275879 6.277982805313573 a68.1976593332528,68.1976593332528 0 0,0 -0.16616180753487686,1.1621352948924768 l -46.66326809420731 -7.082263572186459" fill="#39ff89" stroke="none" /><path d="M 120.76222939487914 103.15116336523771 l 30.73384901749151 4.664594406251612 a52.085815356924414,52.085815356924414 0 0,0 -0.14216512185336996,0.8852623494881409 l -30.649002141276853 -5.192935985432958" fill="#89ff24" stroke="none" /><path d="M 120.64145759157962 103.86396538481128 l 24.155617516210924 4.521796463126484 a45.57520093190327,45.57520093190327 0 0,0 -0.1509842754038136,0.7698655674625184 l -24.074203307831446 -4.936925757656947" fill="#d4ff1c" stroke="none" /><path d="M 120.5718875245553 104.21870165774334 l 42.61975041387438 8.740083354480905 a64.50669123691458,64.50669123691458 0 0,0 -0.23242670481650882,1.0858201860684482 l -42.46298967033343 -9.472417359965522" fill="#34ff5e" stroke="none" /><path d="M 120.49622156327973 104.57218783832717 l 35.25119497545147 7.863648646441948 a57.11763720444602,57.11763720444602 0 0,0 -0.22232206383216277,0.9577576322799589 l -35.11061234568876 -8.469274936070471" fill="#53ff2b" stroke="none" /><path d="M 120.41448212921028 104.9243191809786 l 32.5702449074133 7.856495242524692 a54.504408229734416,54.504408229734416 0 0,0 -0.22785096969589777,0.9101513617279677 l -32.43018262342234 -8.415974443650056" fill="#6fff27" stroke="none" /><path d="M 120.32669344350535 105.2749913415812 l 44.015682790549164 11.422533933482287 a66.47366944705254,66.47366944705254 0 0,0 -0.29695346683089663,1.1050743194789325 l -43.81254124737649 -12.178499186136767" fill="#37ff75" stroke="none" /><path d="M 120.23288151984713 105.62410040840565 l 26.116741158413067 7.259627081351367 a48.10694291313274,48.10694291313274 0 0,0 -0.2286393866490822,0.7959236995950381 l -25.987909134877885 -7.708108256450987" fill="#b6ff1f" stroke="none" /><path d="M 120.13307415673323 105.97154293290107 l 16.52255075392822 4.900648575573951 a38.234008235967885,38.234008235967885 0 0,0 -0.1925778310069251,0.6293554942093619 l -16.43574615041516 -5.184331042335369" fill="#ffce13" stroke="none" /><path d="M 120.02730092923936 106.31721596034902 l 37.46402590387158 11.81728597453373 a60.283603255427984,60.283603255427984 0 0,0 -0.3206736009663574,0.9869318625008716 l -37.255060051888975 -12.460416737012398" fill="#33ff2f" stroke="none" /><path d="M 119.9155931802556 106.66101706037122 l 45.938720801493915 15.364774738105696 a69.44009054110387,69.44009054110387 0 0,0 -0.3888948260840974,1.1303104022333228 l -45.66743514446659 -16.15325784342832" fill="#3aff97" stroke="none" /><path d="M 119.79798401119884 107.00284435728193 l 26.051018204833255 9.214636486925741 a48.63268128674336,48.63268128674336 0 0,0 -0.2859502981513294,0.786812409746179 l -25.888543645676698 -9.661696693678051" fill="#b0ff20" stroke="none" /><path d="M 119.67450827220406 107.3425965602758 l 32.517103544864646 12.135498856455412 a55.707814040104566,55.707814040104566 0 0,0 -0.3430161441298419,0.895506912532429 l -32.3033931211413 -12.693429335820984" fill="#62ff29" stroke="none" /><path d="M 119.54520255179757 107.68017299344265 l 15.830396484727633 6.220461682875366 a38.00869179013476,38.00869179013476 0 0,0 -0.24451785220684363,0.6068732564142786 l -15.720976018263398 -6.492034307132458" fill="#ffcb13" stroke="none" /><path d="M 119.41010516605496 108.01547362559984 l 15.658589392314267 6.4662715227164345 a37.9411950334854,37.9411950334854 0 0,0 -0.25447524251703146,0.6015043025388442 l -15.544963168604927 -6.734850350921443" fill="#ffcb12" stroke="none" /><path d="M 119.26925614724726 108.34839909993367 l 34.00194658799673 14.731332549740173 a58.05596484324779,58.05596484324779 0 0,0 -0.40517234439551203,0.9135566742368225 l -33.743333158869945 -15.314437560469683" fill="#4aff2c" stroke="none" /><path d="M 119.12269723197855 108.67885076344098 l 15.061082500376015 6.835483811250601 a37.5396506921096,37.5396506921096 0 0,0 -0.27211846239548926,0.5861189592050046 l -14.941189421140693 -7.093722837734436" fill="#ffc512" stroke="none" /><path d="M 118.97047184881838 109.00673069616215 l 40.582689012852114 19.267699495182818 a65.92436856930252,65.92436856930252 0 0,0 -0.4955212803997947,1.0209206061787073 l -40.2450144758376 -19.9634090573268" fill="#36ff6f" stroke="none" /><path d="M 118.81262510543309 109.33194174019688 l 49.15180253918774 24.381592422680747 a75.86676354512835,75.86676354512835 0 0,0 -0.5903927341693079,1.1649008750892478 l -48.724831135232165 -25.224047509472687" fill="#43ffdc" stroke="none" /><line stroke="#e1ed5e" stroke-width="0.3" x1="174.80103733775053" x2="179.2010983576182" y1="140.37084112569926" y2="142.7455964860345" /><path d="M 175.68104954172406 140.8457921977663 a86.0,86.0 0 0,1 -30.038265399797805,32.042727171017184" fill="none" id="id53" stroke="none" /><text fill="#e1ed5e" style="font-size:6.75px; font-family:Arial;" text-anchor="middle"><textPath startOffset="22.206326154141568" xlink:href="#id53">May</textPath></text><path d="M 118.30583269289576 110.29060199501025 l 11.77196288666955 6.6175948835018685 a34.50450562765166,34.50450562765166 0 0,0 -0.2955031648039113,0.5152346758715067 l -11.656307725713258 -6.819249405231691" fill="#ff9d0e" stroke="none" /><path d="M 117.94076556474637 110.91462005526583 l 21.004574905460228 12.77854914764394 a45.58624585571862,45.58624585571862 0 0,0 -0.4136091323954372,0.6668696174362551 l -20.781501133396826 -13.13821509644547" fill="#d4ff1c" stroke="none" /><path d="M 117.75023020441432 111.22182372390056 l 29.426369930041023 18.603563581225323 a55.81384530873192,55.81384530873192 0 0,0 -0.5203847365559688,0.8076486673642369 l -29.101780330108003 -19.10733384851101" fill="#61ff29" stroke="none" /><path d="M 117.55443506779139 111.5257021239791 l 14.384598380890377 9.444484853597388 a38.20799130431395,38.20799130431395 0 0,0 -0.36569940955529895,0.546670998537708 l -14.219895865924357 -9.690692766340902" fill="#ffce13" stroke="none" /><path d="M 117.35343817320211 111.8261652097733 l 29.553288070515446 20.140220267915172 a56.76346331410049,56.76346331410049 0 0,0 -0.5571985159001922,0.8026860199832715 l -29.20222864745312 -20.645947550085463" fill="#57ff2a" stroke="none" /><path d="M 117.14729908036423 112.12312394758627 l 16.876607454350278 11.931745228502823 a41.66848865703855,41.66848865703855 0 0,0 -0.41910603931116774,0.5821016325531351 l -16.668721622663508 -12.22048046650709" fill="#fffa17" stroke="none" /><path d="M 116.93607887273984 112.41649034213515 l 50.80823661821952 37.24947102640542 a84.0,84.0 0 0,0 -0.8649549332196318,1.15874848196274 l -50.159520418304794 -38.11853238787748" fill="#4dd2ff" stroke="none" /><path d="M 116.498646956653 112.99209946851258 l 4.24230536638797 3.3406650521539727 a26.399740531948463,26.399740531948463 0 0,0 -0.28421468860347665,0.3546015240389894 l -4.18417276572964 -3.413194409771213" fill="#ff2c04" stroke="none" /><path d="M 116.27256486870786 113.27417163493432 l 36.497397897432634 29.77236396523163 a68.10046400367774,68.10046400367774 0 0,0 -0.7487937879788071,0.9019703546643739 l -35.979508109560285 -30.396195577009774" fill="#39ff88" stroke="none" /><path d="M 116.0416608686014 113.55231037782055 l 30.005859814204886 25.349540093533435 a60.2804124996591,60.2804124996591 0 0,0 -0.6764538443670439,0.7868686446736305 l -29.565063460267062 -25.862285837368596" fill="#33ff2f" stroke="none" /><path d="M 115.80600337817218 113.82643327865902 l 11.993655390441823 10.491550081039508 a36.93487975253137,36.93487975253137 0 0,0 -0.4227129279916042,0.4749224557475497 l -11.811283612801882 -10.696446706527924" fill="#ffbd11" stroke="none" /><path d="M 115.56566222782051 114.09645910891815 l 30.095186303222867 27.25457850038777 a61.60212171622922,61.60212171622922 0 0,0 -0.7185552852130994,0.7798498457064277 l -29.621584610014047 -27.76857960089553" fill="#31ff3b" stroke="none" /><path d="M 115.07121518719521 114.62390073753431 l 22.49593723939277 21.828256653530367 a52.345493787960834,52.345493787960834 0 0,0 -0.6330299468357085,0.6412559940109043 l -22.116866667501526 -22.212253141521938" fill="#86ff25" stroke="none" /><path d="M 114.81725581225074 114.88116024355365 l 1.7318038264428426 1.7392728166566405 a23.45442751452203,23.45442751452203 0 0,0 -0.28854535549405946,0.2824023610979472 l -1.701608518572989 -1.7688252806771596" fill="#ff0000" stroke="none" /><path d="M 114.55890576462653 115.13401014063108 l 29.835323121251335 31.01387494128102 a64.03495026862345,64.03495026862345 0 0,0 -0.8009374658159099,0.7573363659249294 l -29.297049821044617 -31.52284594395187" fill="#34ff58" stroke="none" /><path d="M 114.29624159901734 115.38237550388516 l 27.189031042571866 29.254673837659404 a60.93844451630246,60.93844451630246 0 0,0 -0.7744999188661733,0.7074873126684151 l -26.68143157423883 -29.718353916914403" fill="#30ff33" stroke="none" /><path d="M 114.0293411484842 115.62618273729858 l 10.23280124644757 11.397514715701575 a36.31710034712618,36.31710034712618 0 0,0 -0.4687632271117795,0.41362904576029325 l -10.035095666429202 -11.571966903234157" fill="#ffb510" stroke="none" /><path d="M 113.75828350139079 115.86535959552629 l 13.56392581737284 15.641236103174442 a41.70334152774477,41.70334152774477 0 0,0 -0.5463823331609853,0.4656388778313647 l -13.292678007634809 -15.872399371228754" fill="#fffa17" stroke="none" /><path d="M 113.48314897796784 116.09983520530334 l 25.04997929385095 29.911450150574996 a60.015334328090724,60.015334328090724 0 0,0 -0.7977177407784453,0.6564673923133706 l -24.531391424527815 -30.338212661745544" fill="#36ff2e" stroke="none" /><path d="M 113.20401910651253 116.32954008644616 l 3.1636681421172765 3.9125394571290943 a26.03157640477016,26.03157640477016 0 0,0 -0.3508591740059995,0.27874374754367526 l -3.095851475393926 -3.9664171186778954" fill="#ff2603" stroke="none" /><path d="M 112.63410532772338 116.77436683061366 l 30.007298368343147 39.84084486946141 a70.87715785085652,70.87715785085652 0 0,0 -0.9808555869273693,0.7256135142635773 l -29.317057810997213 -40.35146833246475" fill="#3cffa7" stroke="none" /><path d="M 112.34349029814194 116.9893568818739 l 23.634211613987222 32.52970157008183 a61.20892242840279,61.20892242840279 0 0,0 -0.857719674404592,0.6119602138178681 l -23.070764611733747 -32.93170604574392" fill="#30ff36" stroke="none" /><path d="M 112.04921762599082 117.19931262002967 l 18.655799157900603 26.629689317013522 a53.51429217037623,53.51429217037623 0 0,0 -0.7589934998679095,0.5220426500813808 l -18.19464877340981 -26.946872756459996" fill="#7aff26" stroke="none" /><line stroke="#e1ed5e" stroke-width="0.3" x1="143.8653032363475" x2="146.44561519142675" y1="172.8068346515853" y2="177.08958963109032" /><path d="M 144.38136562736335 173.6633856474863 a86.0,86.0 0 0,1 -40.68145358897372,12.25698825130547" fill="none" id="id54" stroke="none" /><text fill="#e1ed5e" style="font-size:6.75px; font-family:Arial;" text-anchor="middle"><textPath startOffset="21.466115282336833" xlink:href="#id54">June</textPath></text><line stroke="#e1ed5e" stroke-width="0.3" x1="102.19456741930631" x2="102.32365962044197" y1="184.97166512339345" y2="189.96999836594603" /><path d="M 102.22038585953345 185.97133177190398 a86.0,86.0 0 0,1 -42.740103519485714,-10.115201625700543" fill="none" id="id55" stroke="none" /><text fill="#e1ed5e" style="font-size:6.75px; font-family:Arial;" text-anchor="middle"><textPath startOffset="22.20632615414155" xlink:href="#id55">July</textPath></text><line stroke="#e1ed5e" stroke-width="0.3" x1="58.666819895761336" x2="56.23545636021788" y1="174.27360380694188" y2="178.64263932499728" /><path d="M 58.180547188652646 175.14741091055294 a86.0,86.0 0 0,1 -31.652253787137756,-30.449443065178592" fill="none" id="id56" stroke="none" /><text fill="#e1ed5e" style="font-size:6.75px; font-family:Arial;" text-anchor="middle"><textPath startOffset="22.20632615414155" xlink:href="#id56">August</textPath></text><line stroke="#e1ed5e" stroke-width="0.3" x1="26.63291911575756" x2="22.317208475507996" y1="142.92168965132927" y2="145.44649492493687" /><path d="M 25.769776987707644 143.4266507060508 a86.0,86.0 0 0,1 -11.730757126820373,-40.83630448921669" fill="none" id="id57" stroke="none" /><text fill="#e1ed5e" style="font-size:6.75px; font-family:Arial;" text-anchor="middle"><textPath startOffset="21.46611528233685" xlink:href="#id57">September</textPath></text><line stroke="#e1ed5e" stroke-width="0.3" x1="15.007084014347285" x2="10.007500721073583" y1="101.09737516637583" y2="101.16192664675087" /><path d="M 14.007167355692545 101.11028546245083 a86.0,86.0 0 0,1 10.666146001902534,-42.60595125391555" fill="none" id="id58" stroke="none" /><text fill="#e1ed5e" style="font-size:6.75px; font-family:Arial;" text-anchor="middle"><textPath startOffset="22.20632615414155" xlink:href="#id58">October</textPath></text><line stroke="#e1ed5e" stroke-width="0.3" x1="26.266209847984243" x2="21.928928074336255" y1="57.711370442889674" y2="55.22380399835377" /><path d="M 25.398753493254645 57.213857153982495 a86.0,86.0 0 0,1 29.58750427330803,-30.492523968695096" fill="none" id="id59" stroke="none" /><text fill="#e1ed5e" style="font-size:6.75px; font-family:Arial;" text-anchor="middle"><textPath startOffset="21.46611528233685" xlink:href="#id59">November</textPath></text><line stroke="#e1ed5e" stroke-width="0.3" x1="56.762969772571076" x2="54.21961505331055" y1="26.818313649435495" y2="22.513508569990535" /><path d="M 56.25429882871897 25.957352633546506 a86.0,86.0 0 0,1 42.265352541879196,-11.944610805530505" fill="none" id="id60" stroke="none" /><text fill="#e1ed5e" style="font-size:6.75px; font-family:Arial;" text-anchor="middle"><textPath startOffset="22.20632615414155" xlink:href="#id60">December</textPath></text></svg>