<?xml version="1.0" encoding="utf-8" ?>
<svg baseProfile="full" height="200mm" version="1.1" viewBox="0,0,200,200" width="200mm" xmlns="http://www.w3.org/2000/svg" xmlns:ev="http://www.w3.org/2001/xml-events" xmlns:xlink="http://www.w3.org/1999/xlink"><defs /><rect fill="#1a1a1a" height="200" width="200" x="0" y="0" /><text alignment-baseline="middle" fill="#e1ed5e" style="dominant-baseline: central; font-size:9.0px; font-family:Arial;" text-anchor="middle" x="100.0" y="100.0">2026</text><line stroke="#e1ed5e" stroke-width="0.3" x1="100.0" x2="100.0" y1="15.0" y2="10.0" /><path d="M 100.0 14.0 a86.0,86.0 0 0,1 42.46469731375804,11.215312516191453" fill="none" id="id61" stroke="none" /><text fill="#e1ed5e" style="font-size:6.75px; font-family:Arial;" text-anchor="middle"><textPath startOffset="22.20632615414155" xlink:href="#id61">January</textPath></text><path d="M 100.0 79.0 l 0.0 -27.052846090080138 a48.05284609008014,48.05284609008014 0 0,0 0.8271507540500576,0.00711954768092166 l -0.4656702747775292 27.048837919007774" fill="#ffa20f" stroke="none" /><path d="M 100.72285384407766 79.0124445844662 l 2.1685615322329816 -62.9626662466014 a84.0,84.0 0 0,0 1.4446366704426739,0.062209093903220936 l -3.2520390350649873 62.916009426173986" fill="#4dd2ff" stroke="none" /><path d="M 101.44485096284872 79.0497635885617 l 1.5162936043573567 -21.986149642594413 a43.03837386018237,43.03837386018237 0 0,0 0.7386405796714806,0.0573327249796878 l -1.8945243733911785 21.95679165542626" fill="#ff4306" stroke="none" /><path d="M 101.80526077348638 79.07773832637324 l 1.7264102210108425 -20.00841481214695 a41.082757667864044,41.082757667864044 0 0,0 0.7040310568811842,0.06685623205305431 l -2.0705664049822707 19.975733035578717" fill="#ff1c02" stroke="none" /><path d="M 102.52436894288641 79.15227682838746 l 3.01722524855554 -24.91802036526492 a46.100027631942524,46.100027631942524 0 0,0 0.7869609962587005,0.10217012324620178 l -3.445700973322087 24.86239191885458" fill="#ff7e0b" stroke="none" /><path d="M 102.88285421437855 79.19881850522331 l 4.743941276135974 -34.229820916122414 a55.556990881458965,55.556990881458965 0 0,0 0.9461382520596211,0.13943618394626853 l -5.3324485086242515 34.14309024801518" fill="#daff1c" stroke="none" /><path d="M 103.95276090670814 79.375362276772 l 6.518064975396204 -34.00983058344497 a55.628799392097264,55.628799392097264 0 0,0 0.9388911955035252,0.18833274118822446 l -7.102522580366854 33.89259388617954" fill="#d8ff1c" stroke="none" /><path d="M 104.307194497241 79.44645832069477 l 4.658207130547522 -22.228542144979464 a43.71138436032053,43.71138436032053 0 0,0 0.735094924960423,0.16066327867428642 l -5.040144779661473 22.145065368209305" fill="#ff5007" stroke="none" /><path d="M 104.66035177308747 79.52364482259891 l 7.255228392173795 -31.877557893638166 a53.69276733904393,53.69276733904393 0 0,0 0.8994211300622815,0.2128639223545077 l -7.8028732091986 31.74794805914279" fill="#f9ff18" stroke="none" /><path d="M 105.01212808612495 79.60689891045804 l 6.374496833807645 -25.9362402742003 a47.70810306714562,47.70810306714562 0 0,0 0.795796402005705,0.20286622201728333 l -6.820002124498375 25.82267105601415" fill="#ff9c0e" stroke="none" /><path d="M 105.36241919743992 79.69619591428918 l 11.386276810669552 -43.11202185384478 a65.59028737220227,65.59028737220227 0 0,0 1.089117697767158,0.29769700845914615 l -12.12669239766042 42.90963830455934" fill="#42ff2d" stroke="none" /><path d="M 106.0581310904928 79.89281104454417 l 18.172420367302127 -60.315018715383275 a83.99316109422492,83.99316109422492 0 0,0 1.380746085809117,0.42900452998844213 l -19.207951825821965 59.99327405051231" fill="#4dd2ff" stroke="none" /><path d="M 106.74666289553966 80.11325718540242 l 10.510584659070377 -30.981434404285316 a53.71577093119646,53.71577093119646 0 0,0 0.8730552040205827,0.3045918177944768 l -11.042321867154234 30.795921733318632" fill="#f8ff18" stroke="none" /><path d="M 107.08798089147638 80.2323363322302 l 8.285177600788975 -23.106524516324182 a45.54700884222161,45.54700884222161 0 0,0 0.7357309717844909,0.27097592599731435 l -8.681690898346043 22.960485322520544" fill="#ff730a" stroke="none" /><path d="M 107.4271985657038 80.35727306442388 l 7.790488638838755 -20.60352092026193 a43.02718292345952,43.02718292345952 0 0,0 0.6905183337068905,0.26791038563230496 l -8.143990137545313 20.466367830739078" fill="#ff4306" stroke="none" /><path d="M 107.76421540070413 80.48803036053334 l 12.658876949004584 -31.81256700790674 a55.238670903564525,55.238670903564525 0 0,0 0.8804416273296024,0.3591542463604573 l -13.204602445922575 31.589951875362704" fill="#dfff1b" stroke="none" /><path d="M 108.43124777332544 80.76684994638697 l 25.29237045071229 -57.69631840605397 a83.99658054711244,83.99658054711244 0 0,0 1.319217821527766,0.5918945822430124 l -26.281770390706836 57.25240349329442" fill="#4dd2ff" stroke="none" /><path d="M 109.08828744355905 81.06846463323043 l 12.116117151359472 -25.2387154107286 a48.996304227687205,48.996304227687205 0 0,0 0.7571765967706072,0.3715432676534811 l -12.54876501514051 25.026416982940287" fill="#ffb310" stroke="none" /><path d="M 109.41281617654863 81.2277094730956 l 10.116371516630522 -20.17541420403278 a43.569632495164406,43.569632495164406 0 0,0 0.667527253091967,0.34193338593287914 l -10.462159257311246 19.998288292787404" fill="#ff4d07" stroke="none" /><path d="M 109.73455568895987 81.39251694778311 l 8.670577167534503 -16.573701240500675 a39.70471815418624,39.70471815418624 0 0,0 0.6028593361742653,0.32202657904332965 l -8.95458155023708 16.42199593495559" fill="#ff0000" stroke="none" /><path d="M 110.36928655335952 81.73862282372117 l 17.65373798614927 -31.090043300213864 a56.752555954683615,56.752555954683615 0 0,0 0.8453516639794916,0.48968224745129807 l -18.18628638259409 30.781556895372518" fill="#c6ff1e" stroke="none" /><line stroke="#e1ed5e" stroke-width="0.3" x1="143.23703022742887" x2="145.7803849466894" y1="26.81831364943548" y2="22.513508569990506" /><path d="M 143.74570117128098 25.957352633546492 a86.0,86.0 0 0,1 28.547481713284135,27.462654790039103" fill="none" id="id62" stroke="none" /><text fill="#e1ed5e" style="font-size:6.75px; font-family:Arial;" text-anchor="middle"><textPath startOffset="19.985693538727396" xlink:href="#id62">February</textPath></text><path d="M 111.2981086023043 82.29822771554956 l 12.429569602740324 -19.474534937339982 a44.10306714562034,44.10306714562034 0 0,0 0.6364135051987109,0.4139410467745877 l -12.762950133723315 19.257694966405865" fill="#ff5808" stroke="none" /><path d="M 111.90073688211348 82.69761687909136 l 12.860716190470113 -18.69808911339183 a43.69397623652942,43.69397623652942 0 0,0 0.6160202738765859,0.43156156911279103 l -13.180667603930349 18.473942701515103" fill="#ff5007" stroke="none" /><path d="M 112.48926042617603 83.11751280151076 l 20.868288138872302 -28.20892473508671 a56.088871235147835,56.088871235147835 0 0,0 0.7712322524047492,0.5808761431898727 l -21.350766545035434 27.84553200239099" fill="#d1ff1c" stroke="none" /><path d="M 113.34407831869373 83.78471172551755 l 17.206054642582835 -20.908235805625097 a48.07771483835314,48.07771483835314 0 0,0 0.6344941098894467,0.5313705699586553 l -17.5634062894314 20.608964078272624" fill="#ffa20f" stroke="none" /><path d="M 113.89432698308785 84.25364557470407 l 21.172422047813804 -23.994574333296327 a53.00017269964078,53.00017269964078 0 0,0 0.6788792434151593,0.609504487731508 l -21.58231227882495 23.626570836795523" fill="#fffa17" stroke="none" /><line stroke="#e1ed5e" stroke-width="0.3" x1="172.23445277983987" x2="176.4835382374775" y1="55.19839476539836" y2="52.563006222186495" /><path d="M 173.08426987136738 54.67131705675599 a86.0,86.0 0 0,1 12.851231095245387,41.99856678651699" fill="none" id="id63" stroke="none" /><text fill="#e1ed5e" style="font-size:6.75px; font-family:Arial;" text-anchor="middle"><textPath startOffset="22.20632615414155" xlink:href="#id63">March</textPath></text><line stroke="#e1ed5e" stroke-width="0.3" x1="184.98032266829074" x2="189.97916517819016" y1="98.17113171792111" y2="98.06355123074" /><path d="M 185.9800911702706 98.14961562048488 a86.0,86.0 0 0,1 -9.607161424134198,41.387399972396054" fill="none" id="id64" stroke="none" /><text fill="#e1ed5e" style="font-size:6.75px; font-family:Arial;" text-anchor="middle"><textPath startOffset="21.466115282336823" xlink:href="#id64">April</textPath></text><line stroke="#e1ed5e" stroke-width="0.3" x1="174.80103733775053" x2="179.2010983576182" y1="140.37084112569926" y2="142.7455964860345" /><path d="M 175.68104954172406 140.8457921977663 a86.0,86.0 0 0,1 -30.038265399797805,32.042727171017184" fill="none" id="id65" stroke="none" /><text fill="#e1ed5e" style="font-size:6.75px; font-family:Arial;" text-anchor="middle"><textPath startOffset="22.206326154141568" xlink:href="#id65">May</textPath></text><line stroke="#e1ed5e" stroke-width="0.3" x1="143.8653032363475" x2="146.44561519142675" y1="172.8068346515853" y2="177.08958963109032" /><path d="M 144.38136562736335 173.6633856474863 a86.0,86.0 0 0,1 -40.68145358897372,12.25698825130547" fill="none" id="id66" stroke="none" /><text fill="#e1ed5e" style="font-size:6.75px; font-family:Arial;" text-anchor="middle"><textPath startOffset="21.466115282336833" xlink:href="#id66">June</textPath></text><line stroke="#e1ed5e" stroke-width="0.3" x1="102.19456741930631" x2="102.32365962044197" y1="184.97166512339345" y2="189.96999836594603" /><path d="M 102.22038585953345 185.97133177190398 a86.0,86.0 0 0,1 -42.740103519485714,-10.115201625700543" fill="none" id="id67" stroke="none" /><text fill="#e1ed5e" style="font-size:6.75px; font-family:Arial;" text-anchor="middle"><textPath startOffset="22.20632615414155" xlink:href="#id67">July</textPath></text><line stroke="#e1ed5e" stroke-width="0.3" x1="58.666819895761336" x2="56.23545636021788" y1="174.27360380694188" y2="178.64263932499728" /><path d="M 58.180547188652646 175.14741091055294 a86.0,86.0 0 0,1 -31.652253787137756,-30.449443065178592" fill="none" id="id68" stroke="none" /><text fill="#e1ed5e" style="font-size:6.75px; font-family:Arial;" text-anchor="middle"><textPath startOffset="22.20632615414155" xlink:href="#id68">August</textPath></text><line stroke="#e1ed5e" stroke-width="0.3" x1="26.63291911575756" x2="22.317208475507996" y1="142.92168965132927" y2="145.44649492493687" /><path d="M 25.769776987707644 143.4266507060508 a86.0,86.0 0 0,1 -11.730757126820373,-40.83630448921669" fill="none" id="id69" stroke="none" /><text fill="#e1ed5e" style="font-size:6.75px; font-family:Arial;" text-anchor="middle"><textPath startOffset="21.46611528233685" xlink:href="#id69">September</textPath></text><line stroke="#e1ed5e" stroke-width="0.3" x1="15.007084014347285" x2="10.007500721073583" y1="101.09737516637583" y2="101.16192664675087" /><path d="M 14.007167355692545 101.11028546245083 a86.0,86.0 0 0,1 10.666146001902534,-42.60595125391555" fill="none" id="id70" stroke="none" /><text fill="#e1ed5e" style="font-size:6.75px; font-family:Arial;" text-anchor="middle"><textPath startOffset="22.20632615414155" xlink:href="#id70">October</textPath></text><line stroke="#e1ed5e" stroke-width="0.3" x1="26.266209847984243" x2="21.928928074336255" y1="57.711370442889674" y2="55.22380399835377" /><path d="M 25.398753493254645 57.213857153982495 a86.0,86.0 0 0,1 29.58750427330803,-30.492523968695096" fill="none" id="id71" stroke="none" /><text fill="#e1ed5e" style="font-size:6.75px; font-family:Arial;" text-anchor="middle"><textPath startOffset="21.46611528233685" xlink:href="#id71">November</textPath></text><line stroke="#e1ed5e" stroke-width="0.3" x1="56.762969772571076" x2="54.21961505331055" y1="26.818313649435495" y2="22.513508569990535" /><path d="M 56.25429882871897 25.957352633546506 a86.0,86.0 0 0,1 42.265352541879196,-11.944610805530505" fill="none" id="id72" stroke="none" /><text fill="#e1ed5e" style="font-size:6.75px; font-family:Arial;" text-anchor="middle"><textPath startOffset="22.20632615414155" xlink:href="#id72">December</textPath></text></svg>