<?xml version="1.0" encoding="utf-8" ?>
<svg baseProfile="full" height="200mm" version="1.1" viewBox="0,0,200,200" width="200mm" xmlns="http://www.w3.org/2000/svg" xmlns:ev="http://www.w3.org/2001/xml-events" xmlns:xlink="http://www.w3.org/1999/xlink"><defs /><rect fill="#1a1a1a" height="200" width="200" x="0" y="0" /><text alignment-baseline="middle" fill="#e1ed5e" style="dominant-baseline: central; font-size:9.0px; font-family:Arial;" text-anchor="middle" x="100.0" y="100.0">2026</text><line stroke="#e1ed5e" stroke-width="0.3" x1="100.0" x2="100.0" y1="15.0" y2="10.0" /><path d="M 100.0 14.0 a86.0,86.0 0 0,1 42.46469731375804,11.215312516191453" fill="none" id="id61" stroke="none" /><text fill="#e1ed5e" style="font-size:6.75px; font-family:Arial;" text-anchor="middle"><textPath startOffset="22.20632615414155" xlink:href="#id61">January</textPath></text><path d="M 100.0 79.0 l 0.0 -12.783379343791388 a33.78337934379139,33.78337934379139 0 0,0 0.5815253407923499,0.005005372202302067 l -0.22004486151982144 12.781485348197645" fill="#ff9e0e" stroke="none" /><path d="M 100.72285384407766 79.0124445844662 l 1.0247182349901724 -29.751976721664462 a50.76961817537446,50.76961817537446 0 0,0 0.8731387161966526,0.03759918981550645 l -1.5366977835761566 29.729929805324762" fill="#92ff23" stroke="none" /><path d="M 101.44485096284872 79.0497635885617 l 0.7164997086266797 -10.389194920740973 a31.413872619425117,31.413872619425117 0 0,0 0.5391365658172639,0.04184737381778052 l -0.8952264638062847 10.375322284734727" fill="#ff7e0b" stroke="none" /><path d="M 101.80526077348638 79.07773832637324 l 0.8157868745008987 -9.45464871828764 a30.489778217156925,30.489778217156925 0 0,0 0.5225002409974281,0.04961769373449135 l -0.9784122425885708 9.439205480037971" fill="#ff720a" stroke="none" /><path d="M 102.52436894288641 79.15227682838746 l 1.425740374580916 -11.774602412065734 a32.86060696498853,32.86060696498853 0 0,0 0.5609544575828989,0.07282798809499118 l -1.6282095606716611 11.748316100806607" fill="#ff920d" stroke="none" /><path d="M 102.88285421437855 79.19881850522331 l 2.2416717529677244 -16.174741252133504 a37.32934006080842,37.32934006080842 0 0,0 0.6357204736129686,0.09368867256359592 l -2.5197612070093487 16.13375809540894" fill="#ffcc13" stroke="none" /><path d="M 103.95276090670814 79.375362276772 l 3.080004850155976 -16.07078842346555 a37.363271996418646,37.363271996418646 0 0,0 0.6306094594165271,0.12649432509317107 l -3.3561807190396284 16.01539014229517" fill="#ffcd13" stroke="none" /><path d="M 104.307194497241 79.44645832069477 l 2.201159486638197 -10.503733527797742 a31.731892708585924,31.731892708585924 0 0,0 0.533635656496035,0.11663208557013804 l -2.38163786728776 10.464287944131733" fill="#ff830c" stroke="none" /><path d="M 104.66035177308747 79.52364482259891 l 3.4283393493674565 -15.06321788661908 a36.448431758407786,36.448431758407786 0 0,0 0.6105569019033693,0.14449909237819217 l -3.6871199382333493 15.00197288210002" fill="#ffc111" stroke="none" /><path d="M 105.01212808612495 79.60689891045804 l 3.0121640762315396 -12.255745553455752 a33.62047667456306,33.62047667456306 0 0,0 0.5608073398700899,0.14296227782918794 l -3.2226803047866546 12.202080279457697" fill="#ff9c0e" stroke="none" /><path d="M 105.36241919743992 79.69619591428918 l 5.380398620519889 -20.37187983106918 a42.07040999048703,42.07040999048703 0 0,0 0.6985733697574624,0.19094649071663686 l -5.730269879501062 20.27624679952625" fill="#f7ff19" stroke="none" /><path d="M 106.0581310904928 79.89281104454417 l 8.587079613602896 -28.500874244405153 a50.766386562459196,50.766386562459196 0 0,0 0.8345380579039502,0.25929503691386635 l -9.076403044217566 28.348839072608765" fill="#92ff23" stroke="none" /><path d="M 106.74666289553966 80.11325718540242 l 4.96660463651545 -14.63976940858704 a36.45930172912275,36.45930172912275 0 0,0 0.5925817047350761,0.20674012113528561 l -5.2178683453138 14.552108434279546" fill="#ffc112" stroke="none" /><path d="M 107.08798089147638 80.2323363322302 l 3.915024979216711 -10.91860971763333 a32.59928699334092,32.59928699334092 0 0,0 0.5265835388263527,0.19394516137103793 l -4.10239084381564 10.849601288455968" fill="#ff8e0d" stroke="none" /><path d="M 107.4271985657038 80.35727306442388 l 3.6812678123463867 -9.735856362929162 a31.408584525563782,31.408584525563782 0 0,0 0.5040581785069496,0.19556674224704443 l -3.8483091558530034 9.671046916791571" fill="#ff7e0b" stroke="none" /><path d="M 107.76421540070413 80.48803036053334 l 5.981744973030406 -15.032507507998384 a37.17892316875268,37.17892316875268 0 0,0 0.5925897759959783,0.24173224867191823 l -6.239618618614772 14.927314373142886" fill="#ffca12" stroke="none" /><path d="M 108.43124777332544 80.76684994638697 l 11.951495413775056 -27.263450302746925 a50.768002368916825,50.768002368916825 0 0,0 0.7973426186185538,0.35774439099467953 l -12.41902015086039 27.053685581235715" fill="#92ff23" stroke="none" /><path d="M 109.08828744355905 81.06846463323043 l 5.725272720064715 -11.926141603402053 a34.229195034601105,34.229195034601105 0 0,0 0.528969395039615,0.2595629848570789 l -5.929713382114762 11.825823458410143" fill="#ffa40f" stroke="none" /><path d="M 109.41281617654863 81.2277094730956 l 4.7803256725448335 -9.533561545779085 a31.664910186342354,31.664910186342354 0 0,0 0.48513584589998265,0.2485054230484553 l -4.943722006033571 9.449863597418128" fill="#ff820c" stroke="none" /><path d="M 109.73455568895987 81.39251694778311 l 4.097139232343205 -7.831631074324366 a29.83860821473205,29.83860821473205 0 0,0 0.45305657304611147,0.2420071309784945 l -4.231340851917628 7.759945216844118" fill="#ff6909" stroke="none" /><path d="M 110.36928655335952 81.73862282372117 l 8.341984749456634 -14.691090763543267 a37.89428475499432,37.89428475499432 0 0,0 0.5644502901072151,0.32696604077536173 l -8.593631772029179 14.545320565377857" fill="#ffd413" stroke="none" /><line stroke="#e1ed5e" stroke-width="0.3" x1="143.23703022742887" x2="145.7803849466894" y1="26.81831364943548" y2="22.513508569990506" /><path d="M 143.74570117128098 25.957352633546492 a86.0,86.0 0 0,1 28.547481713284135,27.462654790039103" fill="none" id="id62" stroke="none" /><text fill="#e1ed5e" style="font-size:6.75px; font-family:Arial;" text-anchor="middle"><textPath startOffset="19.985693538727396" xlink:href="#id62">February</textPath></text><path d="M 111.2981086023043 82.29822771554956 l 5.873389542187621 -9.20237252742224 a31.916975993732628,31.916975993732628 0 0,0 0.46056648396916805,0.2995652526637723 l -6.03092305194107 9.09990835059894" fill="#ff850c" stroke="none" /><path d="M 111.90073688211348 82.69761687909136 l 6.077120800827802 -8.835475770076199 a31.723666784801622,31.723666784801622 0 0,0 0.44725666062877145,0.31333187306067345 l -6.228308601040225 8.72955905425159" fill="#ff830c" stroke="none" /><path d="M 112.48926042617603 83.11751280151076 l 9.860967775681335 -13.329665373038216 a37.580671410717954,37.580671410717954 0 0,0 0.5167411149612946,0.38919869462204953 l -10.088955044401013 13.157950088910319" fill="#ffd013" stroke="none" /><path d="M 113.34407831869373 83.78471172551755 l 8.13043931768762 -9.879844391335745 a33.79513066348324,33.79513066348324 0 0,0 0.44600313099362876,0.37351479584376696 l -8.299299985640365 9.73842843809816" fill="#ff9e0e" stroke="none" /><path d="M 113.89432698308785 84.25364557470407 l 10.004681273195187 -11.33824311401384 a36.12115750498965,36.12115750498965 0 0,0 0.46267592781699324,0.4153950162788253 l -10.19836818860817 11.164349088965716" fill="#ffbd11" stroke="none" /><path d="M 114.42810811169701 84.74124197986012 l 15.649603246873834 -16.550576638779894 a43.777876741713456,43.777876741713456 0 0,0 0.5430890690612641,0.5224512541480306 l -15.932175559547517 16.278742297869563" fill="#e2ff1b" stroke="none" /><path d="M 115.19652480421416 85.50635884689758 l 10.80616882446987 -10.306351958723894 a35.93298949842383,35.93298949842383 0 0,0 0.42303853444297884,0.45126801303495473 l -10.981974680883312 10.118814528810884" fill="#ffba11" stroke="none" /><path d="M 116.15771136456269 86.58626213691792 l 17.57886874319161 -14.593548054575058 a43.847062636399244,43.847062636399244 0 0,0 0.47710094906844663,0.5848693505066946 l -17.827468184336464 14.288794534460262" fill="#e1ff1b" stroke="none" /><path d="M 116.38621287248628 86.86637796730983 l 13.335327194857983 -10.688323679328903 a38.09009111935983,38.09009111935983 0 0,0 0.40565206898328166,0.5151369329961913 l -13.51733334443523 10.457194352379672" fill="#ffd614" stroke="none" /><path d="M 116.60985879189232 87.15038557335679 l 12.319252279947575 -9.530342419234808 a36.575346011079816,36.575346011079816 0 0,0 0.38094800796434064,0.5012829242575086 l -12.48147622813603 9.316874719096266" fill="#ffc312" stroke="none" /><path d="M 117.04232023915458 87.72973835380427 l 12.309437344214123 -8.862643983414122 a36.16801589226092,36.16801589226092 0 0,0 0.3594194515927362,0.5083733250939989 l -12.460169415610741 8.649444157988329" fill="#ffbd11" stroke="none" /><path d="M 117.65298651832404 88.62581576622439 l 13.668584870496812 -8.80695186452727 a37.26015416612262,37.26015416612262 0 0,0 0.34274445450077023,0.5421394167614326 l -13.818156921243538 8.570364800051632" fill="#ffcb13" stroke="none" /><line stroke="#e1ed5e" stroke-width="0.3" x1="172.23445277983987" x2="176.4835382374775" y1="55.19839476539836" y2="52.563006222186495" /><path d="M 173.08426987136738 54.67131705675599 a86.0,86.0 0 0,1 12.851231095245387,41.99856678651699" fill="none" id="id63" stroke="none" /><text fill="#e1ed5e" style="font-size:6.75px; font-family:Arial;" text-anchor="middle"><textPath startOffset="22.20632615414155" xlink:href="#id63">March</textPath></text><path d="M 118.21658344932153 89.55222093294921 l 13.159375681846301 -7.54731259935417 a36.17007237320699,36.17007237320699 0 0,0 0.30510723499110914,0.5427517262690222 l -13.287340558129843 7.319677363150354" fill="#ffbd11" stroke="none" /><path d="M 118.56541770881063 90.18545643968196 l 10.58193486938415 -5.594103098403846 a32.969600455130475,32.969600455130475 0 0,0 0.260916028005839,0.5040067182035539 l -10.676660330550106 5.411123657939947" fill="#ff930d" stroke="none" /><path d="M 118.89224826269711 90.83032412892265 l 14.583338418968603 -7.078272768848354 a37.21035794892839,37.21035794892839 0 0,0 0.2747219573426963,0.5786345049977558 l -14.703018570153056 6.826195848210058" fill="#ffcb12" stroke="none" /><path d="M 119.04729006885535 91.15688171328212 l 15.91929912152251 -7.390880522340233 a38.55133041726511,38.55133041726511 0 0,0 0.2742609258247549,0.6042975953914863 l -16.044162364310612 7.115760918106685" fill="#ffdc14" stroke="none" /><path d="M 119.34039704204932 91.81776055985345 l 13.654639218459408 -5.7767959629442975 a35.82634627222025,35.82634627222025 0 0,0 0.23539327731771048,0.5700234922521092 l -13.752054182663317 5.540897900238885" fill="#ffb911" stroke="none" /><path d="M 119.47837535516314 92.15188598940014 l 13.532831173767354 -5.4525698371334475 a35.58999785491783,35.58999785491783 0 0,0 0.2240584417198373,0.5702042949544763 l -13.624683165368891 5.218816537283187" fill="#ffb610" stroke="none" /><path d="M 119.61058180528143 92.48833698450437 l 9.389063061867652 -3.596399048853988 a31.054282236854377,31.054282236854377 0 0,0 0.18691041819589896,0.5008269947515971 l -9.449578068565177 3.4342489170730572" fill="#ff7a0b" stroke="none" /><path d="M 119.7369772167798 92.82701384747503 l 9.06674638881104 -3.2951168550828513 a30.646952118035475,30.646952118035475 0 0,0 0.17592360287611708,0.49735971545792296 l -9.122123072496967 3.1385595131983135" fill="#ff740a" stroke="none" /><path d="M 119.85752413597 93.16781622104841 l 19.460038441086244 -6.695424770207343 a41.579645501855964,41.579645501855964 0 0,0 0.22703022272634538,0.6787914689995925 l -19.57240595758436 6.359460198285437" fill="#fdff18" stroke="none" /><path d="M 120.08093135843002 93.85539295169968 l 19.87927364974906 -6.082901375590821 a41.789112775363265,41.789112775363265 0 0,0 0.2045559218210175,0.6896608781845747 l -19.98103546868178 5.7398111106597165" fill="#faff18" stroke="none" /><path d="M 120.28053869075195 94.5502522615342 l 7.429013150491423 -1.996310267359184 a28.69256076178396,28.69256076178396 0 0,0 0.12406617929543837,0.4780775986050003 l -7.462275661657165 1.8681362432053332" fill="#ff5908" stroke="none" /><path d="M 120.6074358757038 95.95851677861258 l 30.789783238902107 -6.038421912397626 a52.376317360243235,52.376317360243235 0 0,0 0.16589394445162137,0.8862120847558369 l -30.88916290726359 5.507531750179227" fill="#81ff25" stroke="none" /><path d="M 120.67395015179393 96.31383870115 l 7.246304173744023 -1.2920146275303173 a28.360585980489077,28.360585980489077 0 0,0 0.0815544282646379,0.4813388521493769 l -7.267470463528883 1.1670899870651024" fill="#ff5407" stroke="none" /><path d="M 120.78858239683441 97.02765380044208 l 9.779874216682414 -1.3983239167157884 a30.8793344649419,30.8793344649419 0 0,0 0.07070485464312655,0.5268332927637683 l -9.802495070383376 1.2297722818873555" fill="#ff770b" stroke="none" /><path d="M 120.94382443527127 98.46500227214037 l 31.09387932219848 -2.2789072863663025 a52.17727938296245,52.17727938296245 0 0,0 0.05794015800991332,0.8963085994924137 l -31.12850007121281 1.7433396226208537" fill="#83ff25" stroke="none" /><path d="M 120.96714384426684 98.82574320788733 l 4.9055396325127125 -0.27473285227787575 a25.913226763164275,25.913226763164275 0 0,0 0.021108657568806293,0.44557039884467875 l -4.909541898315015 0.19025134681019723" fill="#ff3204" stroke="none" /><line stroke="#e1ed5e" stroke-width="0.3" x1="184.98032266829074" x2="189.97916517819016" y1="98.17113171792111" y2="98.06355123074" /><path d="M 185.9800911702706 98.14961562048488 a86.0,86.0 0 0,1 -9.607161424134198,41.387399972396054" fill="none" id="id64" stroke="none" /><text fill="#e1ed5e" style="font-size:6.75px; font-family:Arial;" text-anchor="middle"><textPath startOffset="21.466115282336823" xlink:href="#id64">April</textPath></text><path d="M 120.99980553446 99.90962569577887 l 8.291654390954266 -0.03568378265193489 a29.291731174572384,29.291731174572384 0 0,0 -0.00216996312302054,0.5042230088863603 l -8.291040130541743 -0.10704870443811013" fill="#ff6109" stroke="none" /><path d="M 120.9904718944345 100.63252640178507 l 22.843597250730003 0.6883684390469892 a43.853966536718204,43.853966536718204 0 0,0 -0.029231523691845816,0.7543357391309047 l -22.828363594186957 -1.0814814251919" fill="#e1ff1b" stroke="none" /><path d="M 120.92983693683757 101.71520430193887 l 10.95355526228701 0.8976460334639651 a31.99027485031057,31.99027485031057 0 0,0 -0.049699792009462174,0.5484330634075427 l -10.936480874000472 -1.0860604854200784" fill="#ff860c" stroke="none" /><path d="M 120.89721153311464 102.0752229133903 l 16.080729947079483 1.5969163731409621 a37.159827274253416,37.159827274253416 0 0,0 -0.06868852244785514,0.635970409547263 l -16.050859123130575 -1.8734831045730167" fill="#ffca12" stroke="none" /><path d="M 120.81339534386255 102.79330883721812 l 12.473973576720404 1.6740978610850747 a33.585810281472085,33.585810281472085 0 0,0 -0.08183094549656698,0.5723254422110338 l -12.443308580207235 -1.888568775276518" fill="#ff9c0e" stroke="none" /><path d="M 120.70491114924044 103.5080841355445 l 23.18860448830826 3.9289024205174834 a44.51909123127716,44.51909123127716 0 0,0 -0.13451879630717922,0.7544528477908924 l -23.117539249661892 -4.327474019041594" fill="#d9ff1c" stroke="none" /><path d="M 120.64145759157962 103.86396538481128 l 10.059490822689387 1.8830804053079462 a31.234224319635892,31.234224319635892 0 0,0 -0.10347462282715289,0.5276148725272091 l -10.02558626688657 -2.0559590049031002" fill="#ff7c0b" stroke="none" /><path d="M 120.5718875245553 104.21870165774334 l 12.1556923856821 2.492782422482338 a33.40865913711738,33.40865913711738 0 0,0 -0.1203761099303526,0.5623571103241299 l -12.110982237027304 -2.701653352222637" fill="#ff990e" stroke="none" /><path d="M 120.49622156327973 104.57218783832717 l 24.089062662468642 5.373659676833431 a45.6811498573054,45.6811498573054 0 0,0 -0.17780720652275003,0.7659887920530649 l -23.99299489001534 -5.787517126235061" fill="#ccff1d" stroke="none" /><path d="M 120.32669344350535 105.2749913415812 l 16.8917700275751 4.383592485767009 a38.451297308388206,38.451297308388206 0 0,0 -0.17177096036448292,0.6392236438819505 l -16.813810990868838 -4.6737070628245085" fill="#ffdb14" stroke="none" /><path d="M 120.13307415673323 105.97154293290107 l 29.054402049653604 8.617641194712979 a51.30547835332301,51.30547835332301 0 0,0 -0.25841647778798665,0.8445200012884793 l -28.901758799359484 -9.116488168553516" fill="#8cff24" stroke="none" /><path d="M 120.02730092923936 106.31721596034902 l 8.972612601782615 2.8302331769158005 a30.408400328290835,30.408400328290835 0 0,0 -0.16175495004143742,0.497830546799141 l -8.922565400724931 -2.9842626236927368" fill="#ff710a" stroke="none" /><path d="M 119.9155931802556 106.66101706037122 l 12.955481378101776 4.333121373980087 a34.66090914178061,34.66090914178061 0 0,0 -0.19411622490080918,0.5641926133524868 l -12.878974322257736 -4.5554866904218745" fill="#ffaa0f" stroke="none" /><path d="M 119.79798401119884 107.00284435728193 l 14.132666306552343 4.998936378684121 a35.99071785641006,35.99071785641006 0 0,0 -0.2116181182986959,0.582282175192671 l -14.04452392724842 -5.241466350882924" fill="#ffbb11" stroke="none" /><path d="M 119.54520255179757 107.68017299344265 l 18.03276531342984 7.0858696291462016 a40.37498834194475,40.37498834194475 0 0,0 -0.25974073211357107,0.6446551959234814 l -17.90812196705888 -7.395224192912496" fill="#fff316" stroke="none" /><path d="M 119.26925614724726 108.34839909993367 l 21.604994355318123 9.36035693602923 a44.54553170058384,44.54553170058384 0 0,0 -0.3108830860050602,0.7009592882036021 l -21.44067018458179 -9.73086456072552" fill="#d9ff1c" stroke="none" /><path d="M 119.12269723197855 108.67885076344098 l 18.308544232930007 8.309346802172698 a41.105920426778084,41.105920426778084 0 0,0 -0.2979697374817951,0.6418003059035114 l -18.16279987860838 -8.62326717535504" fill="#fffc17" stroke="none" /><path d="M 118.81262510543309 109.33194174019688 l 1.5365901355795135 0.762220558982384 a22.71525200052228,22.71525200052228 0 0,0 -0.17676936657454592,0.34878273036573126 l -1.5232420992186986 -0.7885575010508097" fill="#ff0400" stroke="none" /><path d="M 118.64920377521936 109.65438752849418 l 15.67985786812431 8.117205757155718 a38.65635783701106,38.65635783701106 0 0,0 -0.3109949856059055,0.5882853112460081 l -15.537810374293512 -8.38590608348786" fill="#ffdd14" stroke="none" /><line stroke="#e1ed5e" stroke-width="0.3" x1="174.80103733775053" x2="179.2010983576182" y1="140.37084112569926" y2="142.7455964860345" /><path d="M 175.68104954172406 140.8457921977663 a86.0,86.0 0 0,1 -30.038265399797805,32.042727171017184" fill="none" id="id65" stroke="none" /><text fill="#e1ed5e" style="font-size:6.75px; font-family:Arial;" text-anchor="middle"><textPath startOffset="22.206326154141568" xlink:href="#id65">May</textPath></text><path d="M 118.30583269289576 110.29060199501025 l 13.065326691250245 7.344657802243466 a35.988220700975546,35.988220700975546 0 0,0 -0.3082099835760983,0.5373900854617565 l -12.936964711521767 -7.568467733563538" fill="#ffbb11" stroke="none" /><path d="M 118.12598468904814 110.60418214915192 l 2.0757770419953196 1.214384665548456 a23.40490757493798,23.40490757493798 0 0,0 -0.20643030882828292,0.34598907144538127 l -2.0545658574688095 -1.2499358308799415" fill="#ff0e01" stroke="none" /><path d="M 117.75023020441432 111.22182372390056 l 32.42063273612227 20.496558151206692 a59.35630747421238,59.35630747421238 0 0,0 -0.5534131586355819,0.8589095118968553 l -32.06301471410964 -21.051589263024997" fill="#39ff2e" stroke="none" /><path d="M 117.55443506779139 111.5257021239791 l 7.47166966275604 4.905668486005698 a29.938200649120514,29.938200649120514 0 0,0 -0.28654692190780756,0.42834876905526026 l -7.3861196354375105 -5.033554169266766" fill="#ff6a09" stroke="none" /><path d="M 117.14729908036423 112.12312394758627 l 8.427399656678798 5.958163446904366 a31.32089030236332,31.32089030236332 0 0,0 -0.31502880726886423,0.4375474600983313 l -8.32359105703433 -6.102344512453828" fill="#ff7d0b" stroke="none" /><path d="M 116.93607887273984 112.41649034213515 l 20.97494717193177 15.377539921963862 a47.008020742011894,47.008020742011894 0 0,0 -0.48404546954397576,0.6484580080342771 l -20.707140435692704 -15.736310809507454" fill="#bcff1f" stroke="none" /><path d="M 116.498646956653 112.99209946851258 l 11.540528266111197 9.087756804932221 a35.68914961481785,35.68914961481785 0 0,0 -0.38422273628117737,0.47937694045722024 l -11.382387617775166 -9.285061578967692" fill="#ffb711" stroke="none" /><path d="M 116.27256486870786 113.27417163493432 l 11.518976269188471 9.396482317915309 a35.86541941019567,35.86541941019567 0 0,0 -0.39435565749094914,0.47502679370662854 l -11.355524611803979 -9.593370368735707" fill="#ffb911" stroke="none" /><path d="M 115.80600337817218 113.82643327865902 l 8.28848879839127 7.250424703194142 a32.01216168323665,32.01216168323665 0 0,0 -0.36637332210440393,0.4116243112812189 l -8.162456626638528 -7.392023184216227" fill="#ff870c" stroke="none" /><path d="M 115.56566222782051 114.09645910891815 l 28.69783781568469 25.989122169189415 a59.716926097256156,59.716926097256156 0 0,0 -0.6965655024274717,0.7559842795274748 l -28.246225905261497 -26.479257703518222" fill="#35ff2f" stroke="none" /><path d="M 115.07121518719521 114.62390073753431 l 16.88712077563204 16.385910153775438 a44.530254984984424,44.530254984984424 0 0,0 -0.5385178915287745,0.5455157809691494 l -16.60256225904773 -16.674166428725254" fill="#d9ff1c" stroke="none" /><path d="M 114.55890576462653 115.13401014063108 l 8.564501511852217 8.902815556698302 a33.353574826061816,33.353574826061816 0 0,0 -0.417180423893871,0.3944701298808063 l -8.40998525356754 -9.04892032332503" fill="#ff990e" stroke="none" /><path d="M 114.29624159901734 115.38237550388516 l 10.069982342856731 10.835033014968257 a35.79197366212158,35.79197366212158 0 0,0 -0.45489970932811374,0.4155400989032262 l -9.881983084061753 -11.006765880458065" fill="#ffb911" stroke="none" /><path d="M 113.75828350139079 115.86535959552629 l 10.871689839201245 12.536685168067745 a37.59403853686743,37.59403853686743 0 0,0 -0.4925437083992924,0.4197564338054298 l -10.654280654224905 -12.721965992096122" fill="#ffd013" stroke="none" /><path d="M 113.20401910651253 116.32954008644616 l 1.944268477163236 2.404495917534029 a24.092212885415307,24.092212885415307 0 0,0 -0.32472001624168045,0.25797721973802906 l -1.9025909682042044 -2.437607051277184" fill="#ff1802" stroke="none" /><path d="M 112.63410532772338 116.77436683061366 l 11.275304483559175 14.970279938940978 a39.74144531905766,39.74144531905766 0 0,0 -0.5499743479527119,0.4068578745857082 l -11.0159451651879 -15.162147762266455" fill="#ffeb16" stroke="none" /><path d="M 112.34349029814194 116.9893568818739 l 14.69310732622458 20.22332727935805 a45.99740724851243,45.99740724851243 0 0,0 -0.6445609496687066,0.4598771234339755 l -14.342819048706987 -20.473248664636245" fill="#c8ff1d" stroke="none" /><path d="M 112.04921762599082 117.19931262002967 l 6.058293625658771 8.647738736735603 a31.558707634627222,31.558707634627222 0 0,0 -0.44759732377014144,0.30786152069940526 l -5.908539417265747 -8.750741046800101" fill="#ff800b" stroke="none" /><path d="M 111.7513745106137 117.40417183066458 l 2.021682043483689 2.9941775440804737 a24.61279634776445,24.61279634776445 0 0,0 -0.35316467973057303,0.23405829224404434 l -1.9698426650131515 -3.028533857415836" fill="#ff1f03" stroke="none" /><path d="M 111.45004920935366 117.60387380957326 l 12.84286159230957 19.745252678926672 a44.55449208184887,44.55449208184887 0 0,0 -0.6465030732331092,0.41262884957159346 l -12.501076717029528 -19.963395957322074" fill="#d9ff1c" stroke="none" /><path d="M 111.1453310114006 117.79835938074945 l 0.9744966353162663 1.556206927631701 a22.836143701852233,22.836143701852233 0 0,0 -0.334952726357395,0.20575532197880655 l -0.9475647090265626 -1.5727507164388856" fill="#ff0500" stroke="none" /><line stroke="#e1ed5e" stroke-width="0.3" x1="143.8653032363475" x2="146.44561519142675" y1="172.8068346515853" y2="177.08958963109032" /><path d="M 144.38136562736335 173.6633856474863 a86.0,86.0 0 0,1 -40.68145358897372,12.25698825130547" fill="none" id="id66" stroke="none" /><text fill="#e1ed5e" style="font-size:6.75px; font-family:Arial;" text-anchor="middle"><textPath startOffset="21.466115282336833" xlink:href="#id66">June</textPath></text><path d="M 110.5260780823613 118.17145234162733 l 7.5100723107257705 12.964840276570946 a35.98293260711421,35.98293260711421 0 0,0 -0.538632344516083,0.3058495026569106 l -7.2857911992884885 -13.092192945022486" fill="#ffbb11" stroke="none" /><path d="M 110.21172684928248 118.3499491758327 l 7.292934131836814 13.105028428301924 a35.99762175672903,35.99762175672903 0 0,0 -0.5440392367888864,0.29665356949608723 l -7.066272083179278 -13.228622649557783" fill="#ffbb11" stroke="none" /><path d="M 109.57404056367764 118.69057910512821 l 7.500507427103777 14.64259801935022 a37.451847568595994,37.451847568595994 0 0,0 -0.5763056281834621,0.2889716058797768 l -7.247347891237554 -14.7695374661393" fill="#ffce13" stroke="none" /><path d="M 109.2508944713604 118.85261126421891 l 0.6470846331462108 1.3187087023338673 a22.468914961481786,22.468914961481786 0 0,0 -0.3486826071298549,0.16738884082947036 l -0.6242893580161232 -1.3296518196628977" fill="#ff0000" stroke="none" /><path d="M 108.92500713936063 119.00905698771935 l 2.3395243691654195 4.982870194186704 a26.50475881815299,26.50475881815299 0 0,0 -0.4146505493442364,0.19034572987878234 l -2.2534058240537633 -5.0224029943995605" fill="#ff3a05" stroke="none" /><path d="M 108.2653958097858 119.30500536409082 l 9.65806435773811 22.55778047702478 a45.53837132304937,45.53837132304937 0 0,0 -0.7232545963923489,0.3023204799496864 l -9.268338301848301 -22.72068599999444" fill="#cdff1d" stroke="none" /><path d="M 107.93186726928326 119.44442032107085 l 5.5718996632149445 13.659124057452171 a35.75187228367313,35.75187228367313 0 0,0 -0.5718238281966075,0.22754050233829132 l -5.335954758976471 -13.753011404196531" fill="#ffb811" stroke="none" /><path d="M 107.59598834532513 119.57807347666477 l 3.4290231937632747 8.838042528330341 a30.479936486914998,30.479936486914998 0 0,0 -0.49077019978863873,0.18556729602337296 l -3.276382773214361 -8.895758074460346" fill="#ff720a" stroke="none" /><path d="M 107.2578585660854 119.70592522655815 l 5.599656319406606 15.20371439039584 a37.202132025144095,37.202132025144095 0 0,0 -0.6028170395726975,0.21614874318780375 l -5.337119719204173 -15.297850674623605" fill="#ffcb12" stroke="none" /><path d="M 106.57524785965236 119.94407469862006 l 7.7648199791194665 23.552290801868526 a45.79925062020854,45.79925062020854 0 0,0 -0.7508430666365862,0.24039623909448835 l -7.358255567391939 -23.68245988762272" fill="#caff1d" stroke="none" /><path d="M 106.2309692047433 120.05430185196036 l 6.6225912736355586 21.314732921893402 a43.319869056723434,43.319869056723434 0 0,0 -0.7140043230716001,0.21512364547470014 l -6.254711976123713 -21.425571936473826" fill="#e8ff1a" stroke="none" /><path d="M 105.88484417918355 120.15858648285463 l 2.698885083808614 9.245055045245127 a30.630940944955327,30.630940944955327 0 0,0 -0.5074071260180197,0.143398322165482 l -2.5393467896859883 -9.290142160749127" fill="#ff740a" stroke="none" /><path d="M 105.53697534728816 120.25689768951611 l 3.8807679146882643 14.197700671197477 a35.71852791404749,35.71852791404749 0 0,0 -0.5944746130792337,0.15700614840990454 l -3.635802858797533 -14.262398168910966" fill="#ffb811" stroke="none" /><path d="M 104.83641907484287 120.43548508189849 l 3.757322782736446 15.87594302443335 a37.31450401969745,37.31450401969745 0 0,0 -0.6263148001115432,0.1425472093994645 l -3.483487833232041 -15.938266967410499" fill="#ffcc13" stroke="none" /><path d="M 103.7750983002368 120.6578951692458 l 1.542121071705175 8.43871414833678 a29.578463375053627,29.578463375053627 0 0,0 -0.5016381025381738,0.08721621415941322 l -1.3966339976949513 -8.464008941017198" fill="#ff6509" stroke="none" /><path d="M 103.41894727170886 120.7198165907248 l 0.7708510898578999 4.671582195133687 a25.734753595344237,25.734753595344237 0 0,0 -0.4376919544347016,0.06835848169302176 l -0.6903232718146811 -4.6841589841738145" fill="#ff2f04" stroke="none" /><path d="M 103.06178313531738 120.77559828337769 l 2.144664549980523 14.5525294162866 a35.7097144242786,35.7097144242786 0 0,0 -0.6088870358198762,0.08438619497332871 l -1.8938489229738165 -14.58729017675253" fill="#ffb711" stroke="none" /><path d="M 102.70371172650421 120.8252237178851 l 0.2721627706262848 2.0963220784266565 a23.113915521068435,23.113915521068435 0 0,0 -0.3949976393532632,0.04782871324071113 l -0.2360377082216413 -2.1006963203927187" fill="#ff0901" stroke="none" /><path d="M 102.34483914955558 120.86867818915974 l 1.6434562131754906 14.626486783639127 a35.71852791404749,35.71852791404749 0 0,0 -0.6115818254821122,0.06339295681843678 l -1.3914417910877759 -14.652609108913323" fill="#ffb811" stroke="none" /><path d="M 101.98527174616119 120.90594882070398 l 0.2571528851034275 2.7079542462959774 a23.72013672567197,23.72013672567197 0 0,0 -0.40680676312849057,0.03510099927631396 l -0.21050180423339523 -2.7119794978509546" fill="#ff1202" stroke="none" /><path d="M 101.62511606390274 120.93702456842531 l 0.39999662422317267 5.153317559692159 a26.168817966462107,26.168817966462107 0 0,0 -0.44940239357636286,0.0309934202322806 l -0.3112314698678794 -5.159439324440724" fill="#ff3605" stroke="none" /><path d="M 101.26447882468166 120.96189622390904 l 0.619137288017266 10.26374766144284 a31.282404730372498,31.282404730372498 0 0,0 -0.5377772074468132,0.02779693891484573 l -0.44237201215697314 -10.272884407119887" fill="#ff7d0b" stroke="none" /><path d="M 100.90346689309514 120.98055641714683 l 0.6332239374018388 14.704900251334468 a35.71852791404749,35.71852791404749 0 0,0 -0.6144941525469616,0.021164421083699467 l -0.3800094331802249 -14.713621470844263" fill="#ffb811" stroke="none" /><line stroke="#e1ed5e" stroke-width="0.3" x1="102.19456741930631" x2="102.32365962044197" y1="184.97166512339345" y2="189.96999836594603" /><path d="M 102.22038585953345 185.97133177190398 a86.0,86.0 0 0,1 -42.740103519485714,-10.115201625700543" fill="none" id="id67" stroke="none" /><text fill="#e1ed5e" style="font-size:6.75px; font-family:Arial;" text-anchor="middle"><textPath startOffset="22.20632615414155" xlink:href="#id67">July</textPath></text><path d="M 100.54218724476979 120.99299961872073 l 0.06920570994683374 2.6795824810375843 a23.68047602171196,23.68047602171196 0 0,0 -0.4075751712750863,0.0070167761945436925 l -0.023070848779079504 -2.6803767345112877" fill="#ff1202" stroke="none" /><path d="M 100.18074693466247 120.99922214144158 l 0.12693518289234895 14.747359937797754 a35.747906213277126,35.747906213277126 0 0,0 -0.6153642351095986,0.0 l 0.1269351828923388 -14.747359937797754" fill="#ffb811" stroke="none" /><path d="M 99.81925306533755 120.99922214144158 l -0.11972870338550279 13.910109423400867 a34.910624685232506,34.910624685232506 0 0,0 -0.6008622386795771,-0.01034438834774233 l 0.35915063195774777 -13.905987557773964" fill="#ffad10" stroke="none" /><path d="M 98.37488393609728 120.93702456842531 l -1.2979428938963755 16.721920890167393 a37.77221792169517,37.77221792169517 0 0,0 -0.6478037579049186,-0.055895234048092754 l 1.5855909695428358 -16.697101403840637" fill="#ffd213" stroke="none" /><path d="M 98.01472825383883 120.90594882070398 l -1.3900531266256024 14.637985746529178 a35.703838764432675,35.703838764432675 0 0,0 -0.6113303140828389,-0.06336688663352844 l 1.6418160373140347 -14.61188949143989" fill="#ffb711" stroke="none" /><path d="M 97.65516085044442 120.86867818915974 l -0.16537893211026392 1.4718449724494351 a22.481106955662085,22.481106955662085 0 0,0 -0.3841834659921804,-0.04651926744891353 l 0.19068982115383365 -1.468780176275173" fill="#ff0000" stroke="none" /><path d="M 97.2962882734958 120.8252237178851 l -8.111135179512582 62.47567115365527 a84.0,84.0 0 0,0 -1.4322856352526758,-0.19850173802958038 l 9.185349405952088 -62.32679485013308" fill="#4dd2ff" stroke="none" /><path d="M 96.58105272829116 120.7198165907248 l -1.4119874056833037 8.557055066704406 a29.672767715580754,29.672767715580754 0 0,0 -0.503237463865478,-0.08749428362689317 l 1.5590738410208316 -8.531482204556507" fill="#ff6709" stroke="none" /><path d="M 95.86986931433489 120.58985236759428 l -2.901351131045824 14.46404387689881 a35.752166066665424,35.752166066665424 0 0,0 -0.602353410799084,-0.1262290138054639 l 3.1498960032742946 -14.411958882366804" fill="#ffb811" stroke="none" /><path d="M 95.16358092515715 120.4354850818985 l -2.824800363377231 11.935724508532703 a33.265439928372906,33.265439928372906 0 0,0 -0.5560820675441599,-0.13667144279286858 l 3.0298357156646016 -11.885331807425805" fill="#ff970e" stroke="none" /><path d="M 94.81253420990036 120.34920634021253 l -3.1677204548205964 12.426221159140992 a33.82362761373599,33.82362761373599 0 0,0 -0.5629371957040928,-0.1486768298420041 l 3.3811480933361784 -12.369852979995407" fill="#ff9f0e" stroke="none" /><path d="M 94.46302465271185 120.25689768951611 l -0.387302187094637 1.416936194730288 a22.468914961481786,22.468914961481786 0 0,0 -0.3722016762670206,-0.10518791153511549 l 0.4116350314662715 -1.4100594898566514" fill="#ff0000" stroke="none" /><path d="M 94.11515582081647 120.15858648285463 l -0.5503972005735516 1.8853905438873284 a22.964086194997297,22.964086194997297 0 0,0 -0.3784973771999922,-0.11403815488902837 l 0.5827695522137897 -1.8756370198925745" fill="#ff0701" stroke="none" /><line stroke="#e1ed5e" stroke-width="0.3" x1="58.666819895761336" x2="56.23545636021788" y1="174.27360380694188" y2="178.64263932499728" /><path d="M 58.180547188652646 175.14741091055294 a86.0,86.0 0 0,1 -31.652253787137756,-30.449443065178592" fill="none" id="id68" stroke="none" /><text fill="#e1ed5e" style="font-size:6.75px; font-family:Arial;" text-anchor="middle"><textPath startOffset="22.20632615414155" xlink:href="#id68">August</textPath></text><line stroke="#e1ed5e" stroke-width="0.3" x1="26.63291911575756" x2="22.317208475507996" y1="142.92168965132927" y2="145.44649492493687" /><path d="M 25.769776987707644 143.4266507060508 a86.0,86.0 0 0,1 -11.730757126820373,-40.83630448921669" fill="none" id="id69" stroke="none" /><text fill="#e1ed5e" style="font-size:6.75px; font-family:Arial;" text-anchor="middle"><textPath startOffset="21.46611528233685" xlink:href="#id69">September</textPath></text><line stroke="#e1ed5e" stroke-width="0.3" x1="15.007084014347285" x2="10.007500721073583" y1="101.09737516637583" y2="101.16192664675087" /><path d="M 14.007167355692545 101.11028546245083 a86.0,86.0 0 0,1 10.666146001902534,-42.60595125391555" fill="none" id="id70" stroke="none" /><text fill="#e1ed5e" style="font-size:6.75px; font-family:Arial;" text-anchor="middle"><textPath startOffset="22.20632615414155" xlink:href="#id70">October</textPath></text><line stroke="#e1ed5e" stroke-width="0.3" x1="26.266209847984243" x2="21.928928074336255" y1="57.711370442889674" y2="55.22380399835377" /><path d="M 25.398753493254645 57.213857153982495 a86.0,86.0 0 0,1 29.58750427330803,-30.492523968695096" fill="none" id="id71" stroke="none" /><text fill="#e1ed5e" style="font-size:6.75px; font-family:Arial;" text-anchor="middle"><textPath startOffset="21.46611528233685" xlink:href="#id71">November</textPath></text><line stroke="#e1ed5e" stroke-width="0.3" x1="56.762969772571076" x2="54.21961505331055" y1="26.818313649435495" y2="22.513508569990535" /><path d="M 56.25429882871897 25.957352633546506 a86.0,86.0 0 0,1 42.265352541879196,-11.944610805530505" fill="none" id="id72" stroke="none" /><text fill="#e1ed5e" style="font-size:6.75px; font-family:Arial;" text-anchor="middle"><textPath startOffset="22.20632615414155" xlink:href="#id72">December</textPath></text></svg>