<?xml version="1.0" encoding="utf-8" ?>
<svg baseProfile="full" height="200mm" version="1.1" viewBox="0,0,200,200" width="200mm" xmlns="http://www.w3.org/2000/svg" xmlns:ev="http://www.w3.org/2001/xml-events" xmlns:xlink="http://www.w3.org/1999/xlink"><defs /><rect fill="#1a1a1a" height="200" width="200" x="0" y="0" /><text alignment-baseline="middle" fill="#e1ed5e" style="dominant-baseline: central; font-size:9.0px; font-family:Arial;" text-anchor="middle" x="100.0" y="100.0">2026</text><line stroke="#e1ed5e" stroke-width="0.3" x1="100.0" x2="100.0" y1="15.0" y2="10.0" /><path d="M 100.0 14.0 a86.0,86.0 0 0,1 42.46469731375804,11.215312516191453" fill="none" id="id61" stroke="none" /><text fill="#e1ed5e" style="font-size:6.75px; font-family:Arial;" text-anchor="middle"><textPath startOffset="22.20632615414155" xlink:href="#id61">January</textPath></text><path d="M 100.0 79.0 l 0.0 -20.80105472825572 a41.80105472825572,41.80105472825572 0 0,0 0.7195364427270031,0.006193277328313522 l -0.35805596345447477 20.79797282753597" fill="#fff917" stroke="none" /><path d="M 100.72285384407766 79.0124445844662 l 1.667416691144703 -48.4122765520297 a69.44098264251163,69.44098264251163 0 0,0 1.1942498804398274,0.05142691202309453 l -2.500507403973862 48.37640191348241" fill="#3aff96" stroke="none" /><path d="M 101.44485096284872 79.0497635885617 l 1.16588495507343 -16.905249098612362 a37.9454045338139,37.9454045338139 0 0,0 0.6512331458381537,0.05054822585648064 l -1.4567082902739248 16.882675610567418" fill="#ffc712" stroke="none" /><path d="M 101.80526077348638 79.07773832637324 l 1.3274445642831885 -15.384559914593376 a36.44172246988523,36.44172246988523 0 0,0 0.6244981067839304,0.059303620111301074 l -1.5920677981573632 15.359430749966897" fill="#ffb310" stroke="none" /><path d="M 102.52436894288641 79.15227682838746 l 2.3199580300607416 -19.15957765078649 a40.299523854690314,40.299523854690314 0 0,0 0.6879421785739614,0.0893146388516267 l -2.649414937142549 19.116804688770728" fill="#ffe615" stroke="none" /><path d="M 102.88285421437855 79.19881850522331 l 3.6476377303872574 -26.31946287070107 a47.5710253248601,47.5710253248601 0 0,0 0.8101368709039979,0.11939311565420768 l -4.100143581719911 26.252775270885895" fill="#bfff1e" stroke="none" /><path d="M 103.95276090670814 79.375362276772 l 5.0117694021576265 -26.15031131694316 a47.626239210850805,47.626239210850805 0 0,0 0.8038256650990206,0.16123986641962057 l -5.461161476723772 26.060167494446333" fill="#beff1e" stroke="none" /><path d="M 104.307194497241 79.44645832069477 l 3.5817163612075613 -17.091625781163305 a38.46288532675709,38.46288532675709 0 0,0 0.6468308477710846,0.14137217007200234 l -3.875389933132174 17.027440112995432" fill="#ffce13" stroke="none" /><path d="M 104.66035177308747 79.52364482259891 l 5.578577660519814 -24.510797279545805 a46.13761547946505,46.13761547946505 0 0,0 0.7728628697955722,0.1829116710827715 l -5.9996642172779096 24.411139696322167" fill="#d0ff1d" stroke="none" /><path d="M 105.01212808612495 79.60689891045804 l 4.901379213987642 -19.942491506897586 a41.53598027127004,41.53598027127004 0 0,0 0.6928421280371456,0.17662088521016334 l -5.243930230709813 19.855167625518554" fill="#fff517" stroke="none" /><path d="M 105.36241919743992 79.69619591428918 l 8.754959322991688 -33.14902702072503 a55.28567200986437,55.28567200986437 0 0,0 0.9180109774059674,0.25092707819062515 l -9.324268189621366 32.99341340170811" fill="#68ff28" stroke="none" /><path d="M 106.0581310904928 79.89281104454417 l 13.972855548966779 -46.37648848689913 a69.43572417717917,69.43572417717917 0 0,0 1.1414394115422037,0.35465078140851153 l -14.769080333219701 46.129097570608096" fill="#3aff96" stroke="none" /><path d="M 106.74666289553966 80.11325718540242 l 8.08163569893138 -23.82176390822376 a46.155303044674184,46.155303044674184 0 0,0 0.7501731208124036,0.26172067181609604 l -8.490490823807058 23.67912238323546" fill="#d0ff1d" stroke="none" /><path d="M 107.08798089147638 80.2323363322302 l 6.370510227776903 -17.766710365460778 a39.87430522621645,39.87430522621645 0 0,0 0.6440985276319783,0.23722692349793675 l -6.675391081181457 17.654420174156517" fill="#ffe015" stroke="none" /><path d="M 107.4271985657038 80.35727306442388 l 5.990141665566223 -15.842139671000524 a37.93679977236081,37.93679977236081 0 0,0 0.6088257233010662,0.23621492196569613 l -6.261950553866956 15.736682045144281" fill="#ffc712" stroke="none" /><path d="M 107.76421540070413 80.48803036053334 l 9.73346727873685 -24.46082549593251 a47.32626766574979,47.32626766574979 0 0,0 0.7543269133287613,0.30770888796762863 l -10.153078061653998 24.2896557217813" fill="#c2ff1e" stroke="none" /><path d="M 108.43124777332544 80.76684994638697 l 19.447417110967113 -44.36295807054737 a69.43835340984539,69.43835340984539 0 0,0 1.0905719342281064,0.489307837479296 l -20.208171163661998 44.021629902551545" fill="#3aff96" stroke="none" /><path d="M 109.08828744355905 81.06846463323043 l 9.316136835295897 -19.406161510006264 a42.526483922982074,42.526483922982074 0 0,0 0.6571936164774578,0.3224820534449487 l -9.648801718783787 19.242924296426484" fill="#fcff18" stroke="none" /><path d="M 109.41281617654863 81.2277094730956 l 7.7785234451158445 -15.512966496238644 a38.35389168168453,38.35389168168453 0 0,0 0.5876172575589935,0.30100038249982475 l -8.044401190263594 15.376773588426317" fill="#ffcd13" stroke="none" /><path d="M 109.73455568895987 81.39251694778311 l 6.666845683699944 -12.74359323989312 a35.38214170539695,35.38214170539695 0 0,0 0.5372271974858593,0.286968163540886 l -6.885217927714114 12.62694634985048" fill="#ffa50f" stroke="none" /><path d="M 110.36928655335952 81.73862282372117 l 13.57403833908738 -23.905273775564996 a48.490300673432614,48.490300673432614 0 0,0 0.7222821187804006,0.41839242328249865 l -13.98351719033311 23.668077194892447" fill="#b4ff20" stroke="none" /><line stroke="#e1ed5e" stroke-width="0.3" x1="143.23703022742887" x2="145.7803849466894" y1="26.81831364943548" y2="22.513508569990506" /><path d="M 143.74570117128098 25.957352633546492 a86.0,86.0 0 0,1 28.547481713284135,27.462654790039103" fill="none" id="id62" stroke="none" /><text fill="#e1ed5e" style="font-size:6.75px; font-family:Arial;" text-anchor="middle"><textPath startOffset="19.985693538727396" xlink:href="#id62">February</textPath></text><path d="M 111.2981086023043 82.29822771554956 l 9.557151831432288 -14.974057283661462 a38.76405197761548,38.76405197761548 0 0,0 0.5593707601633131,0.36383030232018987 l -9.813489617379881 14.807328057181746" fill="#ffd213" stroke="none" /><path d="M 111.90073688211348 82.69761687909136 l 9.888662377029064 -14.37704460618967 a38.449500142274495,38.449500142274495 0 0,0 0.5420809376524505,0.3797623389360926 l -10.134674454265165 14.204697424489643" fill="#ffce13" stroke="none" /><path d="M 112.48926042617603 83.11751280151076 l 16.045720373238797 -21.689968785019875 a47.97999051503368,47.97999051503368 0 0,0 0.659733657326299,0.4968977129850771 l -16.41670018432348 21.41055448252895" fill="#baff1f" stroke="none" /><path d="M 113.34407831869373 83.78471172551755 l 13.229812607737486 -16.076436313425802 a41.82017642037371,41.82017642037371 0 0,0 0.5519117475212673,0.46221021641690596 l -13.504581892217871 15.846324939615076" fill="#fff917" stroke="none" /><path d="M 113.89432698308785 84.25364557470407 l 16.279570300286966 -18.44953585386766 a45.605076353978944,45.605076353978944 0 0,0 0.5841554499555364,0.5244605306970376 l -16.594736737838495 18.166576314401325" fill="#d6ff1c" stroke="none" /><path d="M 114.42810811169701 84.74124197986012 l 25.464960779077018 -26.931020443718225 a58.064053874608746,58.064053874608746 0 0,0 0.7203170941965176,0.6929444739105641 l -25.924761116885954 26.48869288304536" fill="#4bff2c" stroke="none" /><path d="M 115.19652480421416 85.50635884689758 l 17.583747073088244 -16.770447420556476 a45.29889025893958,45.29889025893958 0 0,0 0.5333031404992258,0.5688906067984352 l -17.86981753555793 16.465287396879987" fill="#daff1c" stroke="none" /><path d="M 116.15771136456269 86.58626213691792 l 28.604252518372242 -23.74655273842583 a58.17663283695343,58.17663283695343 0 0,0 0.633021349007665,0.7760093245965637 l -29.008772359456316 23.25065924422117" fill="#4aff2c" stroke="none" /><path d="M 116.38621287248628 86.86637796730983 l 21.699181674848713 -17.391990007322445 a48.80891586834866,48.80891586834866 0 0,0 0.5198054697423188,0.6601001595008219 l -21.995341225184998 17.015897453868586" fill="#b1ff20" stroke="none" /><path d="M 116.60985879189232 87.15038557335679 l 20.045829353474932 -15.507728348670314 a46.34412975433937,46.34412975433937 0 0,0 0.48269410507855065,0.6351688615163641 l -20.309799398777596 15.160374711272917" fill="#ceff1d" stroke="none" /><path d="M 117.04232023915458 87.72973835380427 l 20.029858536224246 -14.421252595119094 a45.68132410129944,45.68132410129944 0 0,0 0.4539578976471392,0.6420912525932456 l -20.27512905367527 14.074334842194055" fill="#d6ff1c" stroke="none" /><path d="M 117.65298651832404 88.62581576622439 l 22.241456996823068 -14.330630641272405 a47.45844636251542,47.45844636251542 0 0,0 0.4365553410609278,0.6905257105664647 l -22.48483993412995 13.945657282991736" fill="#c0ff1e" stroke="none" /><line stroke="#e1ed5e" stroke-width="0.3" x1="172.23445277983987" x2="176.4835382374775" y1="55.19839476539836" y2="52.563006222186495" /><path d="M 173.08426987136738 54.67131705675599 a86.0,86.0 0 0,1 12.851231095245387,41.99856678651699" fill="none" id="id63" stroke="none" /><text fill="#e1ed5e" style="font-size:6.75px; font-family:Arial;" text-anchor="middle"><textPath startOffset="22.20632615414155" xlink:href="#id63">March</textPath></text><path d="M 118.21658344932153 89.55222093294921 l 21.41287420064762 -12.280951555010192 a45.68467039742009,45.68467039742009 0 0,0 0.3853662033798456,0.6855234754962306 l -21.6210980453199 11.910544569579168" fill="#d6ff1c" stroke="none" /><path d="M 118.56541770881063 90.18545643968196 l 17.21887463629112 -9.102698244022497 a40.476877549084705,40.476877549084705 0 0,0 0.32032739160909274,0.6187705624278109 l -17.373011461060326 8.80495495933434" fill="#ffe815" stroke="none" /><path d="M 118.89224826269711 90.83032412892265 l 23.729939667398682 -11.517732149429323 a47.37741819216542,47.37741819216542 0 0,0 0.34978478512513167,0.7367359637153075 l -23.92468264636557 11.107553770073475" fill="#c1ff1e" stroke="none" /><path d="M 119.04729006885535 91.15688171328212 l 25.90380863750942 -12.026406015234594 a49.55944228397989,49.55944228397989 0 0,0 0.3525745642769203,0.7768513168546778 l -26.10698551874969 11.578732689537853" fill="#a8ff21" stroke="none" /><path d="M 119.34039704204932 91.81776055985345 l 22.21876469743572 -9.399975213716228 a45.125360902968794,45.125360902968794 0 0,0 0.2964914845734845,0.7179776473882938 l -22.3772778688954 9.01612299587463" fill="#dcff1b" stroke="none" /><path d="M 119.47837535516314 92.15188598940014 l 22.020559220164024 -8.872395987132656 a44.740775870245656,44.740775870245656 0 0,0 0.2816675787306502,0.7168132649180395 l -22.170020348776372 8.492033717318833" fill="#e1ff1b" stroke="none" /><path d="M 119.61058180528143 92.48833698450437 l 15.27783924301733 -5.852043612880163 a37.360280755003316,37.360280755003316 0 0,0 0.2248651457011169,0.6025267945622808 l -15.376308977220074 5.588193681288549" fill="#ffc011" stroke="none" /><path d="M 119.7369772167798 92.82701384747503 l 14.75336706897236 -5.361798644570896 a36.697475101963384,36.697475101963384 0 0,0 0.2106555983619241,0.5955517437571113 l -14.843475748144092 5.10704927438717" fill="#ffb711" stroke="none" /><path d="M 119.85752413597 93.16781622104841 l 31.665283000742093 -10.894763687165653 a54.487102342786685,54.487102342786685 0 0,0 0.2975066004361166,0.8895068679491368 l -31.848126894949978 10.348083716294202" fill="#71ff27" stroke="none" /><path d="M 120.08093135843002 93.85539295169968 l 32.34746055996804 -9.898068501088483 a54.827946504789914,54.827946504789914 0 0,0 0.26838045591273607,0.9048454782663569 l -32.51304691299248 9.339793636075596" fill="#6dff28" stroke="none" /><path d="M 120.28053869075195 94.5502522615342 l 12.088455248365614 -3.2483866753187742 a33.51729868158968,33.51729868158968 0 0,0 0.14492826981366716,0.5584677435540492 l -12.142579850049584 3.039822506215875" fill="#ff8c0c" stroke="none" /><path d="M 120.6074358757038 95.95851677861258 l 50.10099043447311 -9.825691727836077 a72.05539599734422,72.05539599734422 0 0,0 0.2282244049119892,1.2191838969034623 l -50.262700563294956 8.96182975347005" fill="#3effb3" stroke="none" /><path d="M 120.67395015179393 96.31383870115 l 11.791152060964535 -2.102360123578575 a32.97711087925638,32.97711087925638 0 0,0 0.09482982563997591,0.5596909989357794 l -11.825593748124733 1.8990833363269575" fill="#ff840c" stroke="none" /><path d="M 120.78858239683441 97.02765380044208 l 15.91376531554391 -2.275346098804518 a37.0756065635967,37.0756065635967 0 0,0 0.08489254766358469,0.6325480851696971 l -15.950573862265331 2.001079671570157" fill="#ffbc11" stroke="none" /><path d="M 120.94382443527127 98.46500227214037 l 50.595814150579756 -3.708227215157244 a71.7315223370957,71.7315223370957 0 0,0 0.07965412891688758,1.2322141185922955 l -50.65214887050106 2.836754032311913" fill="#3dffb0" stroke="none" /><path d="M 120.96714384426684 98.82574320788733 l 7.982271011701083 -0.4470440047339604 a28.994779474532866,28.994779474532866 0 0,0 0.023618859851177832,0.4985568016271063 l -7.988783479785757 0.3095760964838543" fill="#ff4c07" stroke="none" /><line stroke="#e1ed5e" stroke-width="0.3" x1="184.98032266829074" x2="189.97916517819016" y1="98.17113171792111" y2="98.06355123074" /><path d="M 185.9800911702706 98.14961562048488 a86.0,86.0 0 0,1 -9.607161424134198,41.387399972396054" fill="none" id="id64" stroke="none" /><text fill="#e1ed5e" style="font-size:6.75px; font-family:Arial;" text-anchor="middle"><textPath startOffset="21.466115282336823" xlink:href="#id64">April</textPath></text><path d="M 120.99980553446 99.90962569577887 l 13.492141016513678 -0.058064483255327884 a34.492265958455846,34.492265958455846 0 0,0 -0.002555224363940605,0.5937441532980708 l -13.491141494860234 -0.17418914824642762" fill="#ff990e" stroke="none" /><path d="M 120.9904718944345 100.63252640178507 l 37.1709939776955 1.120109885558134 a58.187866831072746,58.187866831072746 0 0,0 -0.03878600140824936,1.0008943546239282 l -37.14620584343605 -1.7597814871960684" fill="#4aff2c" stroke="none" /><path d="M 120.92983693683757 101.71520430193887 l 17.823573591318414 1.4606454026379325 a38.88332353220146,38.88332353220146 0 0,0 -0.060408768015579505,0.6666057212704696 l -17.79579022702576 -1.7672325124569725" fill="#ffd313" stroke="none" /><path d="M 120.89721153311464 102.0752229133903 l 26.166488117397428 2.598494809612752 a47.29519491605805,47.29519491605805 0 0,0 -0.08742336270002501,0.8094317623812847 l -26.11788245319635 -3.048522893878828" fill="#c2ff1e" stroke="none" /><path d="M 120.81339534386255 102.79330883721812 l 20.297591119690647 2.7240841636917605 a41.47957127952196,41.47957127952196 0 0,0 -0.10106388704482233,0.7068405906042048 l -20.247693181629224 -3.0730702262763745" fill="#fff517" stroke="none" /><path d="M 120.70491114924044 103.5080841355445 l 37.73238813158136 6.393091534974497 a59.27015460495116,59.27015460495116 0 0,0 -0.17909057965668895,1.004435079287872 l -37.61675110958548 -7.0416453649955875" fill="#3fff2d" stroke="none" /><path d="M 120.64145759157962 103.86396538481128 l 16.368756141370035 3.064139576483789 a37.65308166556009,37.65308166556009 0 0,0 -0.12473940072122894,0.6360435168784324 l -16.313586807673143 -3.3454468204301664" fill="#ffc312" stroke="none" /><path d="M 120.5718875245553 104.21870165774334 l 19.779685463000757 4.056243830460419 a41.191311770843214,41.191311770843214 0 0,0 -0.1484181048258102,0.6933599748149127 l -19.706933319450506 -4.396117624691501" fill="#fff116" stroke="none" /><path d="M 120.49622156327973 104.57218783832717 l 39.19760943633065 8.743993745528735 a61.16105093426918,61.16105093426918 0 0,0 -0.23806046145046647,1.0255582373074767 l -39.04128840894963 -9.417420640184778" fill="#30ff34" stroke="none" /><path d="M 120.32669344350535 105.2749913415812 l 27.486208720806708 7.132961070039423 a49.39666887982548,49.39666887982548 0 0,0 -0.22066650142498553,0.8211821417558243 l -27.359354143039944 -7.605034144970795" fill="#aaff21" stroke="none" /><path d="M 120.13307415673323 105.97154293290107 l 47.27718632750389 14.02258520997083 a70.31293180309211,70.31293180309211 0 0,0 -0.3541536062556781,1.157394476434076 l -47.02880594874208 -14.834306658956963" fill="#3bffa0" stroke="none" /><path d="M 120.02730092923936 106.31721596034902 l 14.600193013576181 4.605342110522864 a36.30930475196813,36.30930475196813 0 0,0 -0.19314431909559268,0.5944370911794338 l -14.51875644346434 -4.855978101680092" fill="#ffb210" stroke="none" /><path d="M 119.9155931802556 106.66101706037122 l 21.081098348824103 7.050834714383273 a43.228967087166836,43.228967087166836 0 0,0 -0.24210109039543412,0.7036590936975162 l -20.956606427485436 -7.412666511170089" fill="#f3ff19" stroke="none" /><path d="M 119.79798401119884 107.00284435728193 l 22.996608126281412 8.134245757682162 a45.39282557146922,45.39282557146922 0 0,0 -0.2669006039284763,0.7343958327630044 l -22.85318326134771 -8.528889387451297" fill="#d9ff1c" stroke="none" /><path d="M 119.54520255179757 107.68017299344265 l 29.342830882087828 11.53009372476622 a52.52688987954093,52.52688987954093 0 0,0 -0.3379164525674195,0.8386809229457617 l -29.140011815263016 -12.033474015554795" fill="#86ff25" stroke="none" /><path d="M 119.26925614724726 108.34839909993367 l 35.15554517334223 15.231128770102266 a59.313178412216644,59.313178412216644 0 0,0 -0.41394643282071203,0.9333399273439521 l -34.88815765579025 -15.834017033938906" fill="#3eff2d" stroke="none" /><path d="M 119.12269723197855 108.67885076344098 l 29.791577042484626 13.520930024813598 a53.71625912928009,53.71625912928009 0 0,0 -0.38937991085169377,0.8386896871114884 l -29.5544225147931 -14.031739779203917" fill="#79ff26" stroke="none" /><path d="M 118.81262510543309 109.33194174019688 l 2.5003322396601613 1.2402817076765136 a23.791049985772553,23.791049985772553 0 0,0 -0.18514119218363406,0.3653011365277635 l -2.478612377690258 -1.2831370559069715" fill="#ff0000" stroke="none" /><path d="M 118.64920377521936 109.65438752849418 l 25.51419095644162 13.208279020297837 a49.73034240728445,49.73034240728445 0 0,0 -0.40008650546799723,0.7568128918092084 l -25.28305194274873 -13.64550692719318" fill="#a6ff21" stroke="none" /><line stroke="#e1ed5e" stroke-width="0.3" x1="174.80103733775053" x2="179.2010983576182" y1="140.37084112569926" y2="142.7455964860345" /><path d="M 175.68104954172406 140.8457921977663 a86.0,86.0 0 0,1 -30.038265399797805,32.042727171017184" fill="none" id="id65" stroke="none" /><text fill="#e1ed5e" style="font-size:6.75px; font-family:Arial;" text-anchor="middle"><textPath startOffset="22.206326154141568" xlink:href="#id65">May</textPath></text><path d="M 118.30583269289576 110.29060199501025 l 21.259838125607267 11.951192622549922 a45.38876221189415,45.38876221189415 0 0,0 -0.388718013377308,0.6777626214621928 l -21.050968116077577 -12.315375089870429" fill="#d9ff1c" stroke="none" /><path d="M 118.12598468904814 110.60418214915192 l 3.3776946371518113 1.9760410146552074 a24.913254291947265,24.913254291947265 0 0,0 -0.21973386397437403,0.3682865950892923 l -3.34317989747921 -2.033889703630604" fill="#ff1101" stroke="none" /><path d="M 117.75023020441432 111.22182372390056 l 52.754701063947685 33.351902996698236 a83.4132030731291,83.4132030731291 0 0,0 -0.7777094996124361,1.2070224140614008 l -52.1727867009582 -34.25504701068109" fill="#4cd7ff" stroke="none" /><path d="M 117.55443506779139 111.5257021239791 l 12.15786572444319 7.982480681498672 a35.54419804609694,35.54419804609694 0 0,0 -0.340203496568181,0.5085580679528674 l -12.018659122464285 -8.190575663657347" fill="#ffa70f" stroke="none" /><path d="M 117.14729908036423 112.12312394758627 l 13.713025074281159 9.695095530364869 a37.79410414493029,37.79410414493029 0 0,0 -0.3801370725938222,0.5279771461048884 l -13.544108209311734 -9.929706281920888" fill="#ffc512" stroke="none" /><path d="M 116.93607887273984 112.41649034213515 l 34.130335360620215 25.022260616717205 a63.320128995542056,63.320128995542056 0 0,0 -0.6520125946047327,0.8734774208484433 l -33.69456149932039 -25.606050917074963" fill="#33ff4e" stroke="none" /><path d="M 116.498646956653 112.99209946851258 l 18.778693301701228 14.78755511924034 a44.90211514749123,44.90211514749123 0 0,0 -0.48340780693800894,0.603125566503415 l -18.521367582708365 -15.108608519322004" fill="#dfff1b" stroke="none" /><path d="M 116.27256486870786 113.27417163493432 l 18.743623993700858 15.289911821553863 a45.18894052926112,45.18894052926112 0 0,0 -0.49687176803710337,0.5985140529128226 l -18.47765622577021 -15.610287131580456" fill="#dbff1b" stroke="none" /><path d="M 115.80600337817218 113.82643327865902 l 13.486989979187838 11.797856967100554 a38.91893768377122,38.91893768377122 0 0,0 -0.4454201073039148,0.5004342124220859 l -13.281911022235585 -12.028265349263506" fill="#ffd413" stroke="none" /><path d="M 115.56566222782051 114.09645910891815 l 46.696986683461546 42.289377326754476 a84.0,84.0 0 0,0 -0.9798143680171121,1.0633949807946608 l -45.96212590744871 -43.08692356235047" fill="#4dd2ff" stroke="none" /><path d="M 115.07121518719521 114.62390073753431 l 27.478643479917572 26.66307591399958 a59.28832021246324,59.28832021246324 0 0,0 -0.7169916544125914,0.7263087605035461 l -27.015611200449445 -27.132125168483793" fill="#3fff2d" stroke="none" /><path d="M 114.55890576462653 115.13401014063108 l 13.93611656801773 14.486619590178206 a41.10167883904012,41.10167883904012 0 0,0 -0.5140922941615939,0.48610635215288917 l -13.68468843946533 -14.724360579077016" fill="#fff016" stroke="none" /><path d="M 114.29624159901734 115.38237550388516 l 16.385827893628523 17.630714748074386 a45.06942995352367,45.06942995352367 0 0,0 -0.5728119599936706,0.5232501442137331 l -16.07991638416799 -17.910157658874702" fill="#ddff1b" stroke="none" /><path d="M 113.75828350139079 115.86535959552629 l 17.690362560012687 20.39963512610164 a48.001741439817884,48.001741439817884 0 0,0 -0.6289017264055283,0.5359636949743686 l -17.33659535703011 -20.701123211298956" fill="#baff1f" stroke="none" /><path d="M 113.20401910651253 116.32954008644616 l 3.163704519144782 3.9125844449562157 a26.03163425969838,26.03163425969838 0 0,0 -0.3508599537871396,0.27874436704897354 l -3.095887072640291 -3.966462726010315" fill="#ff2103" stroke="none" /><path d="M 112.63410532772338 116.77436683061366 l 18.347122410489337 24.35956908831459 a51.49599165322964,51.49599165322964 0 0,0 -0.7126432922680332,0.527196470724965 l -17.925094147802742 -24.671775507779323" fill="#92ff23" stroke="none" /><path d="M 112.34349029814194 116.9893568818739 l 23.90855511687302 32.90730300745258 a61.675663473394664,61.675663473394664 0 0,0 -0.864260109381371,0.6166266405144809 l -23.338567679642765 -33.31397390981128" fill="#30ff3a" stroke="none" /><path d="M 112.04921762599082 117.19931262002967 l 9.858026886167277 14.071559788754854 a38.181079389168175,38.181079389168175 0 0,0 -0.541522458749089,0.37246408499303174 l -9.614347542795304 -14.23916466311298" fill="#ffca12" stroke="none" /><path d="M 111.7513745106137 117.40417183066458 l 3.2896715100659484 4.872111613489846 a26.878725220525467,26.878725220525467 0 0,0 -0.38567809402669334,0.2556064103372202 l -3.2053187172992907 -4.928016044918385" fill="#ff2e04" stroke="none" /><path d="M 111.45004920935366 117.60387380957326 l 20.89784396320769 32.12938226675331 a59.327758702456606,59.327758702456606 0 0,0 -0.8608689390670056,0.5494472875166914 l -20.341693222093756 -32.48434398309381" fill="#3eff2d" stroke="none" /><path d="M 111.1453310114006 117.79835938074945 l 1.5856963404250122 2.5322525913994296 a23.987764393436404,23.987764393436404 0 0,0 -0.3518443038238837,0.21613150848770202 l -1.5418728366688197 -2.5591725667155094" fill="#ff0300" stroke="none" /><line stroke="#e1ed5e" stroke-width="0.3" x1="143.8653032363475" x2="146.44561519142675" y1="172.8068346515853" y2="177.08958963109032" /><path d="M 144.38136562736335 173.6633856474863 a86.0,86.0 0 0,1 -40.68145358897372,12.25698825130547" fill="none" id="id66" stroke="none" /><text fill="#e1ed5e" style="font-size:6.75px; font-family:Arial;" text-anchor="middle"><textPath startOffset="21.466115282336833" xlink:href="#id66">June</textPath></text><path d="M 110.5260780823613 118.17145234162733 l 12.220354332552612 21.096327104383803 a45.38015745044105,45.38015745044105 0 0,0 -0.6793004024693465,0.38572449717357293 l -11.855405163162066 -21.303554767352004" fill="#d9ff1c" stroke="none" /><path d="M 110.21172684928248 118.3499491758327 l 11.867028109400461 21.324440605359214 a45.40405956558854,45.40405956558854 0 0,0 -0.6862006073654702,0.37417128361339574 l -11.498204690166343 -21.52555254073238" fill="#d9ff1c" stroke="none" /><path d="M 109.57404056367764 118.69057910512821 l 12.204790398921313 23.82636661035029 a47.77036896519017,47.77036896519017 0 0,0 -0.7350860980787589,0.3685874297137634 l -11.792850393159794 -24.03292188097336" fill="#bdff1f" stroke="none" /><line stroke="#e1ed5e" stroke-width="0.3" x1="102.19456741930631" x2="102.32365962044197" y1="184.97166512339345" y2="189.96999836594603" /><path d="M 102.22038585953345 185.97133177190398 a86.0,86.0 0 0,1 -42.740103519485714,-10.115201625700543" fill="none" id="id67" stroke="none" /><text fill="#e1ed5e" style="font-size:6.75px; font-family:Arial;" text-anchor="middle"><textPath startOffset="22.20632615414155" xlink:href="#id67">July</textPath></text><line stroke="#e1ed5e" stroke-width="0.3" x1="58.666819895761336" x2="56.23545636021788" y1="174.27360380694188" y2="178.64263932499728" /><path d="M 58.180547188652646 175.14741091055294 a86.0,86.0 0 0,1 -31.652253787137756,-30.449443065178592" fill="none" id="id68" stroke="none" /><text fill="#e1ed5e" style="font-size:6.75px; font-family:Arial;" text-anchor="middle"><textPath startOffset="22.20632615414155" xlink:href="#id68">August</textPath></text><line stroke="#e1ed5e" stroke-width="0.3" x1="26.63291911575756" x2="22.317208475507996" y1="142.92168965132927" y2="145.44649492493687" /><path d="M 25.769776987707644 143.4266507060508 a86.0,86.0 0 0,1 -11.730757126820373,-40.83630448921669" fill="none" id="id69" stroke="none" /><text fill="#e1ed5e" style="font-size:6.75px; font-family:Arial;" text-anchor="middle"><textPath startOffset="21.46611528233685" xlink:href="#id69">September</textPath></text><line stroke="#e1ed5e" stroke-width="0.3" x1="15.007084014347285" x2="10.007500721073583" y1="101.09737516637583" y2="101.16192664675087" /><path d="M 14.007167355692545 101.11028546245083 a86.0,86.0 0 0,1 10.666146001902534,-42.60595125391555" fill="none" id="id70" stroke="none" /><text fill="#e1ed5e" style="font-size:6.75px; font-family:Arial;" text-anchor="middle"><textPath startOffset="22.20632615414155" xlink:href="#id70">October</textPath></text><line stroke="#e1ed5e" stroke-width="0.3" x1="26.266209847984243" x2="21.928928074336255" y1="57.711370442889674" y2="55.22380399835377" /><path d="M 25.398753493254645 57.213857153982495 a86.0,86.0 0 0,1 29.58750427330803,-30.492523968695096" fill="none" id="id71" stroke="none" /><text fill="#e1ed5e" style="font-size:6.75px; font-family:Arial;" text-anchor="middle"><textPath startOffset="21.46611528233685" xlink:href="#id71">November</textPath></text><line stroke="#e1ed5e" stroke-width="0.3" x1="56.762969772571076" x2="54.21961505331055" y1="26.818313649435495" y2="22.513508569990535" /><path d="M 56.25429882871897 25.957352633546506 a86.0,86.0 0 0,1 42.265352541879196,-11.944610805530505" fill="none" id="id72" stroke="none" /><text fill="#e1ed5e" style="font-size:6.75px; font-family:Arial;" text-anchor="middle"><textPath startOffset="22.20632615414155" xlink:href="#id72">December</textPath></text></svg>