<?xml version="1.0" encoding="utf-8" ?>
<svg baseProfile="full" height="200mm" version="1.1" viewBox="0,0,200,200" width="200mm" xmlns="http://www.w3.org/2000/svg" xmlns:ev="http://www.w3.org/2001/xml-events" xmlns:xlink="http://www.w3.org/1999/xlink"><defs /><rect fill="#1a1a1a" height="200" width="200" x="0" y="0" /><text alignment-baseline="middle" fill="#e1ed5e" style="dominant-baseline: central; font-size:9.0px; font-family:Arial;" text-anchor="middle" x="100.0" y="100.0">2022</text><line stroke="#e1ed5e" stroke-width="0.3" x1="100.0" x2="100.0" y1="15.0" y2="10.0" /><path d="M 100.0 14.0 a86.0,86.0 0 0,1 42.46469731375804,11.215312516191453" fill="none" id="id13" stroke="none" /><text fill="#e1ed5e" style="font-size:6.75px; font-family:Arial;" text-anchor="middle"><textPath startOffset="22.20632615414155" xlink:href="#id13">January</textPath></text><path d="M 105.71112130821622 79.79150937346287 l 4.654732020196189 -16.470514864366752 a38.11561830835117,38.11561830835117 0 0,0 0.6298329719294236,0.1838655156634683 l -4.93755520984904 16.38795101978458" fill="#ff880c" stroke="none" /><line stroke="#e1ed5e" stroke-width="0.3" x1="143.23703022742887" x2="145.7803849466894" y1="26.81831364943548" y2="22.513508569990506" /><path d="M 143.74570117128098 25.957352633546492 a86.0,86.0 0 0,1 28.547481713284135,27.462654790039103" fill="none" id="id14" stroke="none" /><text fill="#e1ed5e" style="font-size:6.75px; font-family:Arial;" text-anchor="middle"><textPath startOffset="19.985693538727396" xlink:href="#id14">February</textPath></text><path d="M 111.60114157652 82.49532879139004 l 18.066697500918067 -27.26038618639563 a53.703733940042824,53.703733940042824 0 0,0 0.7661612657750905,0.5173155067215366 l -18.5332634610997 26.945358767375424" fill="#9dff22" stroke="none" /><path d="M 112.19680574252982 82.90503203632743 l 10.18707511750269 -14.278141872013892 a38.539721627408994,38.539721627408994 0 0,0 0.5367200998265212,0.38994997815924803 l -10.431340533683 14.100672659037969" fill="#ff8f0d" stroke="none" /><path d="M 113.34407831869373 83.78471172551755 l 9.934837752528532 -12.072490453820377 a36.63476980728051,36.63476980728051 0 0,0 0.48347858749168965,0.4048994129244599 l -10.14117387697934 11.899689883502099" fill="#ff720a" stroke="none" /><path d="M 113.89432698308785 84.25364557470407 l 17.020364602369025 -19.289073432839434 a46.72471895074946,46.72471895074946 0 0,0 0.598496952638906,0.5373364734086661 l -17.34987254260392 18.99323795066147" fill="#f9ff18" stroke="none" /><path d="M 114.42810811169701 84.74124197986012 l 11.82363377804378 -12.50433981650435 a38.209207708779445,38.209207708779445 0 0,0 0.4740066122109812,0.4559939853920173 l -12.03712363386718 12.298962744350032" fill="#ff8a0c" stroke="none" /><path d="M 114.94478906791727 85.2469230424477 l 16.630678080945568 -16.417339346139133 a44.368964132762315,44.368964132762315 0 0,0 0.5318692311757746,0.5481379953519674 l -16.910811575824454 16.128637155237055" fill="#ffe415" stroke="none" /><path d="M 115.9244219780498 86.31012108654704 l 25.93366285330556 -22.294605401278428 a55.199478051391864,55.199478051391864 0 0,0 0.613212017640026,0.7258496118588774 l -26.313585484432704 21.844896839790444" fill="#8bff24" stroke="none" /><path d="M 117.45458315368197 88.32363383020206 l 13.105887757684325 -8.767275797515302 a36.76798715203426,36.76798715203426 0 0,0 0.3473758267657231,0.5290772162497962 l -13.254860219807973 8.540380517287831" fill="#ff740a" stroke="none" /><line stroke="#e1ed5e" stroke-width="0.3" x1="172.23445277983987" x2="176.4835382374775" y1="55.19839476539836" y2="52.563006222186495" /><path d="M 173.08426987136738 54.67131705675599 a86.0,86.0 0 0,1 12.851231095245387,41.99856678651699" fill="none" id="id15" stroke="none" /><text fill="#e1ed5e" style="font-size:6.75px; font-family:Arial;" text-anchor="middle"><textPath startOffset="22.20632615414155" xlink:href="#id15">March</textPath></text><path d="M 118.21658344932153 89.55222093294921 l 13.885268920940293 -7.963635023886656 a37.006879014989295,37.006879014989295 0 0,0 0.31216599224384606,0.5553084677843408 l -14.020292554476573 7.723443046167522" fill="#ff780b" stroke="none" /><path d="M 119.04729006885535 91.15688171328212 l 13.696102794693 -6.358713320513631 a36.10021413276232,36.10021413276232 0 0,0 0.25682325469341555,0.5658759985044798 l -13.803528366349761 6.122015313167088" fill="#ff6909" stroke="none" /><path d="M 119.97218684219823 93.5106431181261 l 14.75354423102213 -4.793717109902458 a36.51279443254818,36.51279443254818 0 0,0 0.18907457937325653,0.5994180859013026 l -14.833874294163591 4.539048857574737" fill="#ff700a" stroke="none" /><line stroke="#e1ed5e" stroke-width="0.3" x1="184.98032266829074" x2="189.97916517819016" y1="98.17113171792111" y2="98.06355123074" /><path d="M 185.9800911702706 98.14961562048488 a86.0,86.0 0 0,1 -9.607161424134198,41.387399972396054" fill="none" id="id16" stroke="none" /><text fill="#e1ed5e" style="font-size:6.75px; font-family:Arial;" text-anchor="middle"><textPath startOffset="21.466115282336823" xlink:href="#id16">April</textPath></text><path d="M 120.9904718944345 100.63252640178507 l 9.950247785075884 0.29984054003248384 a30.954764453961456,30.954764453961456 0 0,0 -0.02063336573565953,0.532455487337759 l -9.943612286489023 -0.4710732743842491" fill="#ff1702" stroke="none" /><path d="M 120.8583938346157 102.4346265915055 l 17.559909070833317 2.0496219367246047 a38.67912205567451,38.67912205567451 0 0,0 -0.08288105315058582,0.6606435410057756 l -17.522026508435886 -2.351583232017775" fill="#ff910d" stroke="none" /><path d="M 120.70491114924044 103.5080841355445 l 16.79890970973705 2.846280682993171 a38.03832976445396,38.03832976445396 0 0,0 -0.11493654052522542,0.6446251579331277 l -16.747426726872636 -3.135024591659517" fill="#ff870c" stroke="none" /><path d="M 120.49622156327973 104.57218783832717 l 37.909506374020644 8.45665058143272 a59.84128747323341,59.84128747323341 0 0,0 -0.23292347485948556,1.003428233520961 l -37.75832233323061 -9.107947472302246" fill="#53ff2b" stroke="none" /><path d="M 120.13307415673323 105.97154293290107 l 16.292108255980654 4.832298493547425 a37.993642933618844,37.993642933618844 0 0,0 -0.19136715415897285,0.6253989322209603 l -16.20651432931555 -5.112024398320442" fill="#ff870c" stroke="none" /><path d="M 119.9155931802556 106.66101706037122 l 14.823950025512254 4.958053879104205 a36.63111616702355,36.63111616702355 0 0,0 -0.2051502444774107,0.5962626391521662 l -14.736408950091612 -5.212489221345672" fill="#ff720a" stroke="none" /><path d="M 119.12269723197855 108.67885076344098 l 15.014081314390436 6.814152287045354 a37.488035331905785,37.488035331905785 0 0,0 -0.27174431153910944,0.5853130715463852 l -14.894562386011495 -7.07158542587057" fill="#ff7f0b" stroke="none" /><line stroke="#e1ed5e" stroke-width="0.3" x1="174.80103733775053" x2="179.2010983576182" y1="140.37084112569926" y2="142.7455964860345" /><path d="M 175.68104954172406 140.8457921977663 a86.0,86.0 0 0,1 -30.038265399797805,32.042727171017184" fill="none" id="id17" stroke="none" /><text fill="#e1ed5e" style="font-size:6.75px; font-family:Arial;" text-anchor="middle"><textPath startOffset="22.206326154141568" xlink:href="#id17">May</textPath></text><path d="M 118.48025628344425 109.97397251340804 l 28.0723304194295 15.150907416881068 a52.89993308351177,52.89993308351177 0 0,0 -0.4393807746762381,0.7976037328106255 l -27.807373235301753 -15.6318816680895" fill="#a7ff21" stroke="none" /><path d="M 118.30583269289576 110.29060199501025 l 7.888265538622293 4.43437905561215 a30.049223768736617,30.049223768736617 0 0,0 -0.25734728152275005,0.44870667720182905 l -7.8107662609471635 -4.5695055786722945" fill="#ff0801" stroke="none" /><path d="M 117.75023020441432 111.22182372390056 l 16.15598776729141 10.21393214184626 a40.11387847965739,40.11387847965739 0 0,0 -0.3740048722571866,0.5804638673020737 l -15.977778031657174 -10.490517609069787" fill="#ffa70f" stroke="none" /><path d="M 117.55443506779139 111.5257021239791 l 13.111790968059914 8.608798655504193 a36.68535867237687,36.68535867237687 0 0,0 -0.35112586524007733,0.5248855271509104 l -12.961661997409117 -8.833221096860912" fill="#ff730a" stroke="none" /><path d="M 117.35343817320211 111.8261652097733 l 18.157706861555944 12.374264916966078 a42.97327355460386,42.97327355460386 0 0,0 -0.4218319822294953,0.6076804321174806 l -17.94201397216431 -12.684986611270578" fill="#ffd013" stroke="none" /><path d="M 116.71984013943494 112.70617746262583 l 12.925429951474571 9.822630203073548 a37.234247858672376,37.234247858672376 0 0,0 -0.392188656778622,0.5069567064493301 l -12.754434477477881 -10.043664903636131" fill="#ff7b0b" stroke="none" /><path d="M 114.81725581225074 114.88116024355365 l 13.933614325374538 13.993707753654355 a40.747644539614555,40.747644539614555 0 0,0 -0.5012931384468394,0.49062084418996005 l -13.690671234551905 -14.231478700766887" fill="#ffb010" stroke="none" /><path d="M 114.55890576462653 115.13401014063108 l 17.21485389735705 17.894873259300006 a45.83098233404711,45.83098233404711 0 0,0 -0.5732455587534342,0.5420394559850888 l -16.904272504212805 -18.188547352031016" fill="#fff917" stroke="none" /><line stroke="#e1ed5e" stroke-width="0.3" x1="143.8653032363475" x2="146.44561519142675" y1="172.8068346515853" y2="177.08958963109032" /><path d="M 144.38136562736335 173.6633856474863 a86.0,86.0 0 0,1 -40.68145358897372,12.25698825130547" fill="none" id="id18" stroke="none" /><text fill="#e1ed5e" style="font-size:6.75px; font-family:Arial;" text-anchor="middle"><textPath startOffset="21.466115282336833" xlink:href="#id18">June</textPath></text><path d="M 108.92500713936063 119.00905698771935 l 5.42941915845339 11.563927802151806 a33.77509368308351,33.77509368308351 0 0,0 -0.5283904390879332,0.24255813467080584 l -5.229560723598038 -11.655673007156686" fill="#ff4506" stroke="none" /><path d="M 108.2653958097858 119.30500536409082 l 5.752370354663829 13.435477635752823 a35.61512312633833,35.61512312633833 0 0,0 -0.5656504779117069,0.23644194564270557 l -5.5202484172546615 -13.532504624415502" fill="#ff6209" stroke="none" /><path d="M 106.57524785965236 119.94407469862006 l 3.913381257582981 11.870087606026939 a33.498541220556746,33.498541220556746 0 0,0 -0.5491825101347126,0.175830897133069 l -3.708477402357328 -11.935691349819715" fill="#ff4006" stroke="none" /><line stroke="#e1ed5e" stroke-width="0.3" x1="102.19456741930631" x2="102.32365962044197" y1="184.97166512339345" y2="189.96999836594603" /><path d="M 102.22038585953345 185.97133177190398 a86.0,86.0 0 0,1 -42.740103519485714,-10.115201625700543" fill="none" id="id19" stroke="none" /><text fill="#e1ed5e" style="font-size:6.75px; font-family:Arial;" text-anchor="middle"><textPath startOffset="22.20632615414155" xlink:href="#id19">July</textPath></text><path d="M 97.2962882734958 120.8252237178851 l -1.8990752481547062 14.627545722507541 a35.75030781584583,35.75030781584583 0 0,0 -0.6095791945297315,-0.0844821218635463 l 2.150583033871269 -14.592689035151391" fill="#ff6409" stroke="none" /><path d="M 96.93821686468263 120.77559828337769 l -1.6309977801798314 11.067065557725943 a32.18660331905782,32.18660331905782 0 0,0 -0.5474238275155486,-0.0854963435183004 l 1.8212574713038971 -11.037350906860537" fill="#ff2b04" stroke="none" /><path d="M 96.22490169976321 120.6578951692458 l -1.536008277888103 8.405264038214815 a29.54445931477516,29.54445931477516 0 0,0 -0.4994876127006728,-0.09572798976461902 l 1.6804635051604708 -8.377578850101727" fill="#ff0000" stroke="none" /><path d="M 95.51606077576429 120.51570834832081 l -2.628553344485716 12.02662014284192 a33.31051927194861,33.31051927194861 0 0,0 -0.5591088979344102,-0.12725136486757777 l 2.8351823918129893 -11.979592044396655" fill="#ff3d05" stroke="none" /><path d="M 93.76903079525671 120.05430185196036 l -4.126432670748292 13.280875515799716 a34.90716006423983,34.90716006423983 0 0,0 -0.5722757196957968,-0.18322461357500625 l 4.354429735535029 -13.207878055565004" fill="#ff5708" stroke="none" /><line stroke="#e1ed5e" stroke-width="0.3" x1="58.666819895761336" x2="56.23545636021788" y1="174.27360380694188" y2="178.64263932499728" /><path d="M 58.180547188652646 175.14741091055294 a86.0,86.0 0 0,1 -31.652253787137756,-30.449443065178592" fill="none" id="id20" stroke="none" /><text fill="#e1ed5e" style="font-size:6.75px; font-family:Arial;" text-anchor="middle"><textPath startOffset="22.20632615414155" xlink:href="#id20">August</textPath></text><path d="M 87.65650970185807 116.9893568818739 l -9.93277624673956 13.671293646097855 a37.8986482869379,37.8986482869379 0 0,0 -0.5244722282383278,-0.3879920160905872 l 10.166633445396451 -13.498291681267501" fill="#ff850c" stroke="none" /><path d="M 86.79598089348748 116.32954008644616 l -10.608630607886326 13.119797644668393 a37.87222965738758,37.87222965738758 0 0,0 -0.5033938379044105,-0.41425885771732235 l 10.832894574335425 -12.935243668093891" fill="#ff850c" stroke="none" /><path d="M 85.70375840098266 115.38237550388516 l -11.595415228410689 12.476358204462743 a38.032708779443254,38.032708779443254 0 0,0 -0.47570617701950063,-0.44980988245441195 l 11.808457239821006 -12.274913685262401" fill="#ff870c" stroke="none" /><path d="M 82.05923443525364 110.91462005526583 l -7.482202041336001 4.5519457998152255 a29.75805674518201,29.75805674518201 0 0,0 -0.26246481958404455,-0.43990613457107575 l 7.559447736618278 -4.422477571358039" fill="#ff0400" stroke="none" /><line stroke="#e1ed5e" stroke-width="0.3" x1="26.63291911575756" x2="22.317208475507996" y1="142.92168965132927" y2="145.44649492493687" /><path d="M 25.769776987707644 143.4266507060508 a86.0,86.0 0 0,1 -11.730757126820373,-40.83630448921669" fill="none" id="id21" stroke="none" /><text fill="#e1ed5e" style="font-size:6.75px; font-family:Arial;" text-anchor="middle"><textPath startOffset="21.46611528233685" xlink:href="#id21">September</textPath></text><path d="M 80.73074385275274 108.34839909993369 l -11.960761511099141 5.181996122255413 a34.03506423982869,34.03506423982869 0 0,0 -0.22827644777317546,-0.5395780907632249 l 12.048188940064623 -4.975343505826029" fill="#ff4906" stroke="none" /><path d="M 79.97269907076064 106.31721596034903 l -16.513410201424474 5.208828631117554 a38.3154443254818,38.3154443254818 0 0,0 -0.19298800996037538,-0.6306959827620359 l 16.60062498389098 -4.923805675803471" fill="#ff8c0c" stroke="none" /><path d="M 79.76711848015287 105.62410040840567 l -18.954787291077338 5.268830682392895 a40.67344753747324,40.67344753747324 0 0,0 -0.18169782644296492,-0.6761652054448074 l 19.04267319386208 -4.941774543772548" fill="#ffaf10" stroke="none" /><path d="M 79.50377843672027 104.57218783832718 l -17.82995719503724 3.977411797259991 a39.268201284796575,39.268201284796575 0 0,0 -0.14148886656077542,-0.6609888805028586 l 17.895780100322458 -3.6699090973409687" fill="#ff9a0e" stroke="none" /><path d="M 79.35854240842038 103.8639653848113 l -20.406920687199925 3.8200613884019705 a41.7613891862955,41.7613891862955 0 0,0 -0.1261861293680087,-0.707718826415967 l 20.469653258907123 -3.46822381125279" fill="#ffbf11" stroke="none" /><path d="M 79.18660465613746 102.79330883721812 l -17.061301723923723 2.289750619373796 a38.214266595289075,38.214266595289075 0 0,0 -0.08188496771555219,-0.6527037600313309 l 17.098188200886124 -1.9957291050550565" fill="#ff8a0c" stroke="none" /><path d="M 79.10278846688536 102.07522291339032 l -14.008011697793268 1.3910825757893557 a35.076913811563166,35.076913811563166 0 0,0 -0.054495165450308594,-0.6013496097352663 l 14.029881459520652 -1.1497515775055231" fill="#ff5a08" stroke="none" /><path d="M 79.07016306316243 101.71520430193888 l -14.715871430857856 1.2059685921662346 a35.7652034261242,35.7652034261242 0 0,0 -0.04500189307563359,-0.6140150768464699 l 14.734449882597826 -0.9524803788230042" fill="#ff6409" stroke="none" /><path d="M 79.0095281055655 100.63252640178507 l -16.558369711906487 0.498969535605162 a37.56588597430407,37.56588597430407 0 0,0 -0.013913576490014032,-0.6465092271419166 l 16.56450535108151 -0.21387049267311653" fill="#ff800b" stroke="none" /><line stroke="#e1ed5e" stroke-width="0.3" x1="15.007084014347285" x2="10.007500721073583" y1="101.09737516637583" y2="101.16192664675087" /><path d="M 14.007167355692545 101.11028546245083 a86.0,86.0 0 0,1 10.666146001902534,-42.60595125391555" fill="none" id="id22" stroke="none" /><text fill="#e1ed5e" style="font-size:6.75px; font-family:Arial;" text-anchor="middle"><textPath startOffset="22.20632615414155" xlink:href="#id22">October</textPath></text><path d="M 79.00019446554 99.90962569577889 l -20.801948694306628 -0.08952281184730243 a41.80214132762313,41.80214132762313 0 0,0 0.009290014097155512,-0.7195218297794118 l 20.79732567309176 0.4475808996871862" fill="#ffbf11" stroke="none" /><path d="M 79.08570108090925 98.10471618934814 l -59.36615556134199 -5.379846294218625 a80.60942184154175,80.60942184154175 0 0,0 0.13712382120350508,-1.3808181662938719 l 59.26475461445626 6.400939991216927" fill="#48f6ff" stroke="none" /><path d="M 79.21141760316559 97.0276538004421 l -24.925988831836083 -3.563911514515419 a46.17948340471092,46.17948340471092 0 0,0 0.11928403898681496,-0.7859327789580162 l 24.860948899409966 3.992443405865527" fill="#fffe18" stroke="none" /><path d="M 79.32604984820605 96.31383870115002 l -17.046601563865426 -3.039405749761074 a38.3154443254818,38.3154443254818 0 0,0 0.12135828773244868,-0.6483008257431406 l 16.991757552223117 3.3323846529667875" fill="#ff8c0c" stroke="none" /><path d="M 79.71946130924805 94.55025226153421 l -14.69796214108137 -3.9496083984662653 a36.21937901498929,36.21937901498929 0 0,0 0.1669769071677189,-0.6007047765764726 l 14.62779846334729 4.202024478461681" fill="#ff6b09" stroke="none" /><path d="M 79.91906864156998 93.8553929516997 l -21.357489494839854 -6.535223797221966 a43.334983940042825,43.334983940042825 0 0,0 0.22440199354631488,-0.7114156429163697 l 21.241832017525333 6.90188960656475" fill="#ffd513" stroke="none" /><path d="M 80.14247586403 93.16781622104843 l -19.42965189481754 -6.684969968939363 a41.547510706638114,41.547510706638114 0 0,0 0.23849640074793702,-0.6742614411851456 l 19.31170241325979 7.01842903655112" fill="#ffbc11" stroke="none" /><path d="M 80.52162464483688 92.15188598940014 l -28.698800091674368 -11.563154060853023 a51.94071199143469,51.94071199143469 0 0,0 0.34127103916704266,-0.8264148907189982 l 28.495507365621123 12.055443522025332" fill="#b4ff20" stroke="none" /><path d="M 80.95270993114464 91.15688171328213 l -26.414604446264203 -12.263554068361787 a50.12260438972163,50.12260438972163 0 0,0 0.3700523387589426,-0.7794246005387024 l 26.19959391366351 12.716421084541022" fill="#cbff1d" stroke="none" /><path d="M 81.6062741919709 89.86733742301443 l -12.610484367878843 -6.946813514872053 a35.39730995717345,35.39730995717345 0 0,0 0.2985887132246017,-0.5311560034026189 l 12.489038013361812 7.162853028209457" fill="#ff5f08" stroke="none" /><line stroke="#e1ed5e" stroke-width="0.3" x1="26.266209847984243" x2="21.928928074336255" y1="57.711370442889674" y2="55.22380399835377" /><path d="M 25.398753493254645 57.213857153982495 a86.0,86.0 0 0,1 29.58750427330803,-30.492523968695096" fill="none" id="id23" stroke="none" /><text fill="#e1ed5e" style="font-size:6.75px; font-family:Arial;" text-anchor="middle"><textPath startOffset="21.46611528233685" xlink:href="#id23">November</textPath></text><path d="M 82.15384107792192 88.93136811851018 l -23.896704210796013 -14.82133064291623 a49.11982066381156,49.11982066381156 0 0,0 0.4518378014093196,-0.7146988927468336 l 23.63803881314073 15.23047718337728" fill="#d9ff1c" stroke="none" /><path d="M 82.54541684631803 88.32363383020206 l -22.502910195092845 -15.053480052232402 a48.07375535331906,48.07375535331906 0 0,0 0.4660304968267705,-0.6838422489503763 l 22.240455232597334 15.438600324453194" fill="#e7ff1a" stroke="none" /><path d="M 82.95767976084542 87.72973835380427 l -11.80463498792405 -8.499192475381514 a35.545985010706644,35.545985010706644 0 0,0 0.3617859986579993,-0.4934756955862324 l 11.656586376752417 8.701130614639247" fill="#ff6108" stroke="none" /><path d="M 84.07557802195018 86.31012108654704 l -10.669703719340013 -9.172512017172231 a35.070449678800856,35.070449678800856 0 0,0 0.39747868435897177,-0.4543868473604382 l 10.510233171403199 9.354814420735611" fill="#ff5908" stroke="none" /><path d="M 84.5562425177563 85.77008943001954 l -15.019426190607643 -13.838930826937503 a41.42300588865096,41.42300588865096 0 0,0 0.48767241323260724,-0.5202149284608515 l 14.77898645540458 14.095415172276404" fill="#ffba11" stroke="none" /><path d="M 86.10567301691215 84.25364557470407 l -40.35230905564769 -45.731021088154726 a81.98881156316918,81.98881156316918 0 0,0 1.0662691847372678,-0.9246581298131306 l 39.55914607226365 46.41884421138754" fill="#4ae7ff" stroke="none" /><path d="M 87.80319425747018 82.90503203632743 l -9.830083493320243 -13.777784605732409 a37.92506691648822,37.92506691648822 0 0,0 0.5346872068180045,-0.3745825579843525 l 9.591465146918578 13.944952006480703" fill="#ff860c" stroke="none" /><path d="M 88.09926311788651 82.69761687909137 l -9.55387716640227 -13.8903031518697 a37.858739293361886,37.858739293361886 0 0,0 0.5401095508560907,-0.3646843797351214 l 9.313362921139639 14.052699443903487" fill="#ff850c" stroke="none" /><path d="M 88.39885842347998 82.49532879139004 l -9.4639666059526 -14.279941562109476 a38.131357066381156,38.131357066381156 0 0,0 0.5502408829860391,-0.3578919762400306 l 9.216758697182273 14.440732462509043" fill="#ff890c" stroke="none" /><path d="M 89.00827224532344 82.1063720568725 l -9.541413997538493 -15.53263653665943 a39.229135438972165,39.229135438972165 0 0,0 0.578420401971016,-0.3484918201974902 l 9.272631529349827 15.694574966315539" fill="#ff990e" stroke="none" /><line stroke="#e1ed5e" stroke-width="0.3" x1="56.762969772571076" x2="54.21961505331055" y1="26.818313649435495" y2="22.513508569990535" /><path d="M 56.25429882871897 25.957352633546506 a86.0,86.0 0 0,1 42.265352541879196,-11.944610805530505" fill="none" id="id24" stroke="none" /><text fill="#e1ed5e" style="font-size:6.75px; font-family:Arial;" text-anchor="middle"><textPath startOffset="22.20632615414155" xlink:href="#id24">December</textPath></text><path d="M 89.3179101791058 81.91981866633112 l -12.908573585222447 -21.848660242803767 a46.37706102783726,46.37706102783726 0 0,0 0.6908045822934644,-0.4001586024148655 l 12.530572270463663 22.067623002608677" fill="#feff18" stroke="none" /><path d="M 89.63071344664047 81.73862282372117 l -13.919018629756517 -24.512819451332845 a49.188958779443254,49.188958779443254 0 0,0 0.7398860553359161,-0.4117457887368048 l 13.495008485348555 24.748780637629835" fill="#d8ff1c" stroke="none" /><path d="M 90.58718382345135 81.22770947309562 l -10.191590662675827 -20.325426234042006 a43.737446466809416,43.737446466809416 0 0,0 0.6759075279082372,-0.331664888510406 l 9.840211867757164 20.49784628268724" fill="#ffdb14" stroke="none" /><path d="M 91.23893434514133 80.91482961587045 l -6.735772733868658 -14.673257267894677 a37.14543629550321,37.14543629550321 0 0,0 0.5833918622671551,-0.2617509231346617 l 6.482198753134729 14.787028521545867" fill="#ff7a0b" stroke="none" /><path d="M 91.56875222667455 80.76684994638697 l -5.64494154652238 -12.877098470718666 a35.06005085653105,35.06005085653105 0 0,0 0.5548106834439563,-0.2375409802626648 l 5.422447105288115 12.972358978944117" fill="#ff5908" stroke="none" /><path d="M 91.90106846888425 80.62456947434976 l -12.384796783683319 -29.628694690729684 a53.11296841541756,53.11296841541756 0 0,0 0.846560345842054,-0.3453332209333705 l 11.872952568252884 29.837488797846632" fill="#a5ff21" stroke="none" /><path d="M 93.25333710446033 80.11325718540243 l -6.067391683506144 -17.884494873026142 a39.8856664882227,39.8856664882227 0 0,0 0.6520683072246252,-0.2149766688209623 l 5.758640554039109 17.986285266106336" fill="#ffa30f" stroke="none" /><path d="M 93.94186890950719 79.89281104454417 l -8.61791849398637 -28.603229770520745 a50.873286937901504,50.873286937901504 0 0,0 0.840644201143577,-0.24540709429561683 l 8.12428407511937 28.74733519373506" fill="#c1ff1e" stroke="none" /><path d="M 94.28887869178378 79.79150937346287 l -17.133363924648684 -60.625471879611354 a84.0,84.0 0 0,0 1.39480844310511,-0.38125383669481616 l 16.08725759231985 60.91141225713247" fill="#4dd2ff" stroke="none" /><path d="M 95.33964822691252 79.52364482259891 l -3.3256150500672454 -14.61187443869146 a35.985546038543895,35.985546038543895 0 0,0 0.6051694004200103,-0.13226659132501384 l 3.073602925493714 14.666954528112342" fill="#ff6809" stroke="none" /></svg>