<?xml version="1.0" encoding="utf-8" ?>
<svg baseProfile="full" height="200mm" version="1.1" viewBox="0,0,200,200" width="200mm" xmlns="http://www.w3.org/2000/svg" xmlns:ev="http://www.w3.org/2001/xml-events" xmlns:xlink="http://www.w3.org/1999/xlink"><defs /><rect fill="#1a1a1a" height="200" width="200" x="0" y="0" /><text alignment-baseline="middle" fill="#e1ed5e" style="dominant-baseline: central; font-size:9.0px; font-family:Arial;" text-anchor="middle" x="100.0" y="100.0">2025</text><line stroke="#e1ed5e" stroke-width="0.3" x1="100.0" x2="100.0" y1="15.0" y2="10.0" /><path d="M 100.0 14.0 a86.0,86.0 0 0,1 42.46469731375804,11.215312516191453" fill="none" id="id49" stroke="none" /><text fill="#e1ed5e" style="font-size:6.75px; font-family:Arial;" text-anchor="middle"><textPath startOffset="22.20632615414155" xlink:href="#id49">January</textPath></text><path d="M 100.0 79.0 l 0.0 -56.26560825560625 a77.26560825560625,77.26560825560625 0 0,0 1.3300004335009512,0.011447733627265063 l -0.9685199542284227 56.25727189858755" fill="#42ffda" stroke="none" /><path d="M 101.44485096284872 79.0497635885617 l 2.9944170619610477 -43.41883486642834 a64.52196864457233,64.52196864457233 0 0,0 1.1073500238647271,0.08595167409123923 l -3.741357275188116 43.36085793014863" fill="#37ff2e" stroke="none" /><path d="M 102.16513564639614 79.11191278185805 l 3.0393250974342623 -29.321806153423484 a50.478904544552485,50.478904544552485 0 0,0 0.8635096801313095,0.0970253738947341 l -3.543601481075297 29.26514482605815" fill="#f9ff18" stroke="none" /><path d="M 102.88285421437855 79.19881850522331 l 4.008610978175579 -28.924058692631128 a50.200515975391944,50.200515975391944 0 0,0 0.8549172243469988,0.12599257570802624 l -4.505897182951233 28.850771632762136" fill="#feff18" stroke="none" /><path d="M 103.2404852339499 79.25152402106235 l 4.4604527912334735 -28.559796114634548 a49.906013097836876,49.906013097836876 0 0,0 0.8476198719071034,0.13986454155198758 l -4.951401869279452 28.478785310142936" fill="#fffc17" stroke="none" /><path d="M 107.76421540070413 80.48803036053334 l 10.789470514366075 -27.114629133439447 a50.18245683667395,50.18245683667395 0 0,0 0.7998513222342511,0.3262794374100116 l -11.254605706188714 26.924888809845857" fill="#feff18" stroke="none" /><path d="M 109.08828744355905 81.06846463323043 l 13.343436009281238 -27.795306023574586 a51.83222861678904,51.83222861678904 0 0,0 0.8010022610015326,0.39304833075882617 l -13.819909537293201 27.56150253268093" fill="#e5ff1a" stroke="none" /><path d="M 110.05341064243156 81.56283822128135 l 17.02143441349333 -31.215967510854824 a56.55511014090097,56.55511014090097 0 0,0 0.8506855682565942,0.47340559771707214 l -17.55624407082196 30.91834651557757" fill="#a0ff22" stroke="none" /><line stroke="#e1ed5e" stroke-width="0.3" x1="143.23703022742887" x2="145.7803849466894" y1="26.81831364943548" y2="22.513508569990506" /><path d="M 143.74570117128098 25.957352633546492 a86.0,86.0 0 0,1 28.547481713284135,27.462654790039103" fill="none" id="id50" stroke="none" /><text fill="#e1ed5e" style="font-size:6.75px; font-family:Arial;" text-anchor="middle"><textPath startOffset="19.985693538727396" xlink:href="#id50">February</textPath></text><path d="M 111.2981086023043 82.29822771554956 l 15.092694630988515 -23.647094652817962 a49.05306608454059,49.05306608454059 0 0,0 0.7078426909523138,0.46040057612079616 l -15.497504347725108 23.383795152537637" fill="#ffef16" stroke="none" /><path d="M 114.94478906791727 85.2469230424477 l 13.218876998408108 -13.049304929207072 a39.57479658662433,39.57479658662433 0 0,0 0.47439955035874104,0.4889104375424511 l -13.441540812469958 12.819830296114505" fill="#ff5107" stroke="none" /><path d="M 116.60985879189232 87.15038557335679 l 19.505953638996232 -15.090073096071416 a45.66155983330026,45.66155983330026 0 0,0 0.47558484487804686,0.6258139084306147 l -19.76281442409839 14.752074411759768" fill="#ffb811" stroke="none" /><path d="M 117.04232023915458 87.72973835380427 l 20.031856841006142 -14.42269135006435 a45.68378646556856,45.68378646556856 0 0,0 0.45398236737801595,0.6421258632922349 l -20.277151828188043 14.07573898644032" fill="#ffb911" stroke="none" /><path d="M 117.45458315368197 88.32363383020206 l 11.701048202646891 -7.827498496046326 a35.07779321293908,35.07779321293908 0 0,0 0.33140724750790757,0.5047559744988923 l -11.834052085512724 7.62492445756976" fill="#ff0000" stroke="none" /><line stroke="#e1ed5e" stroke-width="0.3" x1="172.23445277983987" x2="176.4835382374775" y1="55.19839476539836" y2="52.563006222186495" /><path d="M 173.08426987136738 54.67131705675599 a86.0,86.0 0 0,1 12.851231095245387,41.99856678651699" fill="none" id="id51" stroke="none" /><text fill="#e1ed5e" style="font-size:6.75px; font-family:Arial;" text-anchor="middle"><textPath startOffset="22.20632615414155" xlink:href="#id51">March</textPath></text><path d="M 118.03404312379186 89.2402003453031 l 35.8018165892368 -21.3607326504715 a62.68993847985711,62.68993847985711 0 0,0 0.5449257989308701,0.9314548306658651 l -36.164202062638 20.74129840745174" fill="#4eff2b" stroke="none" /><path d="M 118.89224826269711 90.83032412892265 l 22.199547713805245 -10.77493023538369 a45.676284977178014,45.676284977178014 0 0,0 0.3372254153076351,0.7102827278410252 l -22.381731322954636 10.391205091902126" fill="#ffb911" stroke="none" /><path d="M 119.04729006885535 91.15688171328212 l 33.59867880651473 -15.598916690478381 a58.04318317126414,58.04318317126414 0 0,0 0.4129293848504244,0.9098351636537579 l -33.862210508328495 15.01825951798256" fill="#8cff24" stroke="none" /><path d="M 119.196687751892 91.48605970444005 l 22.55067939641786 -10.00147215430394 a45.66906132169082,45.66906132169082 0 0,0 0.31252706593767965,0.7213555574443684 l -22.719497172198217 9.611817452272968" fill="#ffb911" stroke="none" /><path d="M 119.47837535516314 92.15188598940014 l 22.886479001019215 -9.221287362325496 a45.67434014685453,45.67434014685453 0 0,0 0.28754487487197006,0.7317703425303634 l -23.041817425772887 8.825968014899349" fill="#ffb911" stroke="none" /><path d="M 120.08093135843002 93.85539295169968 l 39.2349278817795 -12.00557932790949 a62.03064100019845,62.03064100019845 0 0,0 0.303637337771498,1.0237141567592678 l -39.4357711166627 11.328435784403693" fill="#57ff2a" stroke="none" /><path d="M 120.28053869075195 94.5502522615342 l 29.197697159342948 -7.845949581955541 a51.23349871006152,51.23349871006152 0 0,0 0.2215328387615096,0.8536563966804231 l -29.328426329974757 7.342196759726267" fill="#eeff19" stroke="none" /><path d="M 120.37134235888165 94.90015583598534 l 29.33246906511246 -7.343208834376796 a51.23766620361182,51.23766620361182 0 0,0 0.20682254691671548,0.8574129809169012 l -29.45452441228999 6.837210621800488" fill="#eeff19" stroke="none" /><path d="M 120.45610955862082 95.25157060432595 l 29.471033278904745 -6.841042786821804 a51.25461401071641,51.25461401071641 0 0,0 0.1920964673660661,0.8611307968700491 l -29.584424133272847 6.332733820401791" fill="#eeff19" stroke="none" /><path d="M 120.67395015179393 96.31383870115 l 29.759164522925612 -5.3060532576063775 a51.228497717801154,51.228497717801154 0 0,0 0.14731398163302453,0.869455458564476 l -29.846090366078858 4.793012010726064" fill="#eeff19" stroke="none" /><path d="M 120.78858239683441 97.02765380044208 l 29.936273744571565 -4.280280771196415 a51.24072236554872,51.24072236554872 0 0,0 0.11732661630962851,0.8742195696634776 l -30.00551635993903 3.7643428594682726" fill="#eeff19" stroke="none" /><path d="M 120.83666639777658 97.38593545837742 l 30.081050481695872 -3.773818994738559 a51.316848581067674,51.316848581067674 0 0,0 0.10241290519051549,0.8774112291651307 l -30.14155373988998 3.2554640272485753" fill="#edff1a" stroke="none" /><path d="M 120.96714384426684 98.82574320788733 l 58.79122222750846 -3.292579691827409 a79.88334987100615,79.88334987100615 0 0,0 0.06507218469114762,1.3735709716271116 l -58.839188020433106 2.2800976135772975" fill="#47fffb" stroke="none" /><path d="M 120.98425023603335 99.18683210126433 l 17.328768025834886 -0.6715130502518084 a38.34177416153999,38.34177416153999 0 0,0 0.019879854865880987,0.6597156002501535 l -17.33775957515641 0.3731273025766559" fill="#ff3b05" stroke="none" /><line stroke="#e1ed5e" stroke-width="0.3" x1="184.98032266829074" x2="189.97916517819016" y1="98.17113171792111" y2="98.06355123074" /><path d="M 185.9800911702706 98.14961562048488 a86.0,86.0 0 0,1 -9.607161424134198,41.387399972396054" fill="none" id="id52" stroke="none" /><text fill="#e1ed5e" style="font-size:6.75px; font-family:Arial;" text-anchor="middle"><textPath startOffset="21.466115282336823" xlink:href="#id52">April</textPath></text><path d="M 120.99513854157772 99.54816195383933 l 17.226374372336107 -0.3707301727690164 a38.230363167295096,38.230363167295096 0 0,0 0.008496230132805512,0.6580423869599021 l -17.230203609586628 0.07415152774865148" fill="#ff3905" stroke="none" /><path d="M 120.99824983174949 100.27111621757518 l 60.482793750343035 0.7809158573387088 a81.48783488787458,81.48783488787458 0 0,0 -0.030181298652016717,1.4024063532234028 l -60.460390389006015 -1.8219120263522266" fill="#49efff" stroke="none" /><path d="M 120.9764740272857 100.99374915477107 l 38.20307549974327 1.8098501177148263 a59.24592180988291,59.24592180988291 0 0,0 -0.05702744165761182,1.0182632796650832 l -38.16626170719813 -2.467185113715333" fill="#7bff26" stroke="none" /><path d="M 120.95626037817324 101.35467743843564 l 62.86878113451971 4.064032315306923 a84.0,84.0 0 0,0 -0.10569376534264929,1.4421074540129188 l -62.789510810512716 -5.145612905816612" fill="#4dd2ff" stroke="none" /><path d="M 120.92983693683757 101.71520430193887 l 48.274446678845194 3.9561005117789887 a69.43627703909505,69.43627703909505 0 0,0 -0.10787555101987237,1.1903977163796082 l -48.199196531548246 -4.786479616707168" fill="#36ff6f" stroke="none" /><path d="M 120.89721153311464 102.0752229133903 l 41.94427143099676 4.1653267002218595 a63.150585433617785,63.150585433617785 0 0,0 -0.11673144692353524,1.0807882228557593 l -41.86635768257217 -4.88671124496241" fill="#48ff2c" stroke="none" /><path d="M 120.8583938346157 102.4346265915055 l 39.37306419450241 4.595689861695198 a60.64036515181584,60.64036515181584 0 0,0 -0.12993928145484468,1.0357439215945574 l -39.28812340380072 -5.27275153757715" fill="#69ff28" stroke="none" /><path d="M 120.81339534386255 102.79330883721812 l 52.951414580186444 7.106464459372816 a74.42615598333002,74.42615598333002 0 0,0 -0.18133737619397783,1.2682731867489048 l -52.82124315297586 -8.01688311810213" fill="#3effb5" stroke="none" /><path d="M 120.76222939487914 103.15116336523771 l 34.789678869090885 5.280163293432372 a56.188092875570554,56.188092875570554 0 0,0 -0.15336204330536632,0.9549855900580184 l -34.693635071424225 -5.878228113183595" fill="#a5ff21" stroke="none" /><path d="M 120.64145759157962 103.86396538481128 l 27.34334302857051 5.118520845665335 a48.81829728120659,48.81829728120659 0 0,0 -0.16172820066035698,0.8246486108773478 l -27.251184894934486 -5.588433183610627" fill="#ffeb16" stroke="none" /><path d="M 120.5718875245553 104.21870165774334 l 48.244117732719744 9.893479108927277 a70.24810478269498,70.24810478269498 0 0,0 -0.253113827436603,1.1824635358517903 l -48.0666698665587 -10.722456464195238" fill="#37ff7b" stroke="none" /><path d="M 120.49622156327973 104.57218783832717 l 39.90316189325002 8.901384626226866 a61.88394522722763,61.88394522722763 0 0,0 -0.24087422194563107,1.037679843877692 l -39.74402710537384 -9.586933127453124" fill="#59ff2a" stroke="none" /><path d="M 120.41448212921028 104.9243191809786 l 36.86841698127908 8.893287214641333 a58.92585830521929,58.92585830521929 0 0,0 -0.2463344597452702,0.9839837165359119 l -36.709871207238756 -9.52659877057464" fill="#80ff26" stroke="none" /><path d="M 120.32669344350535 105.2749913415812 l 49.824266027189566 12.929922548619876 a72.47465767017266,72.47465767017266 0 0,0 -0.32376128821476513,1.2048361956026463 l -49.59431666263303 -13.785649677398071" fill="#3bff9a" stroke="none" /><path d="M 120.23288151984713 105.62410040840565 l 29.563268742917728 8.217652618968437 a51.68414367930145,51.68414367930145 0 0,0 -0.24564086168719285,0.8551080645866856 l -29.417435244344436 -8.725318159059704" fill="#e7ff1a" stroke="none" /><path d="M 120.13307415673323 105.97154293290107 l 18.7029693059361 5.547368638970457 a40.508315141893235,40.508315141893235 0 0,0 -0.2040331063284163,0.6667919967577896 l -18.604709427101554 -5.8684876082803035" fill="#ff6209" stroke="none" /><path d="M 120.02730092923936 106.31721596034902 l 42.408011752683976 13.376768523989963 a65.46771184758882,65.46771184758882 0 0,0 -0.3482500343624345,1.0718033975779886 l -42.17146946730529 -14.104770821545747" fill="#30ff34" stroke="none" /><path d="M 119.9155931802556 106.66101706037122 l 52.001080093522326 17.392405966802194 a75.83254614010715,75.83254614010715 0 0,0 -0.4246953685236721,1.234363536425178 l -51.693993894055424 -18.28494220631667" fill="#40ffc8" stroke="none" /><path d="M 119.79798401119884 107.00284435728193 l 29.488872579649378 10.43065722399776 a52.27926175828537,52.27926175828537 0 0,0 -0.3073914514145465,0.8458092549176466 l -29.304956867229606 -10.936714275921538" fill="#deff1b" stroke="none" /><path d="M 119.67450827220406 107.3425965602758 l 36.80826275403988 13.736974756790893 a60.28807303036317,60.28807303036317 0 0,0 -0.3712187007195422,0.9691348883853779 l -36.566349773726834 -14.368533212009414" fill="#6dff28" stroke="none" /><path d="M 119.54520255179757 107.68017299344265 l 17.919474054831884 7.041352491891098 a40.25326453661441,40.25326453661441 0 0,0 -0.2589576574524867,0.6427116688341555 l -17.795613783122008 -7.3487635285680675" fill="#ff5d08" stroke="none" /><path d="M 119.41010516605496 108.01547362559984 l 17.724994230027278 7.319600926900542 a40.176860488192105,40.176860488192105 0 0,0 -0.26947006564454046,0.63694763501313 l -17.59637318319043 -7.623623087579836" fill="#ff5c08" stroke="none" /><line stroke="#e1ed5e" stroke-width="0.3" x1="174.80103733775053" x2="179.2010983576182" y1="140.37084112569926" y2="142.7455964860345" /><path d="M 175.68104954172406 140.8457921977663 a86.0,86.0 0 0,1 -30.038265399797805,32.042727171017184" fill="none" id="id53" stroke="none" /><text fill="#e1ed5e" style="font-size:6.75px; font-family:Arial;" text-anchor="middle"><textPath startOffset="22.206326154141568" xlink:href="#id53">May</textPath></text><line stroke="#e1ed5e" stroke-width="0.3" x1="143.8653032363475" x2="146.44561519142675" y1="172.8068346515853" y2="177.08958963109032" /><path d="M 144.38136562736335 173.6633856474863 a86.0,86.0 0 0,1 -40.68145358897372,12.25698825130547" fill="none" id="id54" stroke="none" /><text fill="#e1ed5e" style="font-size:6.75px; font-family:Arial;" text-anchor="middle"><textPath startOffset="21.466115282336833" xlink:href="#id54">June</textPath></text><line stroke="#e1ed5e" stroke-width="0.3" x1="102.19456741930631" x2="102.32365962044197" y1="184.97166512339345" y2="189.96999836594603" /><path d="M 102.22038585953345 185.97133177190398 a86.0,86.0 0 0,1 -42.740103519485714,-10.115201625700543" fill="none" id="id55" stroke="none" /><text fill="#e1ed5e" style="font-size:6.75px; font-family:Arial;" text-anchor="middle"><textPath startOffset="22.20632615414155" xlink:href="#id55">July</textPath></text><line stroke="#e1ed5e" stroke-width="0.3" x1="58.666819895761336" x2="56.23545636021788" y1="174.27360380694188" y2="178.64263932499728" /><path d="M 58.180547188652646 175.14741091055294 a86.0,86.0 0 0,1 -31.652253787137756,-30.449443065178592" fill="none" id="id56" stroke="none" /><text fill="#e1ed5e" style="font-size:6.75px; font-family:Arial;" text-anchor="middle"><textPath startOffset="22.20632615414155" xlink:href="#id56">August</textPath></text><line stroke="#e1ed5e" stroke-width="0.3" x1="26.63291911575756" x2="22.317208475507996" y1="142.92168965132927" y2="145.44649492493687" /><path d="M 25.769776987707644 143.4266507060508 a86.0,86.0 0 0,1 -11.730757126820373,-40.83630448921669" fill="none" id="id57" stroke="none" /><text fill="#e1ed5e" style="font-size:6.75px; font-family:Arial;" text-anchor="middle"><textPath startOffset="21.46611528233685" xlink:href="#id57">September</textPath></text><line stroke="#e1ed5e" stroke-width="0.3" x1="15.007084014347285" x2="10.007500721073583" y1="101.09737516637583" y2="101.16192664675087" /><path d="M 14.007167355692545 101.11028546245083 a86.0,86.0 0 0,1 10.666146001902534,-42.60595125391555" fill="none" id="id58" stroke="none" /><text fill="#e1ed5e" style="font-size:6.75px; font-family:Arial;" text-anchor="middle"><textPath startOffset="22.20632615414155" xlink:href="#id58">October</textPath></text><line stroke="#e1ed5e" stroke-width="0.3" x1="26.266209847984243" x2="21.928928074336255" y1="57.711370442889674" y2="55.22380399835377" /><path d="M 25.398753493254645 57.213857153982495 a86.0,86.0 0 0,1 29.58750427330803,-30.492523968695096" fill="none" id="id59" stroke="none" /><text fill="#e1ed5e" style="font-size:6.75px; font-family:Arial;" text-anchor="middle"><textPath startOffset="21.46611528233685" xlink:href="#id59">November</textPath></text><line stroke="#e1ed5e" stroke-width="0.3" x1="56.762969772571076" x2="54.21961505331055" y1="26.818313649435495" y2="22.513508569990535" /><path d="M 56.25429882871897 25.957352633546506 a86.0,86.0 0 0,1 42.265352541879196,-11.944610805530505" fill="none" id="id60" stroke="none" /><text fill="#e1ed5e" style="font-size:6.75px; font-family:Arial;" text-anchor="middle"><textPath startOffset="22.20632615414155" xlink:href="#id60">December</textPath></text></svg>