<?xml version="1.0" encoding="utf-8" ?>
<svg baseProfile="full" height="200mm" version="1.1" viewBox="0,0,200,200" width="200mm" xmlns="http://www.w3.org/2000/svg" xmlns:ev="http://www.w3.org/2001/xml-events" xmlns:xlink="http://www.w3.org/1999/xlink"><defs /><rect fill="#1a1a1a" height="200" width="200" x="0" y="0" /><text alignment-baseline="middle" fill="#e1ed5e" style="dominant-baseline: central; font-size:9.0px; font-family:Arial;" text-anchor="middle" x="100.0" y="100.0">2024</text><line stroke="#e1ed5e" stroke-width="0.3" x1="100.0" x2="100.0" y1="15.0" y2="10.0" /><path d="M 100.0 14.0 a86.0,86.0 0 0,1 42.35913384403234,11.155469271406648" fill="none" id="id37" stroke="none" /><text fill="#e1ed5e" style="font-size:6.75px; font-family:Arial;" text-anchor="middle"><textPath startOffset="22.145653131862478" xlink:href="#id37">January</textPath></text><path d="M 100.36049292484886 79.00309439819443 l 0.38322999434711824 -22.321225911606085 a43.324515480196254,43.324515480196254 0 0,0 0.7435037406380377,0.019150018969501338 l -0.7663470490558973 22.31135817528654" fill="#fff617" stroke="none" /><path d="M 100.72087961077811 79.0123766808444 l 0.7811855394557703 -22.743364633065653 a43.7567766979341,43.7567766979341 0 0,0 0.7504792269398793,0.03222880711816627 l -1.171490526996486 22.726603257521656" fill="#fffc17" stroke="none" /><path d="M 101.08105385017728 79.02784411241856 l 1.5244328546919648 -29.573590125513128 a50.61285410831438,50.61285410831438 0 0,0 0.8673010193129826,0.05217467562344911 l -2.0318782261374095 29.543063472064986" fill="#acff20" stroke="none" /><path d="M 101.80034050326958 79.07731436759882 l 3.812909803200695 -44.311791581752345 a65.47553433464293,65.47553433464293 0 0,0 1.1190094219191868,0.10597135568545635 l -4.5730187885048945 44.239808470561705" fill="#34ff5f" stroke="none" /><path d="M 102.51750503828377 79.15144685158666 l 2.8039583720569485 -23.220797677378247 a44.38947685019832,44.38947685019832 0 0,0 0.7557248785052945,0.09784371566167181 l -3.2021610724530345 23.169242365516176" fill="#faff18" stroke="none" /><path d="M 103.23170211078529 79.25015418208739 l 4.559417310557242 -29.274729839067753 a50.62765757467527,50.62765757467527 0 0,0 0.8575903222398864,0.14111616117318235 l -5.061285135850199 29.1921476793989" fill="#acff20" stroke="none" /><path d="M 103.58742460773223 79.30868818359171 l 5.726429143260671 -33.02852155900093 a54.521265296915246,54.521265296915246 0 0,0 0.9207999563649589,0.16780042551009902 l -6.292563833176684 32.92535295955947" fill="#7eff26" stroke="none" /><path d="M 104.29559338865022 79.4440306129975 l 6.06148868004619 -29.00641761762375 a50.63298682256518,50.63298682256518 0 0,0 0.8492781389397898,0.18509621755728387 l -6.558529235605113 28.898089941932746" fill="#acff21" stroke="none" /><path d="M 104.9986988182912 79.60360301121754 l 6.35009150453214 -25.910540312530458 a47.67732672895088,47.67732672895088 0 0,0 0.7932478853456599,0.20164051048314136 l -6.793944683103195 25.797714570212047" fill="#d0ff1d" stroke="none" /><path d="M 105.3480935250658 79.69241777938227 l 6.790928670813931 -25.786262280296853 a47.66548395586217,47.66548395586217 0 0,0 0.7894734215856123,0.2151744916855266 l -7.232583493334236 25.665887294467183" fill="#d0ff1d" stroke="none" /><path d="M 105.69591212413111 79.78721728523813 l 8.645613406715787 -30.680231965909424 a52.87511983758483,52.87511983758483 0 0,0 0.8715330155191807,0.2536905589593715 l -9.171006434616572 30.527297712647535" fill="#91ff23" stroke="none" /><path d="M 106.04205211174951 79.88797359093562 l 9.690714687907882 -32.25723746190551 a54.68143880294002,54.68143880294002 0 0,0 0.8966697933261482,0.2777905940542702 l -10.24302511410566 32.08613028004459" fill="#7cff26" stroke="none" /><path d="M 106.72888874123014 80.10723608172694 l 17.528004452730933 -51.81843064221504 a75.70265710472395,75.70265710472395 0 0,0 1.227443704048271,0.42696863648600175 l -18.41495392882422 51.50990357316044" fill="#42ffd6" stroke="none" /><path d="M 107.40779381753099 80.34994680014964 l 9.931215884864365 -26.34373003402877 a49.153528394458334,49.153528394458334 0 0,0 0.7869895067870932,0.3044244476853983 l -10.381977654144983 26.169365698205333" fill="#beff1f" stroke="none" /><path d="M 107.74402155503746 80.48000691201159 l 13.588903962998614 -34.252914915832505 a57.849972742823844,57.849972742823844 0 0,0 0.9199400151295565,0.374131595476952 l -14.17489843931861 34.01459606377626" fill="#59ff2a" stroke="none" /><path d="M 108.07796709384702 80.6158196554323 l 11.445697496075335 -27.465507330710196 a50.754967385378876,50.754967385378876 0 0,0 0.8013603307552583,0.34205307336863777 l -11.915492902001022 27.264979607682157" fill="#abff21" stroke="none" /><path d="M 108.4095320186766 80.7573450057729 l 11.627861202695007 -26.606821990485766 a50.03670319754873,50.03670319754873 0 0,0 0.7841146851240023,0.35072452511981705 l -12.08288929067464 26.403293714456098" fill="#b3ff20" stroke="none" /><path d="M 108.73861861582097 80.90454125486305 l 9.17853102917451 -20.05674675986479 a43.05716487771867,43.05716487771867 0 0,0 0.6694595372033612,0.3133408664048492 l -9.521479280249375 19.896229661889407" fill="#fff316" stroke="none" /><path d="M 109.3889696526874 81.21577127319529 l 12.12013138907311 -24.248381732292604 a48.108699738707074,48.108699738707074 0 0,0 0.735542565945424,0.3755732751200113 l -12.534601176732114 24.036750505499757" fill="#cbff1d" stroke="none" /><line stroke="#e1ed5e" stroke-width="0.3" x1="143.13028292997686" x2="145.6673583964461" y1="26.7553504044142" y2="22.446841604673864" /><path d="M 143.63769802327073 25.89364864446614 a86.0,86.0 0 0,1 29.32050498858742,28.57503671076993" fill="none" id="id38" stroke="none" /><text fill="#e1ed5e" style="font-size:6.75px; font-family:Arial;" text-anchor="middle"><textPath startOffset="20.669276256404974" xlink:href="#id38">February</textPath></text><path d="M 111.27062007382361 82.28071324371311 l 26.42685723421084 -41.54740895649548 a70.23988194823016,70.23988194823016 0 0,0 1.0118368322814901,0.6558604100190671 l -27.136179698749334 41.08763470477252" fill="#3bff98" stroke="none" /><path d="M 111.5731344415666 82.4767994020092 l 3.2592067288140245 -4.934854389507859 a26.913984811173563,26.913984811173563 0 0,0 0.38333679805347376,0.25792610550811584 l -3.343439814964499 4.8781786099426245" fill="#ff0a01" stroke="none" /><path d="M 111.8722381534696 82.67804972795209 l 11.157129799553871 -16.27858581241279 a40.735093144350245,40.735093144350245 0 0,0 0.5734044521411437,0.4002808404284626 l -11.434929342868777 16.0846601561792" fill="#ffd413" stroke="none" /><path d="M 112.16784306229584 82.88440491214696 l 16.666653545420182 -23.443735433839418 a49.76431941650845,49.76431941650845 0 0,0 0.6920060131159966,0.5009589875139908 l -17.06664056891015 23.154175674952352" fill="#b6ff1f" stroke="none" /><path d="M 112.45986205192187 83.09580414077388 l 19.164442220658145 -26.000246510021224 a53.29997932214223,53.29997932214223 0 0,0 0.7318518918408414,0.5491953034539537 l -19.607947101409753 25.66743217930326" fill="#8cff24" stroke="none" /><path d="M 112.7482090630111 83.31218511350987 l 8.961394024311526 -11.730752442436572 a35.76201665507453,35.76201665507453 0 0,0 0.4846435380868396,0.37686174655655985 l -9.161447507033591 11.57518964425922" fill="#ff8e0d" stroke="none" /><path d="M 113.31354834802062 83.75963576809568 l 18.78273458853008 -22.91188216808237 a50.626769366693615,50.626769366693615 0 0,0 0.6673709113889169,0.5567445501496026 l -19.17327983408089 22.5860754340209" fill="#acff20" stroke="none" /><path d="M 113.86319453409587 84.22622945171908 l 8.691110466957358 -9.888888306254218 a34.165314773389476,34.165314773389476 0 0,0 0.43721023567608336,0.39095608871364995 l -8.859585729456818 9.738236687657182" fill="#ff770b" stroke="none" /><path d="M 114.13192950727249 84.46653392183569 l 20.405120032435743 -22.428801366550708 a51.321940147000774,51.321940147000774 0 0,0 0.6465836876810952,0.598468208383662 l -20.787133491430804 22.075215412034673" fill="#a4ff21" stroke="none" /><path d="M 114.39649973595853 84.71141617570332 l 23.479525482485137 -24.93444240457131 a55.249299772543566,55.249299772543566 0 0,0 0.6849006127365926,0.6561192939230016 l -23.90409858108704 24.52771098034273" fill="#76ff27" stroke="none" /><path d="M 114.91283532996326 85.21462403516908 l 21.04194981847734 -20.862105174204984 a50.63091433727466,50.63091433727466 0 0,0 0.6066383960505192,0.6224644362736351 l -21.396975015678674 20.497818045863607" fill="#acff21" stroke="none" /><path d="M 115.16444852881244 85.47280134310134 l 21.42241680809547 -20.522190707482267 a50.66614658721356,50.66614658721356 0 0,0 0.5962782169568254,0.6332268030246804 l -21.771550858788554 20.151422444513095" fill="#acff21" stroke="none" /><path d="M 115.6541949942343 86.00192230759917 l 28.720520290402078 -25.68206634319412 a59.528389758820985,59.528389758820985 0 0,0 0.674623721093341,0.7675979556358286 l -29.157155075454007 25.185256109746994" fill="#47ff2c" stroke="none" /><path d="M 115.8921839302757 86.27271002978787 l 18.498111340163394 -15.978228000743176 a45.44348365509333,45.44348365509333 0 0,0 0.504867228090903,0.5947323252204997 l -18.769673131761408 15.658328893073126" fill="#ecff1a" stroke="none" /><path d="M 116.1254893667686 86.54754324733833 l 11.074016209400416 -9.23833818291657 a35.42153692877418,35.42153692877418 0 0,0 0.3855097586917978,0.4702592225940349 l -11.230972787330842 9.04687667862404" fill="#ff8a0c" stroke="none" /><path d="M 116.35404254752997 86.82634096563983 l 30.561572818474964 -24.618239722334998 a60.24369325337895,60.24369325337895 0 0,0 0.6418350725196897,0.8109376470310515 l -30.979674321636214 24.08998213138927" fill="#3fff2d" stroke="none" /><path d="M 116.7966241395341 87.39550010848427 l 21.82421302939259 -16.377296323130395 a48.28574919638326,48.28574919638326 0 0,0 0.491820201713728,0.6672485604293291 l -22.102135250690143 16.00024145343219" fill="#c9ff1d" stroke="none" /><path d="M 117.21940702142032 87.97951657250589 l 24.305252731782875 -16.966954047837678 a50.6415728330545,50.6415728330545 0 0,0 0.4914891565328916,0.7170973677128892 l -24.592931625131094 16.54722194505474" fill="#acff21" stroke="none" /><path d="M 117.42321728460499 88.27688183743584 l 30.757315487338957 -20.69489451525909 a58.071432599582685,58.071432599582685 0 0,0 0.5493987835428299,0.8318597818872198 l -31.108038709802514 20.163854855032813" fill="#57ff2a" stroke="none" /><path d="M 117.62189284568427 88.57770195909679 l 14.942104367981123 -9.68529152594191 a38.806497546854146,38.806497546854146 0 0,0 0.3575414631085514,0.562114566065176 l -15.106163522715566 9.42736328519806" fill="#ffb911" stroke="none" /><line stroke="#e1ed5e" stroke-width="0.3" x1="172.87174338648825" x2="177.1583165268699" y1="56.24261187166439" y2="53.66864786411523" /><path d="M 173.72905801456457 55.72781907015455 a86.0,86.0 0 0,1 12.242430191666344,42.057860355516425" fill="none" id="id39" stroke="none" /><text fill="#e1ed5e" style="font-size:6.75px; font-family:Arial;" text-anchor="middle"><textPath startOffset="22.145653131862474" xlink:href="#id39">March</textPath></text><path d="M 118.00360718960297 89.18935116829356 l 38.09602133400096 -22.875566223468766 a65.4364531834502,65.4364531834502 0 0,0 0.5700022668150331,0.9679884634501044 l -38.48309731094576 22.218226591725102" fill="#34ff5e" stroke="none" /><path d="M 118.18653347947321 89.5 l 25.660098939205795 -14.8148650299829 a50.629730059965794,50.629730059965794 0 0,0 0.42810241888686734,0.7564159541915925 l -25.91063472311404 14.37219230569219" fill="#acff20" stroke="none" /><path d="M 118.53625476483649 90.13048839642627 l 26.16503322523161 -13.931406441078513 a50.64275711036337,50.64275711036337 0 0,0 0.40198757024568216,0.7708641699940018 l -26.400328864452238 13.480196027980014" fill="#acff21" stroke="none" /><path d="M 118.70294669586156 90.45014215332178 l 26.900274165907497 -13.735471661154376 a51.204104554768136,51.204104554768136 0 0,0 0.39300390552632486,0.7862710739320634 l -27.13209798464556 13.271668731058563" fill="#a5ff21" stroke="none" /><path d="M 118.8641267826498 90.77261029715802 l 14.060595354227637 -6.877741773171175 a36.652593191345375,36.652593191345375 0 0,0 0.2716144642919355,0.5675697653675822 l -14.176589076479484 6.6353595057384895" fill="#ff9b0e" stroke="none" /><path d="M 119.16976305983485 91.42560881287824 l 40.58930755891089 -18.155080995951472 a65.46457976953587,65.46457976953587 0 0,0 0.45004129746277494,1.0297825611458231 l -40.89498273839064 17.4556363650298" fill="#34ff5f" stroke="none" /><path d="M 119.4528033332814 92.08871423366111 l 41.16474569682788 -16.741343709011808 a65.43882173806793,65.43882173806793 0 0,0 0.41426303192925384,1.0442134571033044 l -41.44606740372326 16.032229234694938" fill="#34ff5e" stroke="none" /><path d="M 119.71291397450082 92.76114493625339 l 33.37969932505754 -12.257487949173209 a56.55911047615467,56.55911047615467 0 0,0 0.32685733475485523,0.9142781383259234 l -33.585196829856336 11.682674854466368" fill="#67ff28" stroke="none" /><path d="M 119.83427380445688 93.10060997987247 l 33.58715426989005 -11.683355753720193 a56.5611829614452,56.5611829614452 0 0,0 0.31112577167427025,0.9197880605282912 l -33.782765463136684 11.105066018717741" fill="#67ff28" stroke="none" /><path d="M 119.94978838288452 93.4421083053983 l 33.756326752664414 -11.096375089445988 a56.533352444686734,56.533352444686734 0 0,0 0.2951452458732249,0.9245382789878168 l -33.941836714314896 10.515267776766784" fill="#68ff28" stroke="none" /><path d="M 120.16314734710363 94.1308016681162 l 42.679015644078675 -12.423239443352644 a65.45036844182943,65.45036844182943 0 0,0 0.30475408192934617,1.0814647250925287 l -42.8859882180826 11.688766794357102" fill="#34ff5e" stroke="none" /><path d="M 120.35273937422433 94.82641323984039 l 43.0596621338735 -10.945597730931702 a65.42905145026975,65.42905145026975 0 0,0 0.267363273459071,1.090933393653773 l -43.241212933848864 10.204808512669835" fill="#34ff5e" stroke="none" /><path d="M 120.43855184770803 95.1765574152323 l 43.250433853155315 -10.206984624518896 a65.43852566874072,65.43852566874072 0 0,0 0.24863255162120734,1.0955208982275695 l -43.419277266334184 9.463029392352299" fill="#34ff5e" stroke="none" /><path d="M 120.51834098615036 95.52812308129327 l 10.474200947795918 -2.282803346136061 a31.72007819989849,31.72007819989849 0 0,0 0.11138624663288633,0.5330235124135553 l -10.51184490525317 2.1026633824371013" fill="#ff5307" stroke="none" /><path d="M 120.592083275326 95.88100663000786 l 32.00091494618154 -6.401079227129208 a53.63483373122545,53.63483373122545 0 0,0 0.17284133625819345,0.9043789070995996 l -32.10608257472189 5.850797754996294" fill="#89ff25" stroke="none" /><path d="M 120.65975698304385 96.23510406497455 l 10.851935718892951 -1.9775841849809654 a32.03065492414986,32.03065492414986 0 0,0 0.09393398711176344,0.5417862756749693 l -10.884284523496948 1.7910048763854034" fill="#ff5808" stroke="none" /><path d="M 120.77682067341334 96.94652285012252 l 15.512606949958982 -2.2798190156852627 a36.67923943079497,36.67923943079497 0 0,0 0.08620579021399985,0.6237421546221581 l -15.549457256728196 2.013188552863019" fill="#ff9b0e" stroke="none" /><path d="M 120.86939407059847 97.66154086499901 l 35.3132414847627 -3.956922364740748 a56.53424065266839,56.53424065266839 0 0,0 0.09978995446953098,0.9653772873435876 l -35.3759638317139 3.350140555114229" fill="#68ff28" stroke="none" /><path d="M 120.9064616781168 98.02013634271609 l 29.77481868345478 -2.8197062860854363 a50.90803522755043,50.90803522755043 0 0,0 0.0749229973552084,0.870718798723546 l -29.81883530350773 2.3081664399862283" fill="#a9ff21" stroke="none" /><path d="M 120.96210409425399 98.7389718711861 l 11.894990239434968 -0.7155730749379354 a32.91649435118522,32.91649435118522 0 0,0 0.029089419800938186,0.5643269728372472 l -11.905521248692478 0.5112743087239575" fill="#ff6509" stroke="none" /><path d="M 120.99303781780057 99.45929381324524 l 62.97911345340172 -1.6221185602642854 a84.0,84.0 0 0,0 0.024754273605335886,1.4418123361237345 l -62.99767915860572 0.5407593081714844" fill="#4dd2ff" stroke="none" /><line stroke="#e1ed5e" stroke-width="0.3" x1="184.99686870605535" x2="189.99668451229388" y1="99.2704041080226" y2="99.22748670261217" /><path d="M 185.99683186730306 99.26182062694052 a86.0,86.0 0 0,1 -10.086455211305974,41.156179273409016" fill="none" id="id40" stroke="none" /><text fill="#e1ed5e" style="font-size:6.75px; font-family:Arial;" text-anchor="middle"><textPath startOffset="21.40746469413373" xlink:href="#id40">April</textPath></text><path d="M 120.98066250479742 100.90099992219065 l 44.39198506593386 1.9063828456870182 a65.43290035152359,65.43290035152359 0 0,0 -0.0578252679890831,1.1217947508437203 l -44.352718208488206 -2.668149389907469" fill="#34ff5e" stroke="none" /><path d="M 120.96210409425399 101.26102812881392 l 44.408278797944185 2.6714917770000266 a65.48856138504051,65.48856138504051 0 0,0 -0.07713940941258646,1.1215900830857979 l -44.355875427366534 -3.4334252842401676" fill="#34ff5f" stroke="none" /><path d="M 120.93736805541906 101.62068470465957 l 38.55457891074223 2.984368243890037 a59.66991089723105,59.66991089723105 0 0,0 -0.08781813237057194,1.0205798142502522 l -38.497667155673916 -3.6457691055159467" fill="#45ff2d" stroke="none" /><path d="M 120.82617615685814 102.69636545807757 l 44.061297713591955 5.704617126936125 a65.42905145026975,65.42905145026975 0 0,0 -0.1537753555077185,1.1126418693461673 l -43.95687784152903 -6.460147304482378" fill="#34ff5e" stroke="none" /><path d="M 120.77682067341334 103.0534771498775 l 17.259012830763677 2.5364805393741405 a38.444404759666895,38.444404759666895 0 0,0 -0.10156372436660976,0.6521119673335305 l -17.212927614258803 -2.8323806886391214" fill="#ffb410" stroke="none" /><path d="M 120.7213421655516 103.40968896794604 l 29.2432799420792 4.811970586095997 a50.6365396544918,50.6365396544918 0 0,0 -0.14849812077064722,0.8564976987651622 l -29.15636700381632 -5.313261317781747" fill="#acff21" stroke="none" /><path d="M 120.592083275326 104.11899336999214 l 43.57445386431892 8.71611114661813 a65.43763746075908,65.43763746075908 0 0,0 -0.22978672307627124,1.099612653650072 l -43.41840943041828 -9.462840251553612" fill="#34ff5e" stroke="none" /><path d="M 120.51834098615036 104.47187691870673 l 28.966627201353194 6.313141578159191 a50.6466060116172,50.6466060116172 0 0,0 -0.19243090755692227,0.8478860845810662 l -28.85398543223861 -6.809461996679274" fill="#acff21" stroke="none" /><path d="M 120.35273937422433 105.17358676015961 l 12.026105700224393 3.0569890412765206 a33.40856157302104,33.40856157302104 0 0,0 -0.1460598754088666,0.5546131373912735 l -11.971856344010796 -3.2629826830405975" fill="#ff6c0a" stroke="none" /><path d="M 120.16314734710363 105.8691983318838 l 42.67219314182765 12.421253512379579 a65.4432627779762,65.4432627779762 0 0,0 -0.3232388593476751,1.0759570350269558 l -42.45267796247634 -13.151948150997258" fill="#34ff5e" stroke="none" /><path d="M 120.05942366710727 106.21446072829308 l 42.47501983988064 13.158869721727777 a65.4666522548264,65.4666522548264 0 0,0 -0.34178357271759585,1.0706321735650093 l -42.24287155138579 -13.88607092898417" fill="#34ff5f" stroke="none" /><path d="M 119.94978838288452 106.5578916946017 l 28.160883070373522 9.257041611443386 a50.6433492490178,50.6433492490178 0 0,0 -0.2785735780316085,0.8235532841695172 l -27.99782407076955 -9.739096570087064" fill="#acff21" stroke="none" /><path d="M 119.83427380445688 106.89939002012753 l 25.46042251849721 8.85645659448735 a47.95681617384439,47.95681617384439 0 0,0 -0.2771443360043632,0.7752220330612484 l -25.304638012448905 -9.29221358392952" fill="#cdff1d" stroke="none" /><path d="M 119.4528033332814 107.91128576633889 l 41.186686185953164 16.750266714932824 a65.46250728424536,65.46250728424536 0 0,0 -0.4322837101031852,1.0373235368885905 l -40.89307663131349 -17.454822761262694" fill="#34ff5f" stroke="none" /><path d="M 119.31412917781788 108.2440532568976 l 28.477784334754073 12.15547273877567 a51.96352237908153,51.96352237908153 0 0,0 -0.3572272382186919,0.8174058299934461 l -28.264923214518415 -12.64254063854496" fill="#9cff22" stroke="none" /><path d="M 118.70294669586154 109.54985784667822 l 40.59708784670478 20.729162320230827 a66.58312968776434,66.58312968776434 0 0,0 -0.5285176410164202,1.0135022643120943 l -40.235262136713416 -21.423010827647428" fill="#36ff6c" stroke="none" /><line stroke="#e1ed5e" stroke-width="0.3" x1="174.33088141563837" x2="178.70328620479359" y1="141.23008692659167" y2="143.65538615756765" /><path d="M 175.20536237346943 141.71514677278685 a86.0,86.0 0 0,1 -30.301960400862466,31.631185727798858" fill="none" id="id41" stroke="none" /><text fill="#e1ed5e" style="font-size:6.75px; font-family:Arial;" text-anchor="middle"><textPath startOffset="22.145653131862474" xlink:href="#id41">May</textPath></text><path d="M 118.36410011445183 110.18625677009912 l 38.90388195853753 21.57932752018864 a65.48796924638607,65.48796924638607 0 0,0 -0.5537370633649638,0.9784003329052613 l -38.52771153015119 -22.243984623193025" fill="#34ff5f" stroke="none" /><path d="M 118.18653347947321 110.5 l 25.677021574076814 14.82463531778107 a50.649270635562154,50.649270635562154 0 0,0 -0.44119443628556215,0.7492446071295816 l -25.41875342766149 -15.263231093204201" fill="#acff21" stroke="none" /><path d="M 118.00360718960297 110.81064883170644 l 24.9420708943127 14.976996928129886 a50.09325243904732,50.09325243904732 0 0,0 -0.44900737493576864,0.733419802743336 l -24.681295554921526 -15.402953846997779" fill="#b3ff20" stroke="none" /><path d="M 117.21940702142032 112.02048342749411 l 15.440804154135527 10.778880492869545 a39.830897419027394,39.830897419027394 0 0,0 -0.39619395632556104,0.5572964163003756 l -15.253495099280007 -11.042354135879425" fill="#ffc712" stroke="none" /><path d="M 116.79662413953412 112.60449989151573 l 23.760827766310687 17.830568125762333 a50.7070041543696,50.7070041543696 0 0,0 -0.528434647308136,0.6917379163064211 l -23.451241141648246 -18.23582695530963" fill="#abff21" stroke="none" /><path d="M 116.1254893667686 113.45245675266167 l 12.767742769860961 10.651305119125325 a37.62725341654605,37.62725341654605 0 0,0 -0.41803060868455677,0.4924390059073934 l -12.58301759766929 -10.868910907482274" fill="#ffa90f" stroke="none" /><path d="M 115.89218393027572 113.72728997021213 l 22.46951424113719 19.40863123854807 a50.691312480027065,50.691312480027065 0 0,0 -0.5744748344602151,0.6536469067248808 l -22.133028342718386 -19.791490423084245" fill="#abff21" stroke="none" /><path d="M 115.6541949942343 113.99807769240083 l 15.916314553440914 14.232466618552792 a42.35163167095889,42.35163167095889 0 0,0 -0.489266819832023,0.5377899419269709 l -15.669650032767011 -14.503594136037433" fill="#ffe915" stroke="none" /><path d="M 115.16444852881244 114.52719865689866 l 26.1939287674076 25.09319122853605 a57.273821832058196,57.273821832058196 0 0,0 -0.6862309295944239,0.7041333874091827 l -25.759311036662368 -25.53914730801297" fill="#5fff29" stroke="none" /><path d="M 111.8722381534696 117.32195027204791 l 16.751846986797343 24.44144538874983 a50.63121040660188,50.63121040660188 0 0,0 -0.7211420462264884,0.48521655224814797 l -16.329808652473854 -24.725411615055098" fill="#acff21" stroke="none" /><path d="M 111.27062007382361 117.71928675628689 l 16.131137216211794 25.360827014560027 a51.05636596048649,51.05636596048649 0 0,0 -0.7435651506836443,0.46403964786736107 l -15.693407936738435 -25.634002459268935" fill="#a7ff21" stroke="none" /><path d="M 110.96478420261333 117.91015095944535 l 10.737334546287144 17.53862903934181 a41.56438332988702,41.56438332988702 0 0,0 -0.611723303864677,0.3673222677326232 l -10.434678485865032 -17.720365307610358" fill="#ffdf14" stroke="none" /><line stroke="#e1ed5e" stroke-width="0.3" x1="143.1302829299769" x2="145.66735839644613" y1="173.24464959558577" y2="177.55315839532614" /><path d="M 143.63769802327073 174.10635135553383 a86.0,86.0 0 0,1 -40.68552437913181,11.842963189579606" fill="none" id="id42" stroke="none" /><text fill="#e1ed5e" style="font-size:6.75px; font-family:Arial;" text-anchor="middle"><textPath startOffset="21.407464694133747" xlink:href="#id42">June</textPath></text><path d="M 110.65571695917076 118.09573695890943 l 15.04583949604588 25.551124798983455 a50.65193525950712,50.65193525950712 0 0,0 -0.7530436050221705,0.43476992807107806 l -14.605003423163312 -25.805641624330708" fill="#acff21" stroke="none" /><path d="M 110.02825361518725 118.45085714620011 l 14.159297653821264 26.051512888099637 a50.65075098219824,50.65075098219824 0 0,0 -0.76750645006408,0.40865395468640486 l -13.710002387970631 -26.29073731050861" fill="#acff21" stroke="none" /><path d="M 109.71004243097381 118.62028667847754 l 13.8009022719984 26.46504982373083 a50.8473410154708,50.8473410154708 0 0,0 -0.7774141451578157,0.39695320181267096 l -13.344560905127002 -26.698060977216336" fill="#a9ff21" stroke="none" /><path d="M 108.73861861582097 119.09545874513695 l 13.003945639320401 28.41596806045273 a52.25011748782826,52.25011748782826 0 0,0 -0.8188006364030048,0.36623910993942654 l -12.514231600061768 -28.63501092130201" fill="#99ff23" stroke="none" /><path d="M 108.4095320186766 119.2426549942271 l 11.87660452715668 27.175995395629226 a50.65785664605147,50.65785664605147 0 0,0 -0.799827068136911,0.34139861473029187 l -11.408342383849337 -27.37586866001892" fill="#acff21" stroke="none" /><path d="M 106.72888874123015 119.89276391827305 l 9.49120907044362 28.059073139436403 a50.620847980149264,50.620847980149264 0 0,0 -0.8255471159138925,0.2713737344501743 l -9.008139216881995 -28.217867795288598" fill="#acff20" stroke="none" /><path d="M 106.0420521117495 120.11202640906438 l 10.486419456633348 34.90587984804199 a57.44702238848055,57.44702238848055 0 0,0 -0.9468910294410579,0.275626178532563 l -9.885668414810683 -35.08074972087707" fill="#5dff2a" stroke="none" /><path d="M 105.69591212413111 120.21278271476187 l 8.034820867435261 28.512744720456492 a50.623216534766996,50.623216534766996 0 0,0 -0.8384617264429636,0.2285264720157147 l -7.544177740057602 -28.64647168661635" fill="#acff20" stroke="none" /><path d="M 105.3480935250658 120.30758222061773 l 7.550963767708447 28.67223933892554 a50.649862774216594,50.649862774216594 0 0,0 -0.8427044739129176,0.2142121818984493 l -7.057654000570133 -28.79763675265926" fill="#acff21" stroke="none" /><path d="M 104.9986988182912 120.39639698878246 l 5.814697850906589 23.7259515022059 a45.42808805007801,45.42808805007801 0 0,0 -0.7590121625640954,0.1791248036821569 l -5.406553534602615 -23.82227244953428" fill="#edff1a" stroke="none" /><path d="M 104.29559338865022 120.5559693870025 l 7.617982171432442 36.45480243089356 a58.2422646013873,58.2422646013873 0 0,0 -0.980421201296488,0.19611169855644578 l -6.991064484604995 -36.58020352611286" fill="#55ff2b" stroke="none" /><path d="M 103.94208987418118 120.62667999033965 l 1.8566845370994207 9.71495805831076 a30.89078801436171,30.89078801436171 0 0,0 -0.5217090267586384,0.09507276371749254 l -1.6896407767897252 -9.745398995959617" fill="#ff4706" stroke="none" /><path d="M 103.58742460773223 120.69131181640829 l 4.573162193448984 26.376784261252816 a47.77029249769724,47.77029249769724 0 0,0 -0.8091889393888548,0.13315173204392672 l -4.119695751007057 -26.451401991792412" fill="#cfff1d" stroke="none" /><path d="M 103.2317021107853 120.74984581791261 l 5.195876793031262 33.36125628177722 a54.76345000657932,54.76345000657932 0 0,0 -0.9301308451264512,0.136697203418819 l -4.622420842297125 -33.44553455849492" fill="#7cff26" stroke="none" /><path d="M 102.51750503828377 120.84855314841334 l 4.101623208016104 33.96732405563933 a55.21406752260466,55.21406752260466 0 0,0 -0.9419627676161213,0.10554889285770112 l -3.5179245387991838 -34.032728709004004" fill="#76ff27" stroke="none" /><path d="M 102.15924093988457 120.88869738790638 l 0.9874518069680003 9.55270048834782 a30.60360076696054,30.60360076696054 0 0,0 -0.5230307465358486,0.04953155548996202 l -0.8233214970471365 -9.568243799342966" fill="#ff4306" stroke="none" /><path d="M 101.80034050326958 120.92268563240118 l 1.5219911498423861 17.687844219255872 a38.753205067954966,38.753205067954966 0 0,0 -0.6632906406312609,0.051342890528052895 l -1.2181315144358893 -17.711364876778976" fill="#ffb811" stroke="none" /><path d="M 101.44090949804482 120.95050786540614 l 2.5630268774130442 37.265848290507414 a58.35388273774837,58.35388273774837 0 0,0 -0.9999511561037429,0.06015457845343402 l -1.9229313691768364 -37.304354846785536" fill="#54ff2b" stroke="none" /><path d="M 101.08105385017728 120.97215588758144 l 0.4654382175223297 9.02937707711378 a30.041365114574134,30.041365114574134 0 0,0 -0.5152440871740244,0.022126798062109782 l -0.31036836974747584 -9.03603644360172" fill="#ff3a05" stroke="none" /><path d="M 100.72087961077811 120.9876233191556 l 1.5758578438160762 45.87938171097572 a66.90643739308607,66.90643739308607 0 0,0 -1.148199487591788,0.02957354585638745 l -0.7880450421535444 -45.89967297418215" fill="#36ff70" stroke="none" /><line stroke="#e1ed5e" stroke-width="0.3" x1="101.45913802915013" x2="101.54496967792366" y1="184.9874750549273" y2="189.98673829345242" /><path d="M 101.47630435890484 185.9873277026323 a86.0,86.0 0 0,1 -42.54439059252881,-10.42667462771756" fill="none" id="id43" stroke="none" /><text fill="#e1ed5e" style="font-size:6.75px; font-family:Arial;" text-anchor="middle"><textPath startOffset="22.145653131862474" xlink:href="#id43">July</textPath></text><path d="M 100.36049292484886 120.99690560180557 l 0.15903920246024722 9.263236227019846 a30.264601387296274,30.264601387296274 0 0,0 -0.5195321273090984,0.0044595584708639 l -1.134586443432851e-15 -9.264601387296274" fill="#ff3e05" stroke="none" /><path d="M 100.0 121.0 l 3.628595407753722e-15 29.629730059965794 a50.629730059965794,50.629730059965794 0 0,0 -0.8691266416011867,-0.007460406918204052 l 0.5086337167523309 -29.625364051242027" fill="#acff20" stroke="none" /><path d="M 99.63950707515114 120.99690560180557 l -0.5090098161062251 29.647269953095513 a50.6516391901799,50.6516391901799 0 0,0 -0.8692464945063506,-0.02238870626888878 l 1.0178696246833197 -29.634163529476577" fill="#acff21" stroke="none" /><path d="M 99.27912038922189 120.98762331915562 l -0.9350993056308794 27.224396000604607 a48.240450589318954,48.240450589318954 0 0,0 -0.8273794094895607,-0.03553123183797561 l 1.4023044757212788 -27.2043322003408" fill="#c9ff1d" stroke="none" /><path d="M 98.91894614982273 120.97215588758144 l -0.7638777268976791 14.819023830239876 a35.83869861082392,35.83869861082392 0 0,0 -0.6141313384441922,-0.0369446162981574 l 1.0181534174743176 -14.803727236117027" fill="#ff900d" stroke="none" /><path d="M 98.55909050195518 120.95050786540614 l -0.6716858795141729 9.766165273348896 a30.78923623512604,30.78923623512604 0 0,0 -0.5269812442901941,-0.04079168117038161 l 0.8392361185796032 -9.753195825183461" fill="#ff4606" stroke="none" /><path d="M 98.19965949673042 120.92268563240118 l -3.5608140758315807 41.38205709906053 a62.53497377671673,62.53497377671673 0 0,0 -1.068753780579536,-0.10121209419999877 l 4.2706674197961325 -41.31483324935535" fill="#30ff39" stroke="none" /><path d="M 97.84075906011543 120.88869738790638 l -0.9791106596637135 9.47200745465768 a30.522477771302896,30.522477771302896 0 0,0 -0.5207194276021656,-0.058347697979611514 l 1.1415659888666783 -9.453803996171096" fill="#ff4206" stroke="none" /><path d="M 97.48249496171623 120.84855314841334 l -1.8480925123371281 15.30485714257478 a36.41603379889843,36.41603379889843 0 0,0 -0.6199780819943157,-0.08026857510778097 l 2.1105484162222377 -15.270876971266603" fill="#ff980e" stroke="none" /><path d="M 96.41257539226777 120.69131181640829 l -1.5230386658924457 8.784482293092227 a29.91553565050661,29.91553565050661 0 0,0 -0.5052381629737988,-0.09207122366255067 l 1.6736115624173018 -8.75704289549831" fill="#ff3805" stroke="none" /><path d="M 96.05791012581884 120.62667999033965 l -1.6764460255954405 8.771874004576464 a29.930635186194714,29.930635186194714 0 0,0 -0.5038373680290761,-0.1007815843942674 l 1.8267798791554748 -8.741803023519335" fill="#ff3905" stroke="none" /><path d="M 95.70440661134978 120.55596938700252 l -6.063305527824152 29.015111891947633 a50.64186890238171,50.64186890238171 0 0,0 -0.8494271200031162,-0.18512868728662935 l 6.560495064446405 -28.906751746527284" fill="#acff21" stroke="none" /><path d="M 95.35216902796893 120.47920084513623 l -3.935589340284976 17.340932798262344 a38.78192379269508,38.78192379269508 0 0,0 -0.6479680988079392,-0.15291870699301316 l 4.232689592832803 -17.270817947623105" fill="#ffb911" stroke="none" /><path d="M 95.00130118170881 120.39639698878247 l -2.122969385522733 8.662439558011961 a29.918792413106004,29.918792413106004 0 0,0 -0.49778417629656846,-0.1265347910447096 l 2.27135885504468 -8.62471953513199" fill="#ff3805" stroke="none" /><path d="M 94.6519064749342 120.30758222061772 l -2.267513439375869 8.61011786549012 a29.903692877417903,29.903692877417903 0 0,0 -0.49528859826203003,-0.1349931099068803 l 2.414983438572594 -8.569924261439095" fill="#ff3805" stroke="none" /><path d="M 94.30408787586889 120.21278271476187 l -4.0239552130959355 14.279597473363193 a35.83573791755174,35.83573791755174 0 0,0 -0.5906753275751115,-0.17193697926265541 l 4.268490553052653 -14.208416799798021" fill="#ff8f0d" stroke="none" /><path d="M 93.95794788825049 120.11202640906438 l -4.739132759155668 15.77503163583315 a37.471520950429536,37.471520950429536 0 0,0 -0.6144604399917731,-0.1903614150031648 l 5.009233832019075 -15.691353633023336" fill="#ffa70f" stroke="none" /><path d="M 93.61358852112213 120.00534299687104 l -3.156679888499062 9.88825479059865 a31.379894542925356,31.379894542925356 0 0,0 -0.5117571607601709,-0.16822474353067945 l 3.325959786906976 -9.832609125665948" fill="#ff4e07" stroke="none" /><path d="M 93.27111125876986 119.89276391827306 l -4.973903181138443 14.704460950359834 a36.52291482602402,36.52291482602402 0 0,0 -0.592182937445356,-0.2059919656741977 l 5.22559189062882 -14.616910552117046" fill="#ff990e" stroke="none" /><path d="M 92.93061703081489 119.77432235084164 l -1.770202890891827 4.951572540838278 a26.258487320713574,26.258487320713574 0 0,0 -0.4231503319277259,-0.15538666312668467 l 1.8549423744736717 -4.920455028702873" fill="#ff0000" stroke="none" /><path d="M 92.59220618246901 119.65005319985036 l -5.234799652933049 13.88592801101707 a35.83988288813279,35.83988288813279 0 0,0 -0.5738267969511335,-0.22196853226428934 l 5.47239871237771 -13.79401959061474" fill="#ff900d" stroke="none" /><path d="M 91.92203290615298 119.3841803445677 l -6.721186899784893 16.128401797305408 a38.472827415079806,38.472827415079806 0 0,0 -0.6074400061839005,-0.25928001802440287 l 6.997061981139225 -16.010647129621603" fill="#ffb510" stroke="none" /><path d="M 91.26138138417905 119.09545874513695 l -4.385243402046136 9.58254824390104 a31.538291632986823,31.538291632986823 0 0,0 -0.49036229349440746,-0.22951431319908464 l 4.549094409412033 -9.505857699131429" fill="#ff5107" stroke="none" /><path d="M 90.93487009805054 118.94263497670748 l -10.215460924434002 21.34638438758148 a44.66482132451078,44.66482132451078 0 0,0 -0.6887735525944656,-0.33691365945682955 l 10.580394726290535 -21.16787697802743" fill="#f6ff19" stroke="none" /><path d="M 90.6110303473126 118.78422872680471 l -3.984095089101621 7.9708590176988565 a29.911094610598344,29.911094610598344 0 0,0 -0.45731610705774783,-0.23350886276995622 l 4.120338417872952 -7.901292203256064" fill="#ff3805" stroke="none" /><path d="M 90.28995756902619 118.62028667847754 l -5.460837912451061 10.47187673559321 a32.810205462714066,32.810205462714066 0 0,0 -0.49717020640840287,-0.2647151316892343 l 5.639796934646026 -10.376591136181403" fill="#ff6409" stroke="none" /><path d="M 89.97174638481275 118.45085714620012 l -14.14968356027511 26.033824038832652 a50.63061826794744,50.63061826794744 0 0,0 -0.760076031724773,-0.42160136220634037 l 14.594503780155986 -25.78708976119316" fill="#acff21" stroke="none" /><line stroke="#e1ed5e" stroke-width="0.3" x1="58.13341422392154" x2="55.67067388415222" y1="173.97424548756322" y2="178.32567169271397" /><path d="M 57.64086615596768 174.84453072859336 a86.0,86.0 0 0,1 -31.369924170532247,-30.572349798747897" fill="none" id="id44" stroke="none" /><text fill="#e1ed5e" style="font-size:6.75px; font-family:Arial;" text-anchor="middle"><textPath startOffset="22.145653131862474" xlink:href="#id44">August</textPath></text><path d="M 89.65649057296885 118.27599006163327 l -9.661129850472962 17.07029073420311 a40.61459292817264,40.61459292817264 0 0,0 -0.6038181822361544,-0.3486145900556369 l 9.952740500569517 -16.901929246871298" fill="#ffd213" stroke="none" /><line stroke="#e1ed5e" stroke-width="0.3" x1="26.387840678322732" x2="22.057713659400548" y1="142.50000000000003" y2="145.00000000000006" /><path d="M 25.521815274538298 143.00000000000003 a86.0,86.0 0 0,1 -11.493303480769221,-40.785679425670985" fill="none" id="id45" stroke="none" /><text fill="#e1ed5e" style="font-size:6.75px; font-family:Arial;" text-anchor="middle"><textPath startOffset="21.40746469413373" xlink:href="#id45">September</textPath></text><line stroke="#e1ed5e" stroke-width="0.3" x1="15.003131293944662" x2="10.003315487706104" y1="100.72959589197737" y2="100.7725132973878" /><path d="M 14.003168132696942 100.73817937305945 a86.0,86.0 0 0,1 10.791469493833604,-42.45332614584628" fill="none" id="id46" stroke="none" /><text fill="#e1ed5e" style="font-size:6.75px; font-family:Arial;" text-anchor="middle"><textPath startOffset="22.145653131862435" xlink:href="#id46">October</textPath></text><line stroke="#e1ed5e" stroke-width="0.3" x1="26.387840678322718" x2="22.05771365940052" y1="57.49999999999999" y2="54.99999999999999" /><path d="M 25.521815274538284 56.99999999999999 a86.0,86.0 0 0,1 29.574782752854787,-30.34633250058573" fill="none" id="id47" stroke="none" /><text fill="#e1ed5e" style="font-size:6.75px; font-family:Arial;" text-anchor="middle"><textPath startOffset="21.40746469413373" xlink:href="#id47">November</textPath></text><line stroke="#e1ed5e" stroke-width="0.3" x1="56.869717070023135" x2="54.33264160355391" y1="26.7553504044142" y2="22.446841604673864" /><path d="M 56.362301976729285 25.89364864446614 a86.0,86.0 0 0,1 42.16139366436587,-11.88097634709845" fill="none" id="id48" stroke="none" /><text fill="#e1ed5e" style="font-size:6.75px; font-family:Arial;" text-anchor="middle"><textPath startOffset="22.145653131862474" xlink:href="#id48">December</textPath></text></svg>