<?xml version="1.0" encoding="utf-8" ?>
<svg baseProfile="full" height="200mm" version="1.1" viewBox="0,0,200,200" width="200mm" xmlns="http://www.w3.org/2000/svg" xmlns:ev="http://www.w3.org/2001/xml-events" xmlns:xlink="http://www.w3.org/1999/xlink"><defs /><rect fill="#1a1a1a" height="200" width="200" x="0" y="0" /><text alignment-baseline="middle" fill="#e1ed5e" style="dominant-baseline: central; font-size:9.0px; font-family:Arial;" text-anchor="middle" x="100.0" y="100.0">2025</text><line stroke="#e1ed5e" stroke-width="0.3" x1="100.0" x2="100.0" y1="15.0" y2="10.0" /><path d="M 100.0 14.0 a86.0,86.0 0 0,1 42.46469731375804,11.215312516191453" fill="none" id="id49" stroke="none" /><text fill="#e1ed5e" style="font-size:6.75px; font-family:Arial;" text-anchor="middle"><textPath startOffset="22.20632615414155" xlink:href="#id49">January</textPath></text><path d="M 100.0 79.0 l 0.0 -58.60241694340715 a79.60241694340715,79.60241694340715 0 0,0 1.3702247537121166,0.011793957050593676 l -1.0087442744395883 58.593734362965115" fill="#46fff7" stroke="none" /><path d="M 101.44485096284872 79.0497635885617 l 3.118780416810101 -45.222094684915284 a66.32951178845545,66.32951178845545 0 0,0 1.1383717515888374,0.08835955721186632 l -3.89674235776128 45.16170986551495" fill="#31ff3e" stroke="none" /><path d="M 102.16513564639614 79.11191278185805 l 3.1655535611961905 -30.53959182189186 a51.70321478276446,51.70321478276446 0 0,0 0.8844531564551039,0.09937861748623925 l -3.69077342116102 30.48057725093502" fill="#edff1a" stroke="none" /><path d="M 102.88285421437855 79.19881850522331 l 4.175095572410483 -30.125325216443542 a51.41326425156055,51.41326425156055 0 0,0 0.8755703863703116,0.1290363149212816 l -4.693034939209451 30.048994417361293" fill="#f1ff19" stroke="none" /><path d="M 103.2404852339499 79.25152402106235 l 4.645703162770005 -29.745934179281697 a51.106530156674154,51.106530156674154 0 0,0 0.8680098420223089,0.14322906132900207 l -5.157042210931189 29.66155885501307" fill="#f6ff19" stroke="none" /><path d="M 107.76421540070413 80.48803036053334 l 11.237576012847553 -28.24074689684613 a51.39445508536468,51.39445508536468 0 0,0 0.819169196704128,0.3341596834492157 l -11.722029079140068 28.043126327213336" fill="#f2ff19" stroke="none" /><path d="M 109.08828744355905 81.06846463323043 l 13.897612142061188 -28.94969348351112 a53.1127447603037,53.1127447603037 0 0,0 0.8207910363171279,0.4027585968644812 l -14.393874445388747 28.706179726511806" fill="#d7ff1c" stroke="none" /><path d="M 110.05341064243156 81.56283822128135 l 17.728364224606157 -32.51242099885577 a58.03177577820341,58.03177577820341 0 0,0 0.8728971446051148,0.4857663159070603 l -18.285385458283308 32.20243928538852" fill="#90ff24" stroke="none" /><line stroke="#e1ed5e" stroke-width="0.3" x1="143.23703022742887" x2="145.7803849466894" y1="26.81831364943548" y2="22.513508569990506" /><path d="M 143.74570117128098 25.957352633546492 a86.0,86.0 0 0,1 28.547481713284135,27.462654790039103" fill="none" id="id50" stroke="none" /><text fill="#e1ed5e" style="font-size:6.75px; font-family:Arial;" text-anchor="middle"><textPath startOffset="19.985693538727396" xlink:href="#id50">February</textPath></text><path d="M 111.2981086023043 82.29822771554956 l 15.71952052036305 -24.629199671125455 a50.21815876865415,50.21815876865415 0 0,0 0.7246551433953571,0.4713358628585412 l -16.141142689542686 24.35496488410739" fill="#fffa17" stroke="none" /><path d="M 114.94478906791727 85.2469230424477 l 13.767879978568255 -13.591265286052508 a40.34624023370217,40.34624023370217 0 0,0 0.4836471662877267,0.49844091864566026 l -13.99979140855909 13.352260171856733" fill="#ff5507" stroke="none" /><path d="M 116.60985879189232 87.15038557335679 l 20.316069859910023 -15.71679010853589 a46.68579735707101,46.68579735707101 0 0,0 0.48625272056252017,0.6398515823570496 l -20.583598520696654 15.364753750297806" fill="#ffc212" stroke="none" /><path d="M 117.04232023915458 87.72973835380427 l 20.863814737670005 -15.021690836485845 a46.7089471000813,46.7089471000813 0 0,0 0.4641698953349994,0.6565353991118161 l -21.119297252808884 14.660328937042236" fill="#ffc212" stroke="none" /><path d="M 117.45458315368197 88.32363383020206 l 12.187013109879501 -8.152588138838675 a35.662468479144565,35.662468479144565 0 0,0 0.336931130366868,0.5131692270649086 l -12.325540875604295 7.941600847796094" fill="#ff0000" stroke="none" /><line stroke="#e1ed5e" stroke-width="0.3" x1="172.23445277983987" x2="176.4835382374775" y1="55.19839476539836" y2="52.563006222186495" /><path d="M 173.08426987136738 54.67131705675599 a86.0,86.0 0 0,1 12.851231095245387,41.99856678651699" fill="none" id="id51" stroke="none" /><text fill="#e1ed5e" style="font-size:6.75px; font-family:Arial;" text-anchor="middle"><textPath startOffset="22.20632615414155" xlink:href="#id51">March</textPath></text><path d="M 118.03404312379186 89.2402003453031 l 37.28872837493577 -22.247881073512676 a64.42139422083201,64.42139422083201 0 0,0 0.5599762986736215,0.9571810134173989 l -37.66616434807972 21.602720647741382" fill="#3bff2e" stroke="none" /><path d="M 118.89224826269711 90.83032412892265 l 23.12153358707982 -11.22243185075962 a46.70113406181533,46.70113406181533 0 0,0 0.3447918178372443,0.7262195012416045 l -23.31128359875882 10.822769933877476" fill="#ffc212" stroke="none" /><path d="M 119.04729006885535 91.15688171328212 l 34.99409044370913 -16.246766863482772 a59.58165107274255,59.58165107274255 0 0,0 0.42387431532219283,0.9339508671427881 l -35.26856707599467 15.641993987497923" fill="#7bff26" stroke="none" /><path d="M 119.196687751892 91.48605970444005 l 23.48724837990717 -10.416850708727496 a46.69361039533698,46.69361039533698 0 0,0 0.31953836213315717,0.7375385957368178 l -23.66307745188301 10.011012968404074" fill="#ffc212" stroke="none" /><path d="M 119.47837535516314 92.15188598940014 l 23.83699432682528 -9.604263483779647 a46.699108459301925,46.699108459301925 0 0,0 0.29399635014732195,0.748188643410087 l -23.998784226854305 9.192525835473775" fill="#ffc212" stroke="none" /><path d="M 120.08093135843002 93.85539295169968 l 40.86442275763464 -12.504191943063192 a63.734714968789184,63.734714968789184 0 0,0 0.31197870705038305,1.0518371072508756 l -41.073607361796725 11.798925449065786" fill="#44ff2d" stroke="none" /><path d="M 120.28053869075195 94.5502522615342 l 30.410328365172543 -8.171805530475115 a52.48914855796392,52.48914855796392 0 0,0 0.2269622488603684,0.8745781285870943 l -30.54648694590321 7.64713097633917" fill="#e1ff1b" stroke="none" /><path d="M 120.37134235888165 94.90015583598534 l 30.55069758287092 -7.648185084212292 a52.49348913477836,52.49348913477836 0 0,0 0.2118917180235363,0.8784279677946485 l -30.67782210115528 7.121171884758237" fill="#e1ff1b" stroke="none" /><path d="M 120.45610955862082 95.25157060432595 l 30.695016609747903 -7.125163206265947 a52.5111408138237,52.5111408138237 0 0,0 0.19680578699877702,0.8822417533787085 l -30.81311678374872 6.595743283337275" fill="#e0ff1b" stroke="none" /><path d="M 120.67395015179393 96.31383870115 l 30.9951144460643 -5.526422888980144 a52.48393986578661,52.48393986578661 0 0,0 0.15092416326568617,0.8907629549211097 l -31.085650470850208 4.992074145743197" fill="#e1ff1b" stroke="none" /><path d="M 120.78858239683441 97.02765380044208 l 31.179579322090667 -4.458048285002012 a52.49667222444227,52.49667222444227 0 0,0 0.12020238270002603,0.8956473695552887 l -31.251697703848528 3.9206825733820585" fill="#e1ff1b" stroke="none" /><path d="M 120.83666639777658 97.38593545837742 l 31.330368889211698 -3.9305522690511903 a52.57596009425252,52.57596009425252 0 0,0 0.10492571085940569,0.8989394135916207 l -31.393384953074694 3.390669117134717" fill="#dfff1b" stroke="none" /><path d="M 120.96714384426684 98.82574320788733 l 61.23292406148775 -3.4293262598941 a82.32887792644445,82.32887792644445 0 0,0 0.067064287595543,1.415621115401427 l -61.28288195731679 2.3747940378696732" fill="#4ae6ff" stroke="none" /><path d="M 120.98425023603335 99.18683210126433 l 18.048461937037242 -0.6994021565540358 a39.06200824020614,39.06200824020614 0 0,0 0.02025328956645118,0.6721080799389122 l -18.057826921059338 0.38862392919012456" fill="#ff3f05" stroke="none" /><line stroke="#e1ed5e" stroke-width="0.3" x1="184.98032266829074" x2="189.97916517819016" y1="98.17113171792111" y2="98.06355123074" /><path d="M 185.9800911702706 98.14961562048488 a86.0,86.0 0 0,1 -9.607161424134198,41.387399972396054" fill="none" id="id52" stroke="none" /><text fill="#e1ed5e" style="font-size:6.75px; font-family:Arial;" text-anchor="middle"><textPath startOffset="21.466115282336823" xlink:href="#id52">April</textPath></text><path d="M 120.99513854157772 99.54816195383933 l 17.941815696807602 -0.3861272424073817 a38.94597015336704,38.94597015336704 0 0,0 0.008655265023782218,0.6703598145286469 l -17.945803968949097 0.07723116981827206" fill="#ff3c05" stroke="none" /><path d="M 120.99824983174949 100.27111621757518 l 62.994749495248485 0.8133486527255557 a84.0,84.0 0 0,0 -0.03111174925997018,1.4456407368395405 l -62.97141568330351 -1.8975792053552112" fill="#4dd2ff" stroke="none" /><path d="M 120.9764740272857 100.99374915477107 l 39.78971574937779 1.8850163446483466 a60.834341541387055,60.834341541387055 0 0,0 -0.058556382566942754,1.0455635466855946 l -39.75137301592332 -2.5696516076693645" fill="#6aff28" stroke="none" /><line stroke="#e1ed5e" stroke-width="0.3" x1="174.80103733775053" x2="179.2010983576182" y1="140.37084112569926" y2="142.7455964860345" /><path d="M 175.68104954172406 140.8457921977663 a86.0,86.0 0 0,1 -30.038265399797805,32.042727171017184" fill="none" id="id53" stroke="none" /><text fill="#e1ed5e" style="font-size:6.75px; font-family:Arial;" text-anchor="middle"><textPath startOffset="22.206326154141568" xlink:href="#id53">May</textPath></text><line stroke="#e1ed5e" stroke-width="0.3" x1="143.8653032363475" x2="146.44561519142675" y1="172.8068346515853" y2="177.08958963109032" /><path d="M 144.38136562736335 173.6633856474863 a86.0,86.0 0 0,1 -40.68145358897372,12.25698825130547" fill="none" id="id54" stroke="none" /><text fill="#e1ed5e" style="font-size:6.75px; font-family:Arial;" text-anchor="middle"><textPath startOffset="21.466115282336833" xlink:href="#id54">June</textPath></text><line stroke="#e1ed5e" stroke-width="0.3" x1="102.19456741930631" x2="102.32365962044197" y1="184.97166512339345" y2="189.96999836594603" /><path d="M 102.22038585953345 185.97133177190398 a86.0,86.0 0 0,1 -42.740103519485714,-10.115201625700543" fill="none" id="id55" stroke="none" /><text fill="#e1ed5e" style="font-size:6.75px; font-family:Arial;" text-anchor="middle"><textPath startOffset="22.20632615414155" xlink:href="#id55">July</textPath></text><line stroke="#e1ed5e" stroke-width="0.3" x1="58.666819895761336" x2="56.23545636021788" y1="174.27360380694188" y2="178.64263932499728" /><path d="M 58.180547188652646 175.14741091055294 a86.0,86.0 0 0,1 -31.652253787137756,-30.449443065178592" fill="none" id="id56" stroke="none" /><text fill="#e1ed5e" style="font-size:6.75px; font-family:Arial;" text-anchor="middle"><textPath startOffset="22.20632615414155" xlink:href="#id56">August</textPath></text><line stroke="#e1ed5e" stroke-width="0.3" x1="26.63291911575756" x2="22.317208475507996" y1="142.92168965132927" y2="145.44649492493687" /><path d="M 25.769776987707644 143.4266507060508 a86.0,86.0 0 0,1 -11.730757126820373,-40.83630448921669" fill="none" id="id57" stroke="none" /><text fill="#e1ed5e" style="font-size:6.75px; font-family:Arial;" text-anchor="middle"><textPath startOffset="21.46611528233685" xlink:href="#id57">September</textPath></text><line stroke="#e1ed5e" stroke-width="0.3" x1="15.007084014347285" x2="10.007500721073583" y1="101.09737516637583" y2="101.16192664675087" /><path d="M 14.007167355692545 101.11028546245083 a86.0,86.0 0 0,1 10.666146001902534,-42.60595125391555" fill="none" id="id58" stroke="none" /><text fill="#e1ed5e" style="font-size:6.75px; font-family:Arial;" text-anchor="middle"><textPath startOffset="22.20632615414155" xlink:href="#id58">October</textPath></text><line stroke="#e1ed5e" stroke-width="0.3" x1="26.266209847984243" x2="21.928928074336255" y1="57.711370442889674" y2="55.22380399835377" /><path d="M 25.398753493254645 57.213857153982495 a86.0,86.0 0 0,1 29.58750427330803,-30.492523968695096" fill="none" id="id59" stroke="none" /><text fill="#e1ed5e" style="font-size:6.75px; font-family:Arial;" text-anchor="middle"><textPath startOffset="21.46611528233685" xlink:href="#id59">November</textPath></text><line stroke="#e1ed5e" stroke-width="0.3" x1="56.762969772571076" x2="54.21961505331055" y1="26.818313649435495" y2="22.513508569990535" /><path d="M 56.25429882871897 25.957352633546506 a86.0,86.0 0 0,1 42.265352541879196,-11.944610805530505" fill="none" id="id60" stroke="none" /><text fill="#e1ed5e" style="font-size:6.75px; font-family:Arial;" text-anchor="middle"><textPath startOffset="22.20632615414155" xlink:href="#id60">December</textPath></text></svg>